Courier Prime.ufo
<glyph name="quotedbl" format="1">
  <advance width="1228"/>
  <unicode hex="0022"/>
  <outline>
    <contour>
      <point x="506" y="1209" type="line" smooth="yes"/>
      <point x="529.5" y="1209.0" name="inserted"/>
      <point x="550.0" y="1184.0"/>
      <point x="547" y="1159" type="qcurve" smooth="yes"/>
      <point x="492" y="709" type="line" smooth="yes"/>
      <point x="489" y="683"/>
      <point x="454" y="655"/>
      <point x="424" y="655" type="qcurve" smooth="yes"/>
      <point x="395" y="655"/>
      <point x="359" y="683"/>
      <point x="356" y="709" type="qcurve" smooth="yes"/>
      <point x="301" y="1159" type="line" smooth="yes"/>
      <point x="298.0" y="1184.0" name="inserted"/>
      <point x="318.5" y="1209.0"/>
      <point x="342" y="1209" type="qcurve" smooth="yes"/>
    </contour>
    <contour>
      <point x="886" y="1209" type="line" smooth="yes"/>
      <point x="909.5" y="1209.0" name="inserted"/>
      <point x="930.0" y="1184.0"/>
      <point x="927" y="1159" type="qcurve" smooth="yes"/>
      <point x="872" y="709" type="line" smooth="yes"/>
      <point x="869" y="683"/>
      <point x="834" y="655"/>
      <point x="804" y="655" type="qcurve" smooth="yes"/>
      <point x="775" y="655"/>
      <point x="739" y="683"/>
      <point x="736" y="709" type="qcurve" smooth="yes"/>
      <point x="681" y="1159" type="line" smooth="yes"/>
      <point x="678.0" y="1184.0" name="inserted"/>
      <point x="698.5" y="1209.0"/>
      <point x="722" y="1209" type="qcurve" smooth="yes"/>
    </contour>
  </outline>
</glyph>
<glyph name="numbersign" format="1">
  <advance width="1228"/>
  <unicode hex="0023"/>
  <outline>
    <contour>
      <point x="288" y="332" type="line"/>
      <point x="103" y="332" type="line" smooth="yes"/>
      <point x="69" y="332"/>
      <point x="40" y="365"/>
      <point x="40" y="404" type="qcurve" smooth="yes"/>
      <point x="40" y="443"/>
      <point x="69" y="476"/>
      <point x="103" y="476" type="qcurve" smooth="yes"/>
      <point x="333" y="476" type="line"/>
      <point x="409" y="721" type="line"/>
      <point x="203" y="721" type="line" smooth="yes"/>
      <point x="169" y="721"/>
      <point x="140" y="754"/>
      <point x="140" y="793" type="qcurve" smooth="yes"/>
      <point x="140" y="832"/>
      <point x="169" y="865"/>
      <point x="203" y="865" type="qcurve" smooth="yes"/>
      <point x="454" y="865" type="line"/>
      <point x="552" y="1176" type="line" smooth="yes"/>
      <point x="557" y="1193"/>
      <point x="588" y="1209"/>
      <point x="606" y="1209" type="qcurve" smooth="yes"/>
      <point x="621" y="1209"/>
      <point x="650" y="1200"/>
      <point x="660.5" y="1191.0" type="qcurve" smooth="yes" name="inserted"/>
      <point x="671" y="1182"/>
      <point x="681" y="1157"/>
      <point x="676" y="1142" type="qcurve" smooth="yes"/>
      <point x="589" y="865" type="line"/>
      <point x="808" y="865" type="line"/>
      <point x="906" y="1176" type="line" smooth="yes"/>
      <point x="911" y="1193"/>
      <point x="942" y="1209"/>
      <point x="960" y="1209" type="qcurve" smooth="yes"/>
      <point x="975" y="1209"/>
      <point x="1004" y="1200"/>
      <point x="1014.5" y="1191.0" type="qcurve" smooth="yes" name="inserted"/>
      <point x="1025" y="1182"/>
      <point x="1035" y="1157"/>
      <point x="1030" y="1142" type="qcurve" smooth="yes"/>
      <point x="943" y="865" type="line"/>
      <point x="1125" y="865" type="line" smooth="yes"/>
      <point x="1159" y="865"/>
      <point x="1188" y="832"/>
      <point x="1188" y="793" type="qcurve" smooth="yes"/>
      <point x="1188" y="754"/>
      <point x="1159" y="721"/>
      <point x="1125" y="721" type="qcurve" smooth="yes"/>
      <point x="898" y="721" type="line"/>
      <point x="821" y="476" type="line"/>
      <point x="1025" y="476" type="line" smooth="yes"/>
      <point x="1059" y="476"/>
      <point x="1088" y="443"/>
      <point x="1088" y="404" type="qcurve" smooth="yes"/>
      <point x="1088" y="365"/>
      <point x="1059" y="332"/>
      <point x="1025" y="332" type="qcurve" smooth="yes"/>
      <point x="776" y="332" type="line"/>
      <point x="676" y="11" type="line" smooth="yes"/>
      <point x="671" y="-6"/>
      <point x="640" y="-22"/>
      <point x="622" y="-22" type="qcurve" smooth="yes"/>
      <point x="607" y="-22"/>
      <point x="578" y="-13"/>
      <point x="567.5" y="-4.0" type="qcurve" smooth="yes" name="inserted"/>
      <point x="557" y="5"/>
      <point x="547" y="30"/>
      <point x="552" y="45" type="qcurve" smooth="yes"/>
      <point x="642" y="332" type="line"/>
      <point x="422" y="332" type="line"/>
      <point x="322" y="11" type="line" smooth="yes"/>
      <point x="317" y="-6"/>
      <point x="286" y="-22"/>
      <point x="268" y="-22" type="qcurve" smooth="yes"/>
      <point x="253" y="-22"/>
      <point x="224" y="-13"/>
      <point x="213.5" y="-4.0" type="qcurve" smooth="yes" name="inserted"/>
      <point x="203" y="5"/>
      <point x="193" y="30"/>
      <point x="198" y="45" type="qcurve" smooth="yes"/>
    </contour>
    <contour>
      <point x="467" y="476" type="line"/>
      <point x="687" y="476" type="line"/>
      <point x="763" y="721" type="line"/>
      <point x="544" y="721" type="line"/>
    </contour>
  </outline>
</glyph>
<glyph name="ampersand" format="1">
  <advance width="1228"/>
  <unicode hex="0026"/>
  <outline>
    <contour>
      <point x="791" y="130" type="line"/>
      <point x="729" y="58"/>
      <point x="577" y="-22"/>
      <point x="486" y="-22" type="qcurve" smooth="yes"/>
      <point x="405" y="-22"/>
      <point x="279" y="31"/>
      <point x="235.5" y="76.5" type="qcurve" smooth="yes" name="inserted"/>
      <point x="192" y="122"/>
      <point x="147" y="243"/>
      <point x="147" y="310" type="qcurve" smooth="yes"/>
      <point x="147" y="363"/>
      <point x="175" y="455"/>
      <point x="200.5" y="494.5" type="qcurve" smooth="yes" name="inserted"/>
      <point x="226" y="534"/>
      <point x="298" y="604"/>
      <point x="342" y="634" type="qcurve"/>
      <point x="298" y="685"/>
      <point x="243" y="811"/>
      <point x="243" y="890" type="qcurve" smooth="yes"/>
      <point x="243" y="957"/>
      <point x="290" y="1073"/>
      <point x="333.5" y="1116.0" type="qcurve" smooth="yes" name="inserted"/>
      <point x="377" y="1159"/>
      <point x="501" y="1209"/>
      <point x="578" y="1209" type="qcurve" smooth="yes"/>
      <point x="668" y="1209"/>
      <point x="825" y="1150"/>
      <point x="891" y="1105" type="qcurve" smooth="yes"/>
      <point x="901.5" y="1097.5" name="inserted"/>
      <point x="912.0" y="1070.5"/>
      <point x="912" y="1051" type="qcurve" smooth="yes"/>
      <point x="912" y="924" type="line" smooth="yes"/>
      <point x="912" y="889"/>
      <point x="879" y="859"/>
      <point x="837" y="859" type="qcurve" smooth="yes"/>
      <point x="795" y="859"/>
      <point x="762" y="889"/>
      <point x="762" y="924" type="qcurve" smooth="yes"/>
      <point x="762" y="1014" type="line"/>
      <point x="727" y="1036"/>
      <point x="634" y="1061"/>
      <point x="577" y="1061" type="qcurve" smooth="yes"/>
      <point x="534" y="1061"/>
      <point x="468" y="1034"/>
      <point x="445.5" y="1010.5" type="qcurve" smooth="yes" name="inserted"/>
      <point x="423" y="987"/>
      <point x="399" y="925"/>
      <point x="399" y="890" type="qcurve" smooth="yes"/>
      <point x="399" y="836"/>
      <point x="442" y="747"/>
      <point x="482" y="702" type="qcurve" smooth="yes"/>
      <point x="775" y="372" type="line"/>
      <point x="795.0" y="416.0" name="inserted"/>
      <point x="831.0" y="514.5"/>
      <point x="847" y="569" type="qcurve" smooth="yes"/>
      <point x="852" y="587"/>
      <point x="876" y="611"/>
      <point x="899" y="611" type="qcurve" smooth="yes"/>
      <point x="1056" y="611" type="line" smooth="yes"/>
      <point x="1090" y="611"/>
      <point x="1119" y="581"/>
      <point x="1119" y="543" type="qcurve" smooth="yes"/>
      <point x="1119" y="505"/>
      <point x="1090" y="475"/>
      <point x="1056" y="475" type="qcurve" smooth="yes"/>
      <point x="963" y="475" type="line"/>
      <point x="946" y="415"/>
      <point x="903" y="306"/>
      <point x="877" y="258" type="qcurve"/>
      <point x="986" y="136" type="line"/>
      <point x="1070" y="136" type="line" smooth="yes"/>
      <point x="1104" y="136"/>
      <point x="1133" y="106"/>
      <point x="1133" y="68" type="qcurve" smooth="yes"/>
      <point x="1133" y="30"/>
      <point x="1104" y="0"/>
      <point x="1070" y="0" type="qcurve" smooth="yes"/>
      <point x="956" y="0" type="line" smooth="yes"/>
      <point x="934" y="0"/>
      <point x="894" y="16"/>
      <point x="878" y="33" type="qcurve" smooth="yes"/>
    </contour>
    <contour>
      <point x="486" y="126" type="qcurve" smooth="yes"/>
      <point x="549" y="126"/>
      <point x="652" y="185"/>
      <point x="695" y="238" type="qcurve"/>
      <point x="434" y="532" type="line"/>
      <point x="365" y="483"/>
      <point x="305" y="377"/>
      <point x="305" y="310" type="qcurve" smooth="yes"/>
      <point x="305" y="271"/>
      <point x="331" y="203"/>
      <point x="355.0" y="178.5" type="qcurve" smooth="yes" name="inserted"/>
      <point x="379" y="154"/>
      <point x="445" y="126"/>
    </contour>
  </outline>
</glyph>
<glyph name="quotesingle" format="1">
  <advance width="1228"/>
  <unicode hex="0027"/>
  <outline>
    <contour>
      <point x="696" y="1209" type="line" smooth="yes"/>
      <point x="719.5" y="1209.0" name="inserted"/>
      <point x="740.0" y="1184.0"/>
      <point x="737" y="1159" type="qcurve" smooth="yes"/>
      <point x="682" y="709" type="line" smooth="yes"/>
      <point x="679" y="683"/>
      <point x="644" y="655"/>
      <point x="614" y="655" type="qcurve" smooth="yes"/>
      <point x="585" y="655"/>
      <point x="549" y="683"/>
      <point x="546" y="709" type="qcurve" smooth="yes"/>
      <point x="491" y="1159" type="line" smooth="yes"/>
      <point x="488.0" y="1184.0" name="inserted"/>
      <point x="508.5" y="1209.0"/>
      <point x="532" y="1209" type="qcurve" smooth="yes"/>
    </contour>
  </outline>
</glyph>
<glyph name="parenright" format="1">
  <advance width="1228"/>
  <unicode hex="0029"/>
  <outline>
    <contour>
      <point x="457" y="-397" type="qcurve" smooth="yes"/>
      <point x="435" y="-410"/>
      <point x="394" y="-386"/>
      <point x="380" y="-363" type="qcurve" smooth="yes"/>
      <point x="366" y="-340"/>
      <point x="360" y="-291"/>
      <point x="376" y="-280" type="qcurve" smooth="yes"/>
      <point x="450" y="-231"/>
      <point x="596" y="-93"/>
      <point x="653.5" y="-2.0" type="qcurve" smooth="yes" name="inserted"/>
      <point x="711" y="89"/>
      <point x="783" y="318"/>
      <point x="783" y="457" type="qcurve" smooth="yes"/>
      <point x="783" y="596"/>
      <point x="711" y="826"/>
      <point x="653.5" y="918.0" type="qcurve" smooth="yes" name="inserted"/>
      <point x="596" y="1010"/>
      <point x="450" y="1149"/>
      <point x="376" y="1198" type="qcurve" smooth="yes"/>
      <point x="360" y="1209"/>
      <point x="366" y="1258"/>
      <point x="380" y="1281" type="qcurve" smooth="yes"/>
      <point x="394" y="1304"/>
      <point x="435" y="1328"/>
      <point x="457" y="1315" type="qcurve" smooth="yes"/>
      <point x="541" y="1265"/>
      <point x="710" y="1103"/>
      <point x="778.0" y="994.5" type="qcurve" smooth="yes" name="inserted"/>
      <point x="846" y="886"/>
      <point x="931" y="616"/>
      <point x="931" y="457" type="qcurve" smooth="yes"/>
      <point x="931" y="298"/>
      <point x="846" y="30"/>
      <point x="778.0" y="-78.0" type="qcurve" smooth="yes" name="inserted"/>
      <point x="710" y="-186"/>
      <point x="541" y="-347"/>
    </contour>
  </outline>
</glyph>
<glyph name="comma" format="1">
  <advance width="1228"/>
  <unicode hex="002C"/>
  <outline>
    <contour>
      <point x="500" y="-253" type="line" smooth="yes"/>
      <point x="489" y="-274"/>
      <point x="454" y="-294"/>
      <point x="434" y="-294" type="qcurve" smooth="yes"/>
      <point x="420" y="-294"/>
      <point x="396" y="-285"/>
      <point x="387.0" y="-276.5" type="qcurve" smooth="yes" name="inserted"/>
      <point x="378" y="-268"/>
      <point x="371" y="-244"/>
      <point x="374" y="-228" type="qcurve" smooth="yes"/>
      <point x="478" y="254" type="line" smooth="yes"/>
      <point x="482.5" y="274.0" name="inserted"/>
      <point x="508.5" y="294.0"/>
      <point x="530" y="294" type="qcurve" smooth="yes"/>
      <point x="724" y="294" type="line" smooth="yes"/>
      <point x="749" y="294"/>
      <point x="766" y="257"/>
      <point x="752" y="231" type="qcurve" smooth="yes"/>
    </contour>
  </outline>
</glyph>
<glyph name="zero" format="1">
  <advance width="1228"/>
  <unicode hex="0030"/>
  <outline>
    <contour>
      <point x="188" y="593" type="qcurve" smooth="yes"/>
      <point x="188" y="732"/>
      <point x="248" y="959"/>
      <point x="303.5" y="1040.0" type="qcurve" smooth="yes" name="inserted"/>
      <point x="359" y="1121"/>
      <point x="516" y="1209"/>
      <point x="614" y="1209" type="qcurve" smooth="yes"/>
      <point x="711" y="1209"/>
      <point x="869" y="1121"/>
      <point x="924.5" y="1040.0" type="qcurve" smooth="yes" name="inserted"/>
      <point x="980" y="959"/>
      <point x="1040" y="732"/>
      <point x="1040" y="593" type="qcurve" smooth="yes"/>
      <point x="1040" y="454"/>
      <point x="980" y="227"/>
      <point x="924.5" y="146.5" type="qcurve" smooth="yes" name="inserted"/>
      <point x="869" y="66"/>
      <point x="711" y="-22"/>
      <point x="614" y="-22" type="qcurve" smooth="yes"/>
      <point x="516" y="-22"/>
      <point x="359" y="66"/>
      <point x="303.5" y="146.5" type="qcurve" smooth="yes" name="inserted"/>
      <point x="248" y="227"/>
      <point x="188" y="454"/>
    </contour>
    <contour>
      <point x="346" y="593" type="qcurve" smooth="yes"/>
      <point x="346" y="481"/>
      <point x="386" y="307"/>
      <point x="421.5" y="247.5" type="qcurve" smooth="yes" name="inserted"/>
      <point x="457" y="188"/>
      <point x="555" y="126"/>
      <point x="614" y="126" type="qcurve" smooth="yes"/>
      <point x="673" y="126"/>
      <point x="771" y="188"/>
      <point x="806.5" y="247.5" type="qcurve" smooth="yes" name="inserted"/>
      <point x="842" y="307"/>
      <point x="882" y="481"/>
      <point x="882" y="593" type="qcurve" smooth="yes"/>
      <point x="882" y="705"/>
      <point x="842" y="879"/>
      <point x="806.5" y="939.0" type="qcurve" smooth="yes" name="inserted"/>
      <point x="771" y="999"/>
      <point x="673" y="1061"/>
      <point x="614" y="1061" type="qcurve" smooth="yes"/>
      <point x="555" y="1061"/>
      <point x="457" y="999"/>
      <point x="421.5" y="939.0" type="qcurve" smooth="yes" name="inserted"/>
      <point x="386" y="879"/>
      <point x="346" y="705"/>
    </contour>
    <contour>
      <point x="461" y="1001" type="move"/>
      <point x="846" y="298" type="line"/>
      <point x="770" y="180" type="line"/>
      <point x="390" y="880" type="line"/>
    </contour>
  </outline>
</glyph>
<glyph name="five" format="1">
  <advance width="1228"/>
  <unicode hex="0035"/>
  <outline>
    <contour>
      <point x="219" y="97" type="qcurve" smooth="yes"/>
      <point x="195" y="114"/>
      <point x="183" y="161"/>
      <point x="204" y="196" type="qcurve" smooth="yes"/>
      <point x="225" y="231"/>
      <point x="273" y="243"/>
      <point x="296" y="226" type="qcurve" smooth="yes"/>
      <point x="359" y="181"/>
      <point x="510" y="126"/>
      <point x="588" y="126" type="qcurve" smooth="yes"/>
      <point x="650" y="126"/>
      <point x="748" y="163"/>
      <point x="782.0" y="197.5" type="qcurve" smooth="yes" name="inserted"/>
      <point x="816" y="232"/>
      <point x="852" y="327"/>
      <point x="852" y="386" type="qcurve" smooth="yes"/>
      <point x="852" y="441"/>
      <point x="818" y="534"/>
      <point x="786.5" y="567.5" type="qcurve" smooth="yes" name="inserted"/>
      <point x="755" y="601"/>
      <point x="665" y="638"/>
      <point x="608" y="638" type="qcurve" smooth="yes"/>
      <point x="536" y="638"/>
      <point x="430" y="601"/>
      <point x="381" y="567" type="qcurve" smooth="yes"/>
      <point x="373.0" y="562.0" name="inserted"/>
      <point x="348.0" y="557.0"/>
      <point x="331" y="557" type="qcurve" smooth="yes"/>
      <point x="289" y="557"/>
      <point x="254" y="587"/>
      <point x="256" y="622" type="qcurve" smooth="yes"/>
      <point x="276" y="1122" type="line" smooth="yes"/>
      <point x="278" y="1157"/>
      <point x="309" y="1187"/>
      <point x="351" y="1187" type="qcurve" smooth="yes"/>
      <point x="885" y="1187" type="line" smooth="yes"/>
      <point x="919" y="1187"/>
      <point x="948" y="1157"/>
      <point x="948" y="1119" type="qcurve" smooth="yes"/>
      <point x="948" y="1081"/>
      <point x="919" y="1051"/>
      <point x="885" y="1051" type="qcurve" smooth="yes"/>
      <point x="419" y="1051" type="line"/>
      <point x="406" y="730" type="line"/>
      <point x="454" y="757"/>
      <point x="561" y="786"/>
      <point x="621" y="786" type="qcurve" smooth="yes"/>
      <point x="712" y="786"/>
      <point x="857" y="727"/>
      <point x="907.0" y="673.5" type="qcurve" smooth="yes" name="inserted"/>
      <point x="957" y="620"/>
      <point x="1010" y="473"/>
      <point x="1010" y="386" type="qcurve" smooth="yes"/>
      <point x="1010" y="298"/>
      <point x="951" y="149"/>
      <point x="896.0" y="94.5" type="qcurve" smooth="yes" name="inserted"/>
      <point x="841" y="40"/>
      <point x="685" y="-22"/>
      <point x="588" y="-22" type="qcurve" smooth="yes"/>
      <point x="490" y="-22"/>
      <point x="297" y="43"/>
    </contour>
  </outline>
</glyph>
<glyph name="eight" format="1">
  <advance width="1228"/>
  <unicode hex="0038"/>
  <outline>
    <contour>
      <point x="245" y="879" type="qcurve" smooth="yes"/>
      <point x="245" y="948"/>
      <point x="301" y="1069"/>
      <point x="350.0" y="1113.5" type="qcurve" smooth="yes" name="inserted"/>
      <point x="399" y="1158"/>
      <point x="534" y="1209"/>
      <point x="614" y="1209" type="qcurve" smooth="yes"/>
      <point x="693" y="1209"/>
      <point x="829" y="1158"/>
      <point x="878.0" y="1113.5" type="qcurve" smooth="yes" name="inserted"/>
      <point x="927" y="1069"/>
      <point x="983" y="948"/>
      <point x="983" y="879" type="qcurve" smooth="yes"/>
      <point x="983" y="837"/>
      <point x="957" y="762"/>
      <point x="934.5" y="730.5" type="qcurve" smooth="yes" name="inserted"/>
      <point x="912" y="699"/>
      <point x="852" y="649"/>
      <point x="817" y="630" type="qcurve"/>
      <point x="861" y="610"/>
      <point x="936" y="553"/>
      <point x="963.5" y="516.0" type="qcurve" smooth="yes" name="inserted"/>
      <point x="991" y="479"/>
      <point x="1022" y="391"/>
      <point x="1022" y="340" type="qcurve" smooth="yes"/>
      <point x="1022" y="262"/>
      <point x="960" y="129"/>
      <point x="905.5" y="80.5" type="qcurve" smooth="yes" name="inserted"/>
      <point x="851" y="32"/>
      <point x="702" y="-22"/>
      <point x="614" y="-22" type="qcurve" smooth="yes"/>
      <point x="526" y="-22"/>
      <point x="377" y="32"/>
      <point x="322.5" y="80.5" type="qcurve" smooth="yes" name="inserted"/>
      <point x="268" y="129"/>
      <point x="206" y="262"/>
      <point x="206" y="340" type="qcurve" smooth="yes"/>
      <point x="206" y="391"/>
      <point x="237" y="479"/>
      <point x="264.0" y="516.0" type="qcurve" smooth="yes" name="inserted"/>
      <point x="291" y="553"/>
      <point x="366" y="610"/>
      <point x="410" y="630" type="qcurve"/>
      <point x="375" y="649"/>
      <point x="315" y="699"/>
      <point x="292.5" y="730.5" type="qcurve" smooth="yes" name="inserted"/>
      <point x="270" y="762"/>
      <point x="245" y="837"/>
    </contour>
    <contour>
      <point x="366" y="341" type="qcurve" smooth="yes"/>
      <point x="366" y="294"/>
      <point x="402" y="215"/>
      <point x="435.0" y="186.5" type="qcurve" smooth="yes" name="inserted"/>
      <point x="468" y="158"/>
      <point x="559" y="126"/>
      <point x="614" y="126" type="qcurve" smooth="yes"/>
      <point x="669" y="126"/>
      <point x="760" y="158"/>
      <point x="793.0" y="186.5" type="qcurve" smooth="yes" name="inserted"/>
      <point x="826" y="215"/>
      <point x="862" y="294"/>
      <point x="862" y="341" type="qcurve" smooth="yes"/>
      <point x="862" y="388"/>
      <point x="826" y="467"/>
      <point x="793.0" y="495.0" type="qcurve" smooth="yes" name="inserted"/>
      <point x="760" y="523"/>
      <point x="669" y="554"/>
      <point x="614" y="554" type="qcurve" smooth="yes"/>
      <point x="559" y="554"/>
      <point x="468" y="523"/>
      <point x="435.0" y="495.0" type="qcurve" smooth="yes" name="inserted"/>
      <point x="402" y="467"/>
      <point x="366" y="388"/>
    </contour>
    <contour>
      <point x="399" y="876" type="qcurve" smooth="yes"/>
      <point x="399" y="837"/>
      <point x="432" y="771"/>
      <point x="460.5" y="746.0" type="qcurve" smooth="yes" name="inserted"/>
      <point x="489" y="721"/>
      <point x="568" y="693"/>
      <point x="614" y="693" type="qcurve" smooth="yes"/>
      <point x="660" y="693"/>
      <point x="739" y="721"/>
      <point x="767.5" y="746.0" type="qcurve" smooth="yes" name="inserted"/>
      <point x="796" y="771"/>
      <point x="829" y="837"/>
      <point x="829" y="876" type="qcurve" smooth="yes"/>
      <point x="829" y="919"/>
      <point x="796" y="987"/>
      <point x="767.5" y="1011.0" type="qcurve" smooth="yes" name="inserted"/>
      <point x="739" y="1035"/>
      <point x="660" y="1061"/>
      <point x="614" y="1061" type="qcurve" smooth="yes"/>
      <point x="568" y="1061"/>
      <point x="489" y="1035"/>
      <point x="460.5" y="1011.0" type="qcurve" smooth="yes" name="inserted"/>
      <point x="432" y="987"/>
      <point x="399" y="919"/>
    </contour>
  </outline>
</glyph>
<glyph name="nine" format="1">
  <advance width="1228"/>
  <unicode hex="0039"/>
  <outline>
    <contour>
      <point x="856" y="819" type="qcurve" smooth="yes"/>
      <point x="856" y="872"/>
      <point x="820" y="961"/>
      <point x="787.0" y="993.0" type="qcurve" smooth="yes" name="inserted"/>
      <point x="754" y="1025"/>
      <point x="660" y="1061"/>
      <point x="602" y="1061" type="qcurve" smooth="yes"/>
      <point x="545" y="1061"/>
      <point x="452" y="1029"/>
      <point x="419.0" y="999.0" type="qcurve" smooth="yes" name="inserted"/>
      <point x="386" y="969"/>
      <point x="350" y="885"/>
      <point x="350" y="834" type="qcurve" smooth="yes"/>
      <point x="350" y="782"/>
      <point x="385" y="697"/>
      <point x="417.5" y="667.0" type="qcurve" smooth="yes" name="inserted"/>
      <point x="450" y="637"/>
      <point x="543" y="604"/>
      <point x="602" y="604" type="qcurve" smooth="yes"/>
      <point x="657" y="604"/>
      <point x="751" y="635"/>
      <point x="784.5" y="663.5" type="qcurve" smooth="yes" name="inserted"/>
      <point x="818" y="692"/>
      <point x="856" y="771"/>
    </contour>
    <contour>
      <point x="290" y="125" type="qcurve" smooth="yes"/>
      <point x="428" y="132"/>
      <point x="633" y="205"/>
      <point x="704.0" y="266.5" type="qcurve" smooth="yes" name="inserted"/>
      <point x="775" y="328"/>
      <point x="856" y="496"/>
      <point x="870" y="598" type="qcurve"/>
      <point x="817" y="529"/>
      <point x="666" y="456"/>
      <point x="580" y="456" type="qcurve" smooth="yes"/>
      <point x="497" y="456"/>
      <point x="355" y="510"/>
      <point x="303.0" y="559.5" type="qcurve" smooth="yes" name="inserted"/>
      <point x="251" y="609"/>
      <point x="192" y="748"/>
      <point x="192" y="834" type="qcurve" smooth="yes"/>
      <point x="192" y="915"/>
      <point x="251" y="1053"/>
      <point x="304.5" y="1103.0" type="qcurve" smooth="yes" name="inserted"/>
      <point x="358" y="1153"/>
      <point x="509" y="1209"/>
      <point x="602" y="1209" type="qcurve" smooth="yes"/>
      <point x="655" y="1209"/>
      <point x="756" y="1185"/>
      <point x="801.0" y="1160.5" type="qcurve" smooth="yes" name="inserted"/>
      <point x="846" y="1136"/>
      <point x="921" y="1063"/>
      <point x="950" y="1014" type="qcurve" smooth="yes"/>
      <point x="988" y="949"/>
      <point x="1027" y="784"/>
      <point x="1027" y="675" type="qcurve" smooth="yes"/>
      <point x="1027" y="595"/>
      <point x="994" y="432"/>
      <point x="958.0" y="356.5" type="qcurve" smooth="yes" name="inserted"/>
      <point x="922" y="281"/>
      <point x="809" y="148"/>
      <point x="729.5" y="97.5" type="qcurve" smooth="yes" name="inserted"/>
      <point x="650" y="47"/>
      <point x="442" y="-16"/>
      <point x="311" y="-22" type="qcurve" smooth="yes"/>
      <point x="289" y="-23"/>
      <point x="258" y="4"/>
      <point x="254" y="45" type="qcurve" smooth="yes"/>
      <point x="250" y="90"/>
      <point x="270" y="124"/>
    </contour>
  </outline>
</glyph>
<glyph name="colon" format="1">
  <advance width="1228"/>
  <unicode hex="003A"/>
  <outline>
    <contour>
      <point x="445" y="147" type="qcurve" smooth="yes"/>
      <point x="445" y="182"/>
      <point x="472" y="243"/>
      <point x="495.0" y="266.0" type="qcurve" smooth="yes" name="inserted"/>
      <point x="518" y="289"/>
      <point x="579" y="316"/>
      <point x="614" y="316" type="qcurve" smooth="yes"/>
      <point x="649" y="316"/>
      <point x="710" y="289"/>
      <point x="733.0" y="266.0" type="qcurve" smooth="yes" name="inserted"/>
      <point x="756" y="243"/>
      <point x="783" y="182"/>
      <point x="783" y="147" type="qcurve" smooth="yes"/>
      <point x="783" y="112"/>
      <point x="756" y="51"/>
      <point x="733.0" y="28.0" type="qcurve" smooth="yes" name="inserted"/>
      <point x="710" y="5"/>
      <point x="649" y="-22"/>
      <point x="614" y="-22" type="qcurve" smooth="yes"/>
      <point x="579" y="-22"/>
      <point x="518" y="5"/>
      <point x="495.0" y="28.0" type="qcurve" smooth="yes" name="inserted"/>
      <point x="472" y="51"/>
      <point x="445" y="112"/>
    </contour>
    <contour>
      <point x="445" y="777" type="qcurve" smooth="yes"/>
      <point x="445" y="812"/>
      <point x="472" y="873"/>
      <point x="495.0" y="896.0" type="qcurve" smooth="yes" name="inserted"/>
      <point x="518" y="919"/>
      <point x="579" y="946"/>
      <point x="614" y="946" type="qcurve" smooth="yes"/>
      <point x="649" y="946"/>
      <point x="710" y="919"/>
      <point x="733.0" y="896.0" type="qcurve" smooth="yes" name="inserted"/>
      <point x="756" y="873"/>
      <point x="783" y="812"/>
      <point x="783" y="777" type="qcurve" smooth="yes"/>
      <point x="783" y="742"/>
      <point x="756" y="681"/>
      <point x="733.0" y="658.0" type="qcurve" smooth="yes" name="inserted"/>
      <point x="710" y="635"/>
      <point x="649" y="608"/>
      <point x="614" y="608" type="qcurve" smooth="yes"/>
      <point x="579" y="608"/>
      <point x="518" y="635"/>
      <point x="495.0" y="658.0" type="qcurve" smooth="yes" name="inserted"/>
      <point x="472" y="681"/>
      <point x="445" y="742"/>
    </contour>
  </outline>
</glyph>
<glyph name="less" format="1">
  <advance width="1228"/>
  <unicode hex="003C"/>
  <outline>
    <contour>
      <point x="1012" y="261" type="line" smooth="yes"/>
      <point x="1044" y="246"/>
      <point x="1058" y="201"/>
      <point x="1041" y="166" type="qcurve" smooth="yes"/>
      <point x="1024" y="133"/>
      <point x="980" y="118"/>
      <point x="949" y="133" type="qcurve" smooth="yes"/>
      <point x="172" y="514" type="line" smooth="yes"/>
      <point x="148" y="526"/>
      <point x="125" y="557"/>
      <point x="125" y="583" type="qcurve" smooth="yes"/>
      <point x="125" y="609"/>
      <point x="148" y="640"/>
      <point x="172" y="652" type="qcurve" smooth="yes"/>
      <point x="949" y="1033" type="line" smooth="yes"/>
      <point x="980" y="1048"/>
      <point x="1024" y="1033"/>
      <point x="1041" y="1000" type="qcurve" smooth="yes"/>
      <point x="1058" y="965"/>
      <point x="1044" y="920"/>
      <point x="1012" y="905" type="qcurve" smooth="yes"/>
      <point x="340" y="583" type="line"/>
    </contour>
  </outline>
</glyph>
<glyph name="greater" format="1">
  <advance width="1228"/>
  <unicode hex="003E"/>
  <outline>
    <contour>
      <point x="888" y="583" type="line"/>
      <point x="216" y="905" type="line" smooth="yes"/>
      <point x="184" y="920"/>
      <point x="170" y="965"/>
      <point x="187" y="1000" type="qcurve" smooth="yes"/>
      <point x="204" y="1033"/>
      <point x="248" y="1048"/>
      <point x="279" y="1033" type="qcurve" smooth="yes"/>
      <point x="1056" y="652" type="line" smooth="yes"/>
      <point x="1080" y="640"/>
      <point x="1103" y="609"/>
      <point x="1103" y="583" type="qcurve" smooth="yes"/>
      <point x="1103" y="557"/>
      <point x="1080" y="526"/>
      <point x="1056" y="514" type="qcurve" smooth="yes"/>
      <point x="279" y="133" type="line" smooth="yes"/>
      <point x="248" y="118"/>
      <point x="204" y="133"/>
      <point x="187" y="166" type="qcurve" smooth="yes"/>
      <point x="170" y="201"/>
      <point x="184" y="246"/>
      <point x="216" y="261" type="qcurve" smooth="yes"/>
    </contour>
  </outline>
</glyph>
<glyph name="A" format="1">
  <advance width="1228"/>
  <unicode hex="0041"/>
  <outline>
    <contour>
      <point x="407" y="136" type="line" smooth="yes"/>
      <point x="441" y="136"/>
      <point x="470" y="106"/>
      <point x="470" y="68" type="qcurve" smooth="yes"/>
      <point x="470" y="30"/>
      <point x="441" y="0"/>
      <point x="407" y="0" type="qcurve" smooth="yes"/>
      <point x="73" y="0" type="line" smooth="yes"/>
      <point x="39" y="0"/>
      <point x="10" y="30"/>
      <point x="10" y="68" type="qcurve" smooth="yes"/>
      <point x="10" y="106"/>
      <point x="39" y="136"/>
      <point x="73" y="136" type="qcurve" smooth="yes"/>
      <point x="129" y="136" type="line"/>
      <point x="460" y="1051" type="line"/>
      <point x="273" y="1051" type="line" smooth="yes"/>
      <point x="239" y="1051"/>
      <point x="210" y="1081"/>
      <point x="210" y="1119" type="qcurve" smooth="yes"/>
      <point x="210" y="1157"/>
      <point x="239" y="1187"/>
      <point x="273" y="1187" type="qcurve" smooth="yes"/>
      <point x="640" y="1187" type="line" smooth="yes"/>
      <point x="680" y="1187"/>
      <point x="729" y="1157"/>
      <point x="741" y="1122" type="qcurve" smooth="yes"/>
      <point x="1094" y="136" type="line"/>
      <point x="1155" y="136" type="line" smooth="yes"/>
      <point x="1189" y="136"/>
      <point x="1218" y="106"/>
      <point x="1218" y="68" type="qcurve" smooth="yes"/>
      <point x="1218" y="30"/>
      <point x="1189" y="0"/>
      <point x="1155" y="0" type="qcurve" smooth="yes"/>
      <point x="801" y="0" type="line" smooth="yes"/>
      <point x="767" y="0"/>
      <point x="738" y="30"/>
      <point x="738" y="68" type="qcurve" smooth="yes"/>
      <point x="738" y="106"/>
      <point x="767" y="136"/>
      <point x="801" y="136" type="qcurve" smooth="yes"/>
      <point x="936" y="136" type="line"/>
      <point x="854" y="374" type="line"/>
      <point x="369" y="374" type="line"/>
      <point x="286" y="136" type="line"/>
    </contour>
    <contour>
      <point x="416" y="510" type="line"/>
      <point x="808" y="510" type="line"/>
      <point x="622" y="1051" type="line"/>
      <point x="603" y="1051" type="line"/>
    </contour>
  </outline>
</glyph>
<glyph name="B" format="1">
  <advance width="1228"/>
  <unicode hex="0042"/>
  <outline>
    <contour>
      <point x="265" y="1051" type="line"/>
      <point x="143" y="1051" type="line" smooth="yes"/>
      <point x="109" y="1051"/>
      <point x="80" y="1081"/>
      <point x="80" y="1119" type="qcurve" smooth="yes"/>
      <point x="80" y="1157"/>
      <point x="109" y="1187"/>
      <point x="143" y="1187" type="qcurve" smooth="yes"/>
      <point x="644" y="1187" type="line" smooth="yes"/>
      <point x="734" y="1187"/>
      <point x="870" y="1141"/>
      <point x="915.5" y="1098.5" type="qcurve" smooth="yes" name="inserted"/>
      <point x="961" y="1056"/>
      <point x="1008" y="937"/>
      <point x="1008" y="865" type="qcurve" smooth="yes"/>
      <point x="1008" y="787"/>
      <point x="938" y="671"/>
      <point x="875" y="635" type="qcurve"/>
      <point x="981" y="601"/>
      <point x="1094" y="451"/>
      <point x="1094" y="339" type="qcurve" smooth="yes"/>
      <point x="1094" y="260"/>
      <point x="1043" y="135"/>
      <point x="994.0" y="91.0" type="qcurve" smooth="yes" name="inserted"/>
      <point x="945" y="47"/>
      <point x="802" y="0"/>
      <point x="710" y="0" type="qcurve" smooth="yes"/>
      <point x="143" y="0" type="line" smooth="yes"/>
      <point x="109" y="0"/>
      <point x="80" y="30"/>
      <point x="80" y="68" type="qcurve" smooth="yes"/>
      <point x="80" y="106"/>
      <point x="109" y="136"/>
      <point x="143" y="136" type="qcurve" smooth="yes"/>
      <point x="265" y="136" type="line"/>
    </contour>
    <contour>
      <point x="680" y="136" type="line" smooth="yes"/>
      <point x="805" y="136"/>
      <point x="936" y="242"/>
      <point x="936" y="339" type="qcurve" smooth="yes"/>
      <point x="936.0" y="442.0" name="inserted"/>
      <point x="810.5" y="545.0"/>
      <point x="685" y="545" type="qcurve" smooth="yes"/>
      <point x="415" y="545" type="line"/>
      <point x="415" y="136" type="line"/>
    </contour>
    <contour>
      <point x="622" y="681" type="line" smooth="yes"/>
      <point x="740" y="681"/>
      <point x="855" y="777"/>
      <point x="855" y="865" type="qcurve" smooth="yes"/>
      <point x="855" y="956"/>
      <point x="740" y="1051"/>
      <point x="622" y="1051" type="qcurve" smooth="yes"/>
      <point x="415" y="1051" type="line"/>
      <point x="415" y="681" type="line"/>
    </contour>
  </outline>
</glyph>
<glyph name="E" format="1">
  <advance width="1228"/>
  <unicode hex="0045"/>
  <outline>
    <contour>
      <point x="245" y="1051" type="line"/>
      <point x="143" y="1051" type="line" smooth="yes"/>
      <point x="109" y="1051"/>
      <point x="80" y="1081"/>
      <point x="80" y="1119" type="qcurve" smooth="yes"/>
      <point x="80" y="1157"/>
      <point x="109" y="1187"/>
      <point x="143" y="1187" type="qcurve" smooth="yes"/>
      <point x="1017" y="1187" type="line" smooth="yes"/>
      <point x="1051" y="1187"/>
      <point x="1080" y="1157"/>
      <point x="1080" y="1119" type="qcurve" smooth="yes"/>
      <point x="1080" y="865" type="line" smooth="yes"/>
      <point x="1080" y="830"/>
      <point x="1047" y="800"/>
      <point x="1005" y="800" type="qcurve" smooth="yes"/>
      <point x="963" y="800"/>
      <point x="930" y="830"/>
      <point x="930" y="865" type="qcurve" smooth="yes"/>
      <point x="930" y="1051" type="line"/>
      <point x="395" y="1051" type="line"/>
      <point x="395" y="680" type="line"/>
      <point x="645" y="680" type="line"/>
      <point x="645" y="771" type="line" smooth="yes"/>
      <point x="645" y="806"/>
      <point x="678" y="836"/>
      <point x="720" y="836" type="qcurve" smooth="yes"/>
      <point x="762" y="836"/>
      <point x="795" y="806"/>
      <point x="795" y="771" type="qcurve" smooth="yes"/>
      <point x="795" y="453" type="line" smooth="yes"/>
      <point x="795" y="418"/>
      <point x="762" y="388"/>
      <point x="720" y="388" type="qcurve" smooth="yes"/>
      <point x="678" y="388"/>
      <point x="645" y="418"/>
      <point x="645" y="453" type="qcurve" smooth="yes"/>
      <point x="645" y="544" type="line"/>
      <point x="395" y="544" type="line"/>
      <point x="395" y="136" type="line"/>
      <point x="950" y="136" type="line"/>
      <point x="950" y="365" type="line" smooth="yes"/>
      <point x="950" y="400"/>
      <point x="983" y="430"/>
      <point x="1025" y="430" type="qcurve" smooth="yes"/>
      <point x="1067" y="430"/>
      <point x="1100" y="400"/>
      <point x="1100" y="365" type="qcurve" smooth="yes"/>
      <point x="1100" y="68" type="line" smooth="yes"/>
      <point x="1100" y="30"/>
      <point x="1071" y="0"/>
      <point x="1037" y="0" type="qcurve" smooth="yes"/>
      <point x="143" y="0" type="line" smooth="yes"/>
      <point x="109" y="0"/>
      <point x="80" y="30"/>
      <point x="80" y="68" type="qcurve" smooth="yes"/>
      <point x="80" y="106"/>
      <point x="109" y="136"/>
      <point x="143" y="136" type="qcurve" smooth="yes"/>
      <point x="245" y="136" type="line"/>
    </contour>
  </outline>
</glyph>
<glyph name="F" format="1">
  <advance width="1228"/>
  <unicode hex="0046"/>
  <outline>
    <contour>
      <point x="275" y="1051" type="line"/>
      <point x="143" y="1051" type="line" smooth="yes"/>
      <point x="109" y="1051"/>
      <point x="80" y="1081"/>
      <point x="80" y="1119" type="qcurve" smooth="yes"/>
      <point x="80" y="1157"/>
      <point x="109" y="1187"/>
      <point x="143" y="1187" type="qcurve" smooth="yes"/>
      <point x="1047" y="1187" type="line" smooth="yes"/>
      <point x="1081" y="1187"/>
      <point x="1110" y="1157"/>
      <point x="1110" y="1119" type="qcurve" smooth="yes"/>
      <point x="1110" y="855" type="line" smooth="yes"/>
      <point x="1110" y="820"/>
      <point x="1077" y="790"/>
      <point x="1035" y="790" type="qcurve" smooth="yes"/>
      <point x="993" y="790"/>
      <point x="960" y="820"/>
      <point x="960" y="855" type="qcurve" smooth="yes"/>
      <point x="960" y="1051" type="line"/>
      <point x="425" y="1051" type="line"/>
      <point x="425" y="660" type="line"/>
      <point x="675" y="660" type="line"/>
      <point x="675" y="751" type="line" smooth="yes"/>
      <point x="675" y="786"/>
      <point x="708" y="816"/>
      <point x="750" y="816" type="qcurve" smooth="yes"/>
      <point x="792" y="816"/>
      <point x="825" y="786"/>
      <point x="825" y="751" type="qcurve" smooth="yes"/>
      <point x="825" y="433" type="line" smooth="yes"/>
      <point x="825" y="398"/>
      <point x="792" y="368"/>
      <point x="750" y="368" type="qcurve" smooth="yes"/>
      <point x="708" y="368"/>
      <point x="675" y="398"/>
      <point x="675" y="433" type="qcurve" smooth="yes"/>
      <point x="675" y="524" type="line"/>
      <point x="425" y="524" type="line"/>
      <point x="425" y="136" type="line"/>
      <point x="657" y="136" type="line" smooth="yes"/>
      <point x="691" y="136"/>
      <point x="720" y="106"/>
      <point x="720" y="68" type="qcurve" smooth="yes"/>
      <point x="720" y="30"/>
      <point x="691" y="0"/>
      <point x="657" y="0" type="qcurve" smooth="yes"/>
      <point x="143" y="0" type="line" smooth="yes"/>
      <point x="109" y="0"/>
      <point x="80" y="30"/>
      <point x="80" y="68" type="qcurve" smooth="yes"/>
      <point x="80" y="106"/>
      <point x="109" y="136"/>
      <point x="143" y="136" type="qcurve" smooth="yes"/>
      <point x="275" y="136" type="line"/>
    </contour>
  </outline>
</glyph>
<glyph name="G" format="1">
  <advance width="1228"/>
  <unicode hex="0047"/>
  <outline>
    <contour>
      <point x="676" y="410" type="line" smooth="yes"/>
      <point x="642" y="410"/>
      <point x="613" y="440"/>
      <point x="613" y="478" type="qcurve" smooth="yes"/>
      <point x="613" y="516"/>
      <point x="642" y="546"/>
      <point x="676" y="546" type="qcurve" smooth="yes"/>
      <point x="1105" y="546" type="line" smooth="yes"/>
      <point x="1139" y="546"/>
      <point x="1168" y="516"/>
      <point x="1168" y="478" type="qcurve" smooth="yes"/>
      <point x="1168" y="440"/>
      <point x="1139" y="410"/>
      <point x="1105" y="410" type="qcurve" smooth="yes"/>
      <point x="1073" y="410" type="line"/>
      <point x="1073" y="143" type="line" smooth="yes"/>
      <point x="1073.0" y="118.5" name="inserted"/>
      <point x="1055.0" y="84.0"/>
      <point x="1037" y="74" type="qcurve" smooth="yes"/>
      <point x="954" y="26"/>
      <point x="740" y="-22"/>
      <point x="624" y="-22" type="qcurve" smooth="yes"/>
      <point x="506" y="-22"/>
      <point x="312" y="66"/>
      <point x="243.0" y="146.5" type="qcurve" smooth="yes" name="inserted"/>
      <point x="174" y="227"/>
      <point x="98" y="454"/>
      <point x="98" y="593" type="qcurve" smooth="yes"/>
      <point x="98" y="732"/>
      <point x="177" y="959"/>
      <point x="247.0" y="1040.0" type="qcurve" smooth="yes" name="inserted"/>
      <point x="317" y="1121"/>
      <point x="510" y="1209"/>
      <point x="624" y="1209" type="qcurve" smooth="yes"/>
      <point x="721" y="1209"/>
      <point x="864" y="1149"/>
      <point x="912" y="1095" type="qcurve"/>
      <point x="912" y="1144" type="line" smooth="yes"/>
      <point x="912" y="1179"/>
      <point x="945" y="1209"/>
      <point x="987" y="1209" type="qcurve" smooth="yes"/>
      <point x="1029" y="1209"/>
      <point x="1062" y="1179"/>
      <point x="1062" y="1144" type="qcurve" smooth="yes"/>
      <point x="1062" y="854" type="line" smooth="yes"/>
      <point x="1062" y="819"/>
      <point x="1029" y="789"/>
      <point x="987" y="789" type="qcurve" smooth="yes"/>
      <point x="945" y="789"/>
      <point x="912" y="819"/>
      <point x="912" y="854" type="qcurve" smooth="yes"/>
      <point x="912" y="899"/>
      <point x="875" y="975"/>
      <point x="840.0" y="1002.5" type="qcurve" smooth="yes" name="inserted"/>
      <point x="805" y="1030"/>
      <point x="701" y="1061"/>
      <point x="634" y="1061" type="qcurve" smooth="yes"/>
      <point x="551" y="1061"/>
      <point x="412" y="996"/>
      <point x="362.0" y="935.0" type="qcurve" smooth="yes" name="inserted"/>
      <point x="312" y="874"/>
      <point x="256" y="701"/>
      <point x="256" y="593" type="qcurve" smooth="yes"/>
      <point x="256" y="485"/>
      <point x="309" y="312"/>
      <point x="357.0" y="251.5" type="qcurve" smooth="yes" name="inserted"/>
      <point x="405" y="191"/>
      <point x="541" y="126"/>
      <point x="624" y="126" type="qcurve" smooth="yes"/>
      <point x="709" y="126"/>
      <point x="857" y="153"/>
      <point x="923" y="183" type="qcurve"/>
      <point x="923" y="410" type="line"/>
    </contour>
  </outline>
</glyph>
<glyph name="I" format="1">
  <advance width="1228"/>
  <unicode hex="0049"/>
  <outline>
    <contour>
      <point x="539" y="1051" type="line"/>
      <point x="283" y="1051" type="line" smooth="yes"/>
      <point x="249" y="1051"/>
      <point x="220" y="1081"/>
      <point x="220" y="1119" type="qcurve" smooth="yes"/>
      <point x="220" y="1157"/>
      <point x="249" y="1187"/>
      <point x="283" y="1187" type="qcurve" smooth="yes"/>
      <point x="945" y="1187" type="line" smooth="yes"/>
      <point x="979" y="1187"/>
      <point x="1008" y="1157"/>
      <point x="1008" y="1119" type="qcurve" smooth="yes"/>
      <point x="1008" y="1081"/>
      <point x="979" y="1051"/>
      <point x="945" y="1051" type="qcurve" smooth="yes"/>
      <point x="689" y="1051" type="line"/>
      <point x="689" y="136" type="line"/>
      <point x="965" y="136" type="line" smooth="yes"/>
      <point x="999" y="136"/>
      <point x="1028" y="106"/>
      <point x="1028" y="68" type="qcurve" smooth="yes"/>
      <point x="1028" y="30"/>
      <point x="999" y="0"/>
      <point x="965" y="0" type="qcurve" smooth="yes"/>
      <point x="263" y="0" type="line" smooth="yes"/>
      <point x="229" y="0"/>
      <point x="200" y="30"/>
      <point x="200" y="68" type="qcurve" smooth="yes"/>
      <point x="200" y="106"/>
      <point x="229" y="136"/>
      <point x="263" y="136" type="qcurve" smooth="yes"/>
      <point x="539" y="136" type="line"/>
    </contour>
  </outline>
</glyph>
<glyph name="J" format="1">
  <advance width="1228"/>
  <unicode hex="004A"/>
  <outline>
    <contour>
      <point x="403" y="1051" type="line" smooth="yes"/>
      <point x="369" y="1051"/>
      <point x="340" y="1081"/>
      <point x="340" y="1119" type="qcurve" smooth="yes"/>
      <point x="340" y="1157"/>
      <point x="369" y="1187"/>
      <point x="403" y="1187" type="qcurve" smooth="yes"/>
      <point x="1095" y="1187" type="line" smooth="yes"/>
      <point x="1129" y="1187"/>
      <point x="1158" y="1157"/>
      <point x="1158" y="1119" type="qcurve" smooth="yes"/>
      <point x="1158" y="1081"/>
      <point x="1129" y="1051"/>
      <point x="1095" y="1051" type="qcurve" smooth="yes"/>
      <point x="894" y="1051" type="line"/>
      <point x="894" y="333" type="line" smooth="yes"/>
      <point x="894" y="156"/>
      <point x="690" y="-22"/>
      <point x="494" y="-22" type="qcurve" smooth="yes"/>
      <point x="375" y="-22"/>
      <point x="192" y="62"/>
      <point x="131" y="129" type="qcurve" smooth="yes"/>
      <point x="123.0" y="138.5" name="inserted"/>
      <point x="115.0" y="164.0"/>
      <point x="115" y="180" type="qcurve" smooth="yes"/>
      <point x="115" y="465" type="line" smooth="yes"/>
      <point x="115" y="500"/>
      <point x="148" y="530"/>
      <point x="190" y="530" type="qcurve" smooth="yes"/>
      <point x="232" y="530"/>
      <point x="265" y="500"/>
      <point x="265" y="465" type="qcurve" smooth="yes"/>
      <point x="265" y="201" type="line"/>
      <point x="307.0" y="163.5" name="inserted"/>
      <point x="422.0" y="126.0"/>
      <point x="495" y="126" type="qcurve" smooth="yes"/>
      <point x="628" y="126"/>
      <point x="744" y="244"/>
      <point x="744" y="363" type="qcurve" smooth="yes"/>
      <point x="744" y="1051" type="line"/>
    </contour>
  </outline>
</glyph>
<glyph name="M" format="1">
  <advance width="1228"/>
  <unicode hex="004D"/>
  <outline>
    <contour>
      <point x="172" y="1051" type="line"/>
      <point x="123" y="1051" type="line" smooth="yes"/>
      <point x="89" y="1051"/>
      <point x="60" y="1081"/>
      <point x="60" y="1119" type="qcurve" smooth="yes"/>
      <point x="60" y="1157"/>
      <point x="89" y="1187"/>
      <point x="123" y="1187" type="qcurve" smooth="yes"/>
      <point x="334" y="1187" type="line" smooth="yes"/>
      <point x="357.5" y="1187.0" name="inserted"/>
      <point x="386.5" y="1170.5"/>
      <point x="392" y="1154" type="qcurve" smooth="yes"/>
      <point x="614" y="545" type="line"/>
      <point x="835" y="1154" type="line" smooth="yes"/>
      <point x="840.5" y="1170.5" name="inserted"/>
      <point x="870.0" y="1187.0"/>
      <point x="894" y="1187" type="qcurve" smooth="yes"/>
      <point x="1105" y="1187" type="line" smooth="yes"/>
      <point x="1139" y="1187"/>
      <point x="1168" y="1157"/>
      <point x="1168" y="1119" type="qcurve" smooth="yes"/>
      <point x="1168" y="1081"/>
      <point x="1139" y="1051"/>
      <point x="1105" y="1051" type="qcurve" smooth="yes"/>
      <point x="1055" y="1051" type="line"/>
      <point x="1081" y="136" type="line"/>
      <point x="1135" y="136" type="line" smooth="yes"/>
      <point x="1169" y="136"/>
      <point x="1198" y="106"/>
      <point x="1198" y="68" type="qcurve" smooth="yes"/>
      <point x="1198" y="30"/>
      <point x="1169" y="0"/>
      <point x="1135" y="0" type="qcurve" smooth="yes"/>
      <point x="821" y="0" type="line" smooth="yes"/>
      <point x="787" y="0"/>
      <point x="758" y="30"/>
      <point x="758" y="68" type="qcurve" smooth="yes"/>
      <point x="758" y="106"/>
      <point x="787" y="136"/>
      <point x="821" y="136" type="qcurve" smooth="yes"/>
      <point x="932" y="136" type="line"/>
      <point x="910" y="955" type="line"/>
      <point x="706" y="385" type="line" smooth="yes"/>
      <point x="693" y="350"/>
      <point x="649" y="320"/>
      <point x="614" y="320" type="qcurve" smooth="yes"/>
      <point x="579" y="320"/>
      <point x="535" y="350"/>
      <point x="522" y="385" type="qcurve" smooth="yes"/>
      <point x="317" y="955" type="line"/>
      <point x="296" y="136" type="line"/>
      <point x="407" y="136" type="line" smooth="yes"/>
      <point x="441" y="136"/>
      <point x="470" y="106"/>
      <point x="470" y="68" type="qcurve" smooth="yes"/>
      <point x="470" y="30"/>
      <point x="441" y="0"/>
      <point x="407" y="0" type="qcurve" smooth="yes"/>
      <point x="93" y="0" type="line" smooth="yes"/>
      <point x="59" y="0"/>
      <point x="30" y="30"/>
      <point x="30" y="68" type="qcurve" smooth="yes"/>
      <point x="30" y="106"/>
      <point x="59" y="136"/>
      <point x="93" y="136" type="qcurve" smooth="yes"/>
      <point x="147" y="136" type="line"/>
    </contour>
  </outline>
</glyph>
<glyph name="N" format="1">
  <advance width="1228"/>
  <unicode hex="004E"/>
  <outline>
    <contour>
      <point x="210" y="1051" type="line"/>
      <point x="133" y="1051" type="line" smooth="yes"/>
      <point x="99" y="1051"/>
      <point x="70" y="1081"/>
      <point x="70" y="1119" type="qcurve" smooth="yes"/>
      <point x="70" y="1157"/>
      <point x="99" y="1187"/>
      <point x="133" y="1187" type="qcurve" smooth="yes"/>
      <point x="357" y="1187" type="line" smooth="yes"/>
      <point x="377.5" y="1187.0" name="inserted"/>
      <point x="406.0" y="1173.0"/>
      <point x="414" y="1159" type="qcurve" smooth="yes"/>
      <point x="888" y="311" type="line"/>
      <point x="888" y="1051" type="line"/>
      <point x="771" y="1051" type="line" smooth="yes"/>
      <point x="737" y="1051"/>
      <point x="708" y="1081"/>
      <point x="708" y="1119" type="qcurve" smooth="yes"/>
      <point x="708" y="1157"/>
      <point x="737" y="1187"/>
      <point x="771" y="1187" type="qcurve" smooth="yes"/>
      <point x="1095" y="1187" type="line" smooth="yes"/>
      <point x="1129" y="1187"/>
      <point x="1158" y="1157"/>
      <point x="1158" y="1119" type="qcurve" smooth="yes"/>
      <point x="1158" y="1081"/>
      <point x="1129" y="1051"/>
      <point x="1095" y="1051" type="qcurve" smooth="yes"/>
      <point x="1038" y="1051" type="line"/>
      <point x="1038" y="37" type="line" smooth="yes"/>
      <point x="1038" y="11"/>
      <point x="1002" y="-22"/>
      <point x="963" y="-22" type="qcurve" smooth="yes"/>
      <point x="934" y="-22"/>
      <point x="894" y="7"/>
      <point x="879" y="33" type="qcurve" smooth="yes"/>
      <point x="360" y="960" type="line"/>
      <point x="360" y="136" type="line"/>
      <point x="497" y="136" type="line" smooth="yes"/>
      <point x="531" y="136"/>
      <point x="560" y="106"/>
      <point x="560" y="68" type="qcurve" smooth="yes"/>
      <point x="560" y="30"/>
      <point x="531" y="0"/>
      <point x="497" y="0" type="qcurve" smooth="yes"/>
      <point x="143" y="0" type="line" smooth="yes"/>
      <point x="109" y="0"/>
      <point x="80" y="30"/>
      <point x="80" y="68" type="qcurve" smooth="yes"/>
      <point x="80" y="106"/>
      <point x="109" y="136"/>
      <point x="143" y="136" type="qcurve" smooth="yes"/>
      <point x="210" y="136" type="line"/>
    </contour>
  </outline>
</glyph>
<glyph name="O" format="1">
  <advance width="1228"/>
  <unicode hex="004F"/>
  <outline>
    <contour>
      <point x="88" y="593" type="qcurve" smooth="yes"/>
      <point x="88" y="732"/>
      <point x="164" y="959"/>
      <point x="233.0" y="1040.0" type="qcurve" smooth="yes" name="inserted"/>
      <point x="302" y="1121"/>
      <point x="496" y="1209"/>
      <point x="614" y="1209" type="qcurve" smooth="yes"/>
      <point x="732" y="1209"/>
      <point x="926" y="1121"/>
      <point x="995.0" y="1040.0" type="qcurve" smooth="yes" name="inserted"/>
      <point x="1064" y="959"/>
      <point x="1140" y="732"/>
      <point x="1140" y="593" type="qcurve" smooth="yes"/>
      <point x="1140" y="454"/>
      <point x="1064" y="227"/>
      <point x="995.0" y="146.5" type="qcurve" smooth="yes" name="inserted"/>
      <point x="926" y="66"/>
      <point x="732" y="-22"/>
      <point x="614" y="-22" type="qcurve" smooth="yes"/>
      <point x="496" y="-22"/>
      <point x="302" y="66"/>
      <point x="233.0" y="146.5" type="qcurve" smooth="yes" name="inserted"/>
      <point x="164" y="227"/>
      <point x="88" y="454"/>
    </contour>
    <contour>
      <point x="246" y="593" type="qcurve" smooth="yes"/>
      <point x="246" y="485"/>
      <point x="299" y="312"/>
      <point x="347.0" y="251.5" type="qcurve" smooth="yes" name="inserted"/>
      <point x="395" y="191"/>
      <point x="531" y="126"/>
      <point x="614" y="126" type="qcurve" smooth="yes"/>
      <point x="697" y="126"/>
      <point x="833" y="191"/>
      <point x="881.0" y="251.5" type="qcurve" smooth="yes" name="inserted"/>
      <point x="929" y="312"/>
      <point x="982" y="485"/>
      <point x="982" y="593" type="qcurve" smooth="yes"/>
      <point x="982" y="701"/>
      <point x="929" y="874"/>
      <point x="881.0" y="935.0" type="qcurve" smooth="yes" name="inserted"/>
      <point x="833" y="996"/>
      <point x="697" y="1061"/>
      <point x="614" y="1061" type="qcurve" smooth="yes"/>
      <point x="531" y="1061"/>
      <point x="395" y="996"/>
      <point x="347.0" y="935.0" type="qcurve" smooth="yes" name="inserted"/>
      <point x="299" y="874"/>
      <point x="246" y="701"/>
    </contour>
  </outline>
</glyph>
<glyph name="P" format="1">
  <advance width="1228"/>
  <unicode hex="0050"/>
  <outline>
    <contour>
      <point x="305" y="1051" type="line"/>
      <point x="143" y="1051" type="line" smooth="yes"/>
      <point x="109" y="1051"/>
      <point x="80" y="1081"/>
      <point x="80" y="1119" type="qcurve" smooth="yes"/>
      <point x="80" y="1157"/>
      <point x="109" y="1187"/>
      <point x="143" y="1187" type="qcurve" smooth="yes"/>
      <point x="690" y="1187" type="line" smooth="yes"/>
      <point x="791" y="1187"/>
      <point x="948" y="1132"/>
      <point x="1002.0" y="1082.0" type="qcurve" smooth="yes" name="inserted"/>
      <point x="1056" y="1032"/>
      <point x="1112" y="893"/>
      <point x="1112" y="808" type="qcurve" smooth="yes"/>
      <point x="1112" y="724"/>
      <point x="1056" y="585"/>
      <point x="1002.0" y="536.0" type="qcurve" smooth="yes" name="inserted"/>
      <point x="948" y="487"/>
      <point x="791" y="433"/>
      <point x="690" y="433" type="qcurve" smooth="yes"/>
      <point x="455" y="433" type="line"/>
      <point x="455" y="136" type="line"/>
      <point x="695" y="136" type="line" smooth="yes"/>
      <point x="729" y="136"/>
      <point x="758" y="106"/>
      <point x="758" y="68" type="qcurve" smooth="yes"/>
      <point x="758" y="30"/>
      <point x="729" y="0"/>
      <point x="695" y="0" type="qcurve" smooth="yes"/>
      <point x="143" y="0" type="line" smooth="yes"/>
      <point x="109" y="0"/>
      <point x="80" y="30"/>
      <point x="80" y="68" type="qcurve" smooth="yes"/>
      <point x="80" y="106"/>
      <point x="109" y="136"/>
      <point x="143" y="136" type="qcurve" smooth="yes"/>
      <point x="305" y="136" type="line"/>
    </contour>
    <contour>
      <point x="669" y="569" type="line" smooth="yes"/>
      <point x="810" y="569"/>
      <point x="954" y="696"/>
      <point x="954" y="808" type="qcurve" smooth="yes"/>
      <point x="954" y="922"/>
      <point x="810" y="1051"/>
      <point x="669" y="1051" type="qcurve" smooth="yes"/>
      <point x="455" y="1051" type="line"/>
      <point x="455" y="569" type="line"/>
    </contour>
  </outline>
</glyph>
<glyph name="S" format="1">
  <advance width="1228"/>
  <unicode hex="0053"/>
  <outline>
    <contour>
      <point x="308" y="43" type="line" smooth="yes"/>
      <point x="308" y="8"/>
      <point x="275" y="-22"/>
      <point x="233" y="-22" type="qcurve" smooth="yes"/>
      <point x="191" y="-22"/>
      <point x="158" y="8"/>
      <point x="158" y="43" type="qcurve" smooth="yes"/>
      <point x="158" y="343" type="line" smooth="yes"/>
      <point x="158" y="378"/>
      <point x="191" y="408"/>
      <point x="233" y="408" type="qcurve" smooth="yes"/>
      <point x="254.5" y="408.0" name="inserted"/>
      <point x="283.5" y="387.0"/>
      <point x="291" y="366" type="qcurve" smooth="yes"/>
      <point x="332" y="250"/>
      <point x="510" y="126"/>
      <point x="642" y="126" type="qcurve" smooth="yes"/>
      <point x="708" y="126"/>
      <point x="807" y="156"/>
      <point x="840.0" y="182.5" type="qcurve" smooth="yes" name="inserted"/>
      <point x="873" y="209"/>
      <point x="907" y="283"/>
      <point x="907" y="327" type="qcurve" smooth="yes"/>
      <point x="907" y="393"/>
      <point x="840" y="471"/>
      <point x="784" y="495" type="qcurve" smooth="yes"/>
      <point x="738" y="514"/>
      <point x="626" y="539"/>
      <point x="566.5" y="551.0" type="qcurve" smooth="yes" name="inserted"/>
      <point x="507" y="563"/>
      <point x="389" y="591"/>
      <point x="338" y="614" type="qcurve" smooth="yes"/>
      <point x="301" y="630"/>
      <point x="239" y="676"/>
      <point x="216.5" y="707.0" type="qcurve" smooth="yes" name="inserted"/>
      <point x="194" y="738"/>
      <point x="169" y="820"/>
      <point x="169" y="873" type="qcurve" smooth="yes"/>
      <point x="169" y="951"/>
      <point x="227" y="1076"/>
      <point x="278.5" y="1119.5" type="qcurve" smooth="yes" name="inserted"/>
      <point x="330" y="1163"/>
      <point x="473" y="1209"/>
      <point x="558" y="1209" type="qcurve" smooth="yes"/>
      <point x="649" y="1209"/>
      <point x="811" y="1140"/>
      <point x="868" y="1083" type="qcurve"/>
      <point x="868" y="1144" type="line" smooth="yes"/>
      <point x="868" y="1179"/>
      <point x="901" y="1209"/>
      <point x="943" y="1209" type="qcurve" smooth="yes"/>
      <point x="985" y="1209"/>
      <point x="1018" y="1179"/>
      <point x="1018" y="1144" type="qcurve" smooth="yes"/>
      <point x="1018" y="914" type="line" smooth="yes"/>
      <point x="1018" y="879"/>
      <point x="985" y="849"/>
      <point x="943" y="849" type="qcurve" smooth="yes"/>
      <point x="924.0" y="849.0" name="inserted"/>
      <point x="898.0" y="862.0"/>
      <point x="891" y="875" type="qcurve" smooth="yes"/>
      <point x="842" y="968"/>
      <point x="668" y="1061"/>
      <point x="558" y="1061" type="qcurve" smooth="yes"/>
      <point x="446" y="1061"/>
      <point x="327" y="957"/>
      <point x="327" y="873" type="qcurve" smooth="yes"/>
      <point x="327" y="830"/>
      <point x="371" y="775"/>
      <point x="408" y="756" type="qcurve" smooth="yes"/>
      <point x="448" y="736"/>
      <point x="555" y="712"/>
      <point x="614.0" y="700.5" type="qcurve" smooth="yes" name="inserted"/>
      <point x="673" y="689"/>
      <point x="796" y="662"/>
      <point x="852" y="640" type="qcurve" smooth="yes"/>
      <point x="897" y="622"/>
      <point x="975" y="570"/>
      <point x="1003.5" y="532.5" type="qcurve" smooth="yes" name="inserted"/>
      <point x="1032" y="495"/>
      <point x="1065" y="394"/>
      <point x="1065" y="327" type="qcurve" smooth="yes"/>
      <point x="1065" y="250"/>
      <point x="1010" y="121"/>
      <point x="956.5" y="75.0" type="qcurve" smooth="yes" name="inserted"/>
      <point x="903" y="29"/>
      <point x="745" y="-22"/>
      <point x="642" y="-22" type="qcurve" smooth="yes"/>
      <point x="542" y="-22"/>
      <point x="371" y="50"/>
      <point x="308" y="121" type="qcurve"/>
    </contour>
  </outline>
</glyph>
<glyph name="U" format="1">
  <advance width="1228"/>
  <unicode hex="0055"/>
  <outline>
    <contour>
      <point x="133" y="1051" type="line" smooth="yes"/>
      <point x="99" y="1051"/>
      <point x="70" y="1081"/>
      <point x="70" y="1119" type="qcurve" smooth="yes"/>
      <point x="70" y="1157"/>
      <point x="99" y="1187"/>
      <point x="133" y="1187" type="qcurve" smooth="yes"/>
      <point x="457" y="1187" type="line" smooth="yes"/>
      <point x="491" y="1187"/>
      <point x="520" y="1157"/>
      <point x="520" y="1119" type="qcurve" smooth="yes"/>
      <point x="520" y="1081"/>
      <point x="491" y="1051"/>
      <point x="457" y="1051" type="qcurve" smooth="yes"/>
      <point x="345" y="1051" type="line"/>
      <point x="345" y="413" type="line" smooth="yes"/>
      <point x="345" y="335"/>
      <point x="378" y="226"/>
      <point x="411.5" y="191.5" type="qcurve" smooth="yes" name="inserted"/>
      <point x="445" y="157"/>
      <point x="546" y="126"/>
      <point x="614" y="126" type="qcurve" smooth="yes"/>
      <point x="682" y="126"/>
      <point x="783" y="157"/>
      <point x="816.5" y="191.5" type="qcurve" smooth="yes" name="inserted"/>
      <point x="850" y="226"/>
      <point x="883" y="335"/>
      <point x="883" y="413" type="qcurve" smooth="yes"/>
      <point x="883" y="1051" type="line"/>
      <point x="771" y="1051" type="line" smooth="yes"/>
      <point x="737" y="1051"/>
      <point x="708" y="1081"/>
      <point x="708" y="1119" type="qcurve" smooth="yes"/>
      <point x="708" y="1157"/>
      <point x="737" y="1187"/>
      <point x="771" y="1187" type="qcurve" smooth="yes"/>
      <point x="1095" y="1187" type="line" smooth="yes"/>
      <point x="1129" y="1187"/>
      <point x="1158" y="1157"/>
      <point x="1158" y="1119" type="qcurve" smooth="yes"/>
      <point x="1158" y="1081"/>
      <point x="1129" y="1051"/>
      <point x="1095" y="1051" type="qcurve" smooth="yes"/>
      <point x="1033" y="1051" type="line"/>
      <point x="1033" y="393" type="line" smooth="yes"/>
      <point x="1033" y="286"/>
      <point x="975" y="130"/>
      <point x="921.0" y="79.0" type="qcurve" smooth="yes" name="inserted"/>
      <point x="867" y="28"/>
      <point x="711" y="-22"/>
      <point x="614" y="-22" type="qcurve" smooth="yes"/>
      <point x="516" y="-22"/>
      <point x="361" y="28"/>
      <point x="307.0" y="79.0" type="qcurve" smooth="yes" name="inserted"/>
      <point x="253" y="130"/>
      <point x="195" y="286"/>
      <point x="195" y="393" type="qcurve" smooth="yes"/>
      <point x="195" y="1051" type="line"/>
    </contour>
  </outline>
</glyph>
<glyph name="X" format="1">
  <advance width="1228"/>
  <unicode hex="0058"/>
  <outline>
    <contour>
      <point x="524" y="619" type="line"/>
      <point x="212" y="1051" type="line"/>
      <point x="143" y="1051" type="line" smooth="yes"/>
      <point x="109" y="1051"/>
      <point x="80" y="1081"/>
      <point x="80" y="1119" type="qcurve" smooth="yes"/>
      <point x="80" y="1157"/>
      <point x="109" y="1187"/>
      <point x="143" y="1187" type="qcurve" smooth="yes"/>
      <point x="487" y="1187" type="line" smooth="yes"/>
      <point x="521" y="1187"/>
      <point x="550" y="1157"/>
      <point x="550" y="1119" type="qcurve" smooth="yes"/>
      <point x="550" y="1081"/>
      <point x="521" y="1051"/>
      <point x="487" y="1051" type="qcurve" smooth="yes"/>
      <point x="398" y="1051" type="line"/>
      <point x="619" y="735" type="line"/>
      <point x="841" y="1051" type="line"/>
      <point x="781" y="1051" type="line" smooth="yes"/>
      <point x="747" y="1051"/>
      <point x="718" y="1081"/>
      <point x="718" y="1119" type="qcurve" smooth="yes"/>
      <point x="718" y="1157"/>
      <point x="747" y="1187"/>
      <point x="781" y="1187" type="qcurve" smooth="yes"/>
      <point x="1085" y="1187" type="line" smooth="yes"/>
      <point x="1119" y="1187"/>
      <point x="1148" y="1157"/>
      <point x="1148" y="1119" type="qcurve" smooth="yes"/>
      <point x="1148" y="1081"/>
      <point x="1119" y="1051"/>
      <point x="1085" y="1051" type="qcurve" smooth="yes"/>
      <point x="1020" y="1051" type="line"/>
      <point x="711" y="617" type="line"/>
      <point x="1057" y="136" type="line"/>
      <point x="1115" y="136" type="line" smooth="yes"/>
      <point x="1149" y="136"/>
      <point x="1178" y="106"/>
      <point x="1178" y="68" type="qcurve" smooth="yes"/>
      <point x="1178" y="30"/>
      <point x="1149" y="0"/>
      <point x="1115" y="0" type="qcurve" smooth="yes"/>
      <point x="761" y="0" type="line" smooth="yes"/>
      <point x="727" y="0"/>
      <point x="698" y="30"/>
      <point x="698" y="68" type="qcurve" smooth="yes"/>
      <point x="698" y="106"/>
      <point x="727" y="136"/>
      <point x="761" y="136" type="qcurve" smooth="yes"/>
      <point x="870" y="136" type="line"/>
      <point x="615" y="501" type="line"/>
      <point x="354" y="136" type="line"/>
      <point x="437" y="136" type="line" smooth="yes"/>
      <point x="471" y="136"/>
      <point x="500" y="106"/>
      <point x="500" y="68" type="qcurve" smooth="yes"/>
      <point x="500" y="30"/>
      <point x="471" y="0"/>
      <point x="437" y="0" type="qcurve" smooth="yes"/>
      <point x="113" y="0" type="line" smooth="yes"/>
      <point x="79" y="0"/>
      <point x="50" y="30"/>
      <point x="50" y="68" type="qcurve" smooth="yes"/>
      <point x="50" y="106"/>
      <point x="79" y="136"/>
      <point x="113" y="136" type="qcurve" smooth="yes"/>
      <point x="175" y="136" type="line"/>
    </contour>
  </outline>
</glyph>
<glyph name="bracketright" format="1">
  <advance width="1228"/>
  <unicode hex="005D"/>
  <outline>
    <contour>
      <point x="748" y="1176" type="line"/>
      <point x="421" y="1176" type="line" smooth="yes"/>
      <point x="387" y="1176"/>
      <point x="358" y="1206"/>
      <point x="358" y="1244" type="qcurve" smooth="yes"/>
      <point x="358" y="1282"/>
      <point x="387" y="1312"/>
      <point x="421" y="1312" type="qcurve" smooth="yes"/>
      <point x="835" y="1312" type="line" smooth="yes"/>
      <point x="869" y="1312"/>
      <point x="898" y="1282"/>
      <point x="898" y="1244" type="qcurve" smooth="yes"/>
      <point x="898" y="-325" type="line" smooth="yes"/>
      <point x="898" y="-363"/>
      <point x="869" y="-393"/>
      <point x="835" y="-393" type="qcurve" smooth="yes"/>
      <point x="421" y="-393" type="line" smooth="yes"/>
      <point x="387" y="-393"/>
      <point x="358" y="-363"/>
      <point x="358" y="-325" type="qcurve" smooth="yes"/>
      <point x="358" y="-287"/>
      <point x="387" y="-257"/>
      <point x="421" y="-257" type="qcurve" smooth="yes"/>
      <point x="748" y="-257" type="line"/>
    </contour>
  </outline>
</glyph>
<glyph name="grave" format="1">
  <advance width="1228"/>
  <unicode hex="0060"/>
  <outline>
    <contour>
      <point x="807" y="1133" type="line" smooth="yes"/>
      <point x="824" y="1123"/>
      <point x="833" y="1088"/>
      <point x="826" y="1071" type="qcurve" smooth="yes"/>
      <point x="819" y="1054"/>
      <point x="790" y="1033"/>
      <point x="771" y="1039" type="qcurve" smooth="yes"/>
      <point x="290" y="1202" type="line" smooth="yes"/>
      <point x="280" y="1205"/>
      <point x="266" y="1220"/>
      <point x="265.0" y="1232.5" type="qcurve" smooth="yes" name="inserted"/>
      <point x="264" y="1245"/>
      <point x="275" y="1282"/>
      <point x="290" y="1309" type="qcurve" smooth="yes"/>
      <point x="306" y="1337"/>
      <point x="332" y="1366"/>
      <point x="343.5" y="1371.0" type="qcurve" smooth="yes" name="inserted"/>
      <point x="355" y="1376"/>
      <point x="378" y="1370"/>
      <point x="391" y="1363" type="qcurve" smooth="yes"/>
    </contour>
  </outline>
</glyph>
<glyph name="b" format="1">
  <advance width="1228"/>
  <unicode hex="0062"/>
  <outline>
    <contour>
      <point x="202" y="1176" type="line"/>
      <point x="100" y="1176" type="line" smooth="yes"/>
      <point x="66" y="1176"/>
      <point x="37" y="1206"/>
      <point x="37" y="1244" type="qcurve" smooth="yes"/>
      <point x="37" y="1282"/>
      <point x="66" y="1312"/>
      <point x="100" y="1312" type="qcurve" smooth="yes"/>
      <point x="289" y="1312" type="line" smooth="yes"/>
      <point x="323" y="1312"/>
      <point x="352" y="1282"/>
      <point x="352" y="1244" type="qcurve" smooth="yes"/>
      <point x="352" y="781" type="line"/>
      <point x="412" y="858"/>
      <point x="569" y="946"/>
      <point x="669" y="946" type="qcurve" smooth="yes"/>
      <point x="762" y="946"/>
      <point x="920" y="880"/>
      <point x="977.5" y="817.5" type="qcurve" smooth="yes" name="inserted"/>
      <point x="1035" y="755"/>
      <point x="1101" y="575"/>
      <point x="1101" y="462" type="qcurve" smooth="yes"/>
      <point x="1101" y="349"/>
      <point x="1035" y="169"/>
      <point x="977.5" y="106.5" type="qcurve" smooth="yes" name="inserted"/>
      <point x="920" y="44"/>
      <point x="762" y="-22"/>
      <point x="669" y="-22" type="qcurve" smooth="yes"/>
      <point x="569" y="-22"/>
      <point x="404" y="67"/>
      <point x="342" y="148" type="qcurve"/>
      <point x="342" y="68" type="line" smooth="yes"/>
      <point x="342" y="30"/>
      <point x="313" y="0"/>
      <point x="279" y="0" type="qcurve" smooth="yes"/>
      <point x="120" y="0" type="line" smooth="yes"/>
      <point x="86" y="0"/>
      <point x="57" y="30"/>
      <point x="57" y="68" type="qcurve" smooth="yes"/>
      <point x="57" y="106"/>
      <point x="86" y="136"/>
      <point x="120" y="136" type="qcurve" smooth="yes"/>
      <point x="202" y="136" type="line"/>
    </contour>
    <contour>
      <point x="352" y="462" type="qcurve" smooth="yes"/>
      <point x="352" y="382"/>
      <point x="398" y="258"/>
      <point x="439.0" y="214.5" type="qcurve" smooth="yes" name="inserted"/>
      <point x="480" y="171"/>
      <point x="593" y="126"/>
      <point x="659" y="126" type="qcurve" smooth="yes"/>
      <point x="727" y="126"/>
      <point x="833" y="176"/>
      <point x="869.0" y="220.5" type="qcurve" smooth="yes" name="inserted"/>
      <point x="905" y="265"/>
      <point x="943" y="388"/>
      <point x="943" y="462" type="qcurve" smooth="yes"/>
      <point x="943" y="535"/>
      <point x="905" y="659"/>
      <point x="869.0" y="703.5" type="qcurve" smooth="yes" name="inserted"/>
      <point x="833" y="748"/>
      <point x="727" y="798"/>
      <point x="659" y="798" type="qcurve" smooth="yes"/>
      <point x="593" y="798"/>
      <point x="480" y="753"/>
      <point x="439.0" y="709.5" type="qcurve" smooth="yes" name="inserted"/>
      <point x="398" y="666"/>
      <point x="352" y="541"/>
    </contour>
  </outline>
</glyph>
<glyph name="c" format="1">
  <advance width="1228"/>
  <unicode hex="0063"/>
  <outline>
    <contour>
      <point x="899" y="591" type="qcurve" smooth="yes"/>
      <point x="899" y="636"/>
      <point x="863" y="712"/>
      <point x="827.5" y="739.5" type="qcurve" smooth="yes" name="inserted"/>
      <point x="792" y="767"/>
      <point x="688" y="798"/>
      <point x="619" y="798" type="qcurve" smooth="yes"/>
      <point x="546" y="798"/>
      <point x="423" y="748"/>
      <point x="379.0" y="703.0" type="qcurve" smooth="yes" name="inserted"/>
      <point x="335" y="658"/>
      <point x="285" y="535"/>
      <point x="285" y="462" type="qcurve" smooth="yes"/>
      <point x="285" y="389"/>
      <point x="331" y="266"/>
      <point x="373.5" y="221.0" type="qcurve" smooth="yes" name="inserted"/>
      <point x="416" y="176"/>
      <point x="536" y="126"/>
      <point x="609" y="126" type="qcurve" smooth="yes"/>
      <point x="701" y="126"/>
      <point x="873" y="182"/>
      <point x="945" y="237" type="qcurve" smooth="yes"/>
      <point x="971" y="257"/>
      <point x="1017" y="247"/>
      <point x="1038" y="212" type="qcurve" smooth="yes"/>
      <point x="1055" y="185"/>
      <point x="1050" y="127"/>
      <point x="1021" y="106" type="qcurve" smooth="yes"/>
      <point x="940" y="46"/>
      <point x="724" y="-22"/>
      <point x="609" y="-22" type="qcurve" smooth="yes"/>
      <point x="499" y="-22"/>
      <point x="321" y="51"/>
      <point x="258.0" y="116.0" type="qcurve" smooth="yes" name="inserted"/>
      <point x="195" y="181"/>
      <point x="127" y="358"/>
      <point x="127" y="462" type="qcurve" smooth="yes"/>
      <point x="127" y="566"/>
      <point x="197" y="743"/>
      <point x="260.5" y="808.0" type="qcurve" smooth="yes" name="inserted"/>
      <point x="324" y="873"/>
      <point x="501" y="946"/>
      <point x="609" y="946" type="qcurve" smooth="yes"/>
      <point x="700" y="946"/>
      <point x="848" y="881"/>
      <point x="899" y="821" type="qcurve"/>
      <point x="899" y="881" type="line" smooth="yes"/>
      <point x="899" y="916"/>
      <point x="932" y="946"/>
      <point x="974" y="946" type="qcurve" smooth="yes"/>
      <point x="1016" y="946"/>
      <point x="1049" y="916"/>
      <point x="1049" y="881" type="qcurve" smooth="yes"/>
      <point x="1049" y="591" type="line" smooth="yes"/>
      <point x="1049" y="556"/>
      <point x="1016" y="526"/>
      <point x="974" y="526" type="qcurve" smooth="yes"/>
      <point x="932" y="526"/>
      <point x="899" y="556"/>
    </contour>
  </outline>
</glyph>
<glyph name="e" format="1">
  <advance width="1228"/>
  <unicode hex="0065"/>
  <outline>
    <contour>
      <point x="304" y="425" type="line"/>
      <point x="312" y="274"/>
      <point x="463" y="123"/>
      <point x="603" y="123" type="qcurve" smooth="yes"/>
      <point x="704" y="123"/>
      <point x="894" y="169"/>
      <point x="963" y="209" type="qcurve" smooth="yes"/>
      <point x="995" y="227"/>
      <point x="1038" y="197"/>
      <point x="1051" y="165" type="qcurve" smooth="yes"/>
      <point x="1065" y="133"/>
      <point x="1049" y="82"/>
      <point x="1016" y="65" type="qcurve" smooth="yes"/>
      <point x="977" y="46"/>
      <point x="882" y="14"/>
      <point x="828.5" y="2.5" type="qcurve" smooth="yes" name="inserted"/>
      <point x="775" y="-9"/>
      <point x="661" y="-22"/>
      <point x="603" y="-22" type="qcurve" smooth="yes"/>
      <point x="493" y="-22"/>
      <point x="323" y="45"/>
      <point x="265.0" y="107.5" type="qcurve" smooth="yes" name="inserted"/>
      <point x="207" y="170"/>
      <point x="146" y="349"/>
      <point x="146" y="462" type="qcurve" smooth="yes"/>
      <point x="146" y="571"/>
      <point x="217" y="750"/>
      <point x="280.0" y="813.5" type="qcurve" smooth="yes" name="inserted"/>
      <point x="343" y="877"/>
      <point x="518" y="946"/>
      <point x="623" y="946" type="qcurve" smooth="yes"/>
      <point x="734" y="946"/>
      <point x="904" y="877"/>
      <point x="962.5" y="816.0" type="qcurve" smooth="yes" name="inserted"/>
      <point x="1021" y="755"/>
      <point x="1085" y="587"/>
      <point x="1091" y="487" type="qcurve"/>
      <point x="1091" y="453"/>
      <point x="1062" y="425"/>
      <point x="1028" y="425" type="qcurve" smooth="yes"/>
    </contour>
    <contour>
      <point x="623" y="801" type="qcurve" smooth="yes"/>
      <point x="498" y="801"/>
      <point x="339" y="676"/>
      <point x="314" y="565" type="qcurve"/>
      <point x="925" y="565" type="line"/>
      <point x="904" y="678"/>
      <point x="756" y="801"/>
    </contour>
  </outline>
</glyph>
<glyph name="i" format="1">
  <advance width="1228"/>
  <unicode hex="0069"/>
  <outline>
    <contour>
      <point x="563" y="788" type="line"/>
      <point x="310" y="788" type="line" smooth="yes"/>
      <point x="276" y="788"/>
      <point x="247" y="818"/>
      <point x="247" y="856" type="qcurve" smooth="yes"/>
      <point x="247" y="894"/>
      <point x="276" y="924"/>
      <point x="310" y="924" type="qcurve" smooth="yes"/>
      <point x="650" y="924" type="line" smooth="yes"/>
      <point x="684" y="924"/>
      <point x="713" y="894"/>
      <point x="713" y="856" type="qcurve" smooth="yes"/>
      <point x="713" y="136" type="line"/>
      <point x="1034" y="136" type="line" smooth="yes"/>
      <point x="1068" y="136"/>
      <point x="1097" y="106"/>
      <point x="1097" y="68" type="qcurve" smooth="yes"/>
      <point x="1097" y="30"/>
      <point x="1068" y="0"/>
      <point x="1034" y="0" type="qcurve" smooth="yes"/>
      <point x="250" y="0" type="line" smooth="yes"/>
      <point x="216" y="0"/>
      <point x="187" y="30"/>
      <point x="187" y="68" type="qcurve" smooth="yes"/>
      <point x="187" y="106"/>
      <point x="216" y="136"/>
      <point x="250" y="136" type="qcurve" smooth="yes"/>
      <point x="563" y="136" type="line"/>
    </contour>
    <contour>
      <point x="713" y="1168" type="line" smooth="yes"/>
      <point x="713" y="1133"/>
      <point x="675" y="1103"/>
      <point x="618" y="1103" type="qcurve" smooth="yes"/>
      <point x="561" y="1103"/>
      <point x="523" y="1133"/>
      <point x="523" y="1168" type="qcurve" smooth="yes"/>
      <point x="523" y="1298" type="line" smooth="yes"/>
      <point x="523" y="1333"/>
      <point x="561" y="1363"/>
      <point x="618" y="1363" type="qcurve" smooth="yes"/>
      <point x="675" y="1363"/>
      <point x="713" y="1333"/>
      <point x="713" y="1298" type="qcurve" smooth="yes"/>
    </contour>
  </outline>
</glyph>
<glyph name="k" format="1">
  <advance width="1228"/>
  <unicode hex="006B"/>
  <outline>
    <contour>
      <point x="348" y="1312" type="line" smooth="yes"/>
      <point x="382" y="1312"/>
      <point x="411" y="1282"/>
      <point x="411" y="1244" type="qcurve" smooth="yes"/>
      <point x="411" y="452" type="line"/>
      <point x="792" y="788" type="line"/>
      <point x="721" y="788" type="line" smooth="yes"/>
      <point x="687" y="788"/>
      <point x="658" y="818"/>
      <point x="658" y="856" type="qcurve" smooth="yes"/>
      <point x="658" y="894"/>
      <point x="687" y="924"/>
      <point x="721" y="924" type="qcurve" smooth="yes"/>
      <point x="1055" y="924" type="line" smooth="yes"/>
      <point x="1089" y="924"/>
      <point x="1118" y="894"/>
      <point x="1118" y="856" type="qcurve" smooth="yes"/>
      <point x="1118" y="818"/>
      <point x="1089" y="788"/>
      <point x="1055" y="788" type="qcurve" smooth="yes"/>
      <point x="996" y="788" type="line"/>
      <point x="702" y="529" type="line"/>
      <point x="1038" y="136" type="line"/>
      <point x="1096" y="136" type="line" smooth="yes"/>
      <point x="1130" y="136"/>
      <point x="1159" y="106"/>
      <point x="1159" y="68" type="qcurve" smooth="yes"/>
      <point x="1159" y="30"/>
      <point x="1130" y="0"/>
      <point x="1096" y="0" type="qcurve" smooth="yes"/>
      <point x="762" y="0" type="line" smooth="yes"/>
      <point x="728" y="0"/>
      <point x="699" y="30"/>
      <point x="699" y="68" type="qcurve" smooth="yes"/>
      <point x="699" y="106"/>
      <point x="728" y="136"/>
      <point x="762" y="136" type="qcurve" smooth="yes"/>
      <point x="844" y="136" type="line"/>
      <point x="593" y="434" type="line"/>
      <point x="411" y="274" type="line"/>
      <point x="411" y="136" type="line"/>
      <point x="474" y="136" type="line" smooth="yes"/>
      <point x="508" y="136"/>
      <point x="537" y="106"/>
      <point x="537" y="68" type="qcurve" smooth="yes"/>
      <point x="537" y="30"/>
      <point x="508" y="0"/>
      <point x="474" y="0" type="qcurve" smooth="yes"/>
      <point x="150" y="0" type="line" smooth="yes"/>
      <point x="116" y="0"/>
      <point x="87" y="30"/>
      <point x="87" y="68" type="qcurve" smooth="yes"/>
      <point x="87" y="106"/>
      <point x="116" y="136"/>
      <point x="150" y="136" type="qcurve" smooth="yes"/>
      <point x="261" y="136" type="line"/>
      <point x="261" y="1176" type="line"/>
      <point x="130" y="1176" type="line" smooth="yes"/>
      <point x="96" y="1176"/>
      <point x="67" y="1206"/>
      <point x="67" y="1244" type="qcurve" smooth="yes"/>
      <point x="67" y="1282"/>
      <point x="96" y="1312"/>
      <point x="130" y="1312" type="qcurve" smooth="yes"/>
    </contour>
  </outline>
</glyph>
<glyph name="l" format="1">
  <advance width="1228"/>
  <unicode hex="006C"/>
  <outline>
    <contour>
      <point x="553" y="1176" type="line"/>
      <point x="280" y="1176" type="line" smooth="yes"/>
      <point x="246" y="1176"/>
      <point x="217" y="1206"/>
      <point x="217" y="1244" type="qcurve" smooth="yes"/>
      <point x="217" y="1282"/>
      <point x="246" y="1312"/>
      <point x="280" y="1312" type="qcurve" smooth="yes"/>
      <point x="640" y="1312" type="line" smooth="yes"/>
      <point x="674" y="1312"/>
      <point x="703" y="1282"/>
      <point x="703" y="1244" type="qcurve" smooth="yes"/>
      <point x="703" y="136" type="line"/>
      <point x="1024" y="136" type="line" smooth="yes"/>
      <point x="1058" y="136"/>
      <point x="1087" y="106"/>
      <point x="1087" y="68" type="qcurve" smooth="yes"/>
      <point x="1087" y="30"/>
      <point x="1058" y="0"/>
      <point x="1024" y="0" type="qcurve" smooth="yes"/>
      <point x="240" y="0" type="line" smooth="yes"/>
      <point x="206" y="0"/>
      <point x="177" y="30"/>
      <point x="177" y="68" type="qcurve" smooth="yes"/>
      <point x="177" y="106"/>
      <point x="206" y="136"/>
      <point x="240" y="136" type="qcurve" smooth="yes"/>
      <point x="553" y="136" type="line"/>
    </contour>
  </outline>
</glyph>
<glyph name="q" format="1">
  <advance width="1228"/>
  <unicode hex="0071"/>
  <outline>
    <contour>
      <point x="876" y="184" type="line"/>
      <point x="816" y="109"/>
      <point x="659" y="28"/>
      <point x="559" y="28" type="qcurve" smooth="yes"/>
      <point x="466" y="28"/>
      <point x="308" y="91"/>
      <point x="250.5" y="150.0" type="qcurve" smooth="yes" name="inserted"/>
      <point x="193" y="209"/>
      <point x="127" y="379"/>
      <point x="127" y="487" type="qcurve" smooth="yes"/>
      <point x="127" y="595"/>
      <point x="193" y="765"/>
      <point x="250.5" y="824.0" type="qcurve" smooth="yes" name="inserted"/>
      <point x="308" y="883"/>
      <point x="466" y="946"/>
      <point x="559" y="946" type="qcurve" smooth="yes"/>
      <point x="659" y="946"/>
      <point x="824" y="857"/>
      <point x="886" y="776" type="qcurve"/>
      <point x="886" y="856" type="line" smooth="yes"/>
      <point x="886" y="894"/>
      <point x="915" y="924"/>
      <point x="949" y="924" type="qcurve" smooth="yes"/>
      <point x="1108" y="924" type="line" smooth="yes"/>
      <point x="1142" y="924"/>
      <point x="1171" y="894"/>
      <point x="1171" y="856" type="qcurve" smooth="yes"/>
      <point x="1171" y="818"/>
      <point x="1142" y="788"/>
      <point x="1108" y="788" type="qcurve" smooth="yes"/>
      <point x="1026" y="788" type="line"/>
      <point x="1026" y="-257" type="line"/>
      <point x="1138" y="-257" type="line" smooth="yes"/>
      <point x="1172" y="-257"/>
      <point x="1201" y="-287"/>
      <point x="1201" y="-325" type="qcurve" smooth="yes"/>
      <point x="1201" y="-363"/>
      <point x="1172" y="-393"/>
      <point x="1138" y="-393" type="qcurve" smooth="yes"/>
      <point x="654" y="-393" type="line" smooth="yes"/>
      <point x="620" y="-393"/>
      <point x="591" y="-363"/>
      <point x="591" y="-325" type="qcurve" smooth="yes"/>
      <point x="591" y="-287"/>
      <point x="620" y="-257"/>
      <point x="654" y="-257" type="qcurve" smooth="yes"/>
      <point x="876" y="-257" type="line"/>
    </contour>
    <contour>
      <point x="876" y="487" type="qcurve" smooth="yes"/>
      <point x="876" y="561"/>
      <point x="830" y="677"/>
      <point x="789.0" y="716.5" type="qcurve" smooth="yes" name="inserted"/>
      <point x="748" y="756"/>
      <point x="635" y="798"/>
      <point x="569" y="798" type="qcurve" smooth="yes"/>
      <point x="501" y="798"/>
      <point x="395" y="752"/>
      <point x="359.0" y="710.5" type="qcurve" smooth="yes" name="inserted"/>
      <point x="323" y="669"/>
      <point x="285" y="555"/>
      <point x="285" y="487" type="qcurve" smooth="yes"/>
      <point x="285" y="419"/>
      <point x="323" y="305"/>
      <point x="359.0" y="263.5" type="qcurve" smooth="yes" name="inserted"/>
      <point x="395" y="222"/>
      <point x="501" y="176"/>
      <point x="569" y="176" type="qcurve" smooth="yes"/>
      <point x="635" y="176"/>
      <point x="748" y="218"/>
      <point x="789.0" y="257.5" type="qcurve" smooth="yes" name="inserted"/>
      <point x="830" y="297"/>
      <point x="876" y="413"/>
    </contour>
  </outline>
</glyph>
<glyph name="r" format="1">
  <advance width="1228"/>
  <unicode hex="0072"/>
  <outline>
    <contour>
      <point x="367" y="788" type="line"/>
      <point x="240" y="788" type="line" smooth="yes"/>
      <point x="206" y="788"/>
      <point x="177" y="818"/>
      <point x="177" y="856" type="qcurve" smooth="yes"/>
      <point x="177" y="894"/>
      <point x="206" y="924"/>
      <point x="240" y="924" type="qcurve" smooth="yes"/>
      <point x="444" y="924" type="line" smooth="yes"/>
      <point x="478" y="924"/>
      <point x="507" y="894"/>
      <point x="507" y="856" type="qcurve" smooth="yes"/>
      <point x="507" y="654" type="line"/>
      <point x="544" y="721"/>
      <point x="639" y="829"/>
      <point x="693.0" y="867.0" type="qcurve" smooth="yes" name="inserted"/>
      <point x="747" y="905"/>
      <point x="863" y="946"/>
      <point x="920" y="946" type="qcurve" smooth="yes"/>
      <point x="959.0" y="946.0" name="inserted"/>
      <point x="1032.0" y="926.0"/>
      <point x="1066" y="906" type="qcurve" smooth="yes"/>
      <point x="1095" y="889"/>
      <point x="1111" y="839"/>
      <point x="1097" y="802" type="qcurve" smooth="yes"/>
      <point x="1083" y="766"/>
      <point x="1040" y="736"/>
      <point x="1011" y="753" type="qcurve" smooth="yes"/>
      <point x="986.0" y="766.5" name="inserted"/>
      <point x="933.5" y="780.0"/>
      <point x="906" y="780" type="qcurve" smooth="yes"/>
      <point x="861" y="780"/>
      <point x="768" y="747"/>
      <point x="724.5" y="717.5" type="qcurve" smooth="yes" name="inserted"/>
      <point x="681" y="688"/>
      <point x="606" y="605"/>
      <point x="577.5" y="555.0" type="qcurve" smooth="yes" name="inserted"/>
      <point x="549" y="505"/>
      <point x="517" y="391"/>
      <point x="517" y="330" type="qcurve" smooth="yes"/>
      <point x="517" y="136" type="line"/>
      <point x="854" y="136" type="line" smooth="yes"/>
      <point x="888" y="136"/>
      <point x="917" y="106"/>
      <point x="917" y="68" type="qcurve" smooth="yes"/>
      <point x="917" y="30"/>
      <point x="888" y="0"/>
      <point x="854" y="0" type="qcurve" smooth="yes"/>
      <point x="210" y="0" type="line" smooth="yes"/>
      <point x="176" y="0"/>
      <point x="147" y="30"/>
      <point x="147" y="68" type="qcurve" smooth="yes"/>
      <point x="147" y="106"/>
      <point x="176" y="136"/>
      <point x="210" y="136" type="qcurve" smooth="yes"/>
      <point x="367" y="136" type="line"/>
    </contour>
  </outline>
</glyph>
<glyph name="s" format="1">
  <advance width="1228"/>
  <unicode hex="0073"/>
  <outline>
    <contour>
      <point x="329" y="43" type="line" smooth="yes"/>
      <point x="329" y="8"/>
      <point x="296" y="-22"/>
      <point x="254" y="-22" type="qcurve" smooth="yes"/>
      <point x="212" y="-22"/>
      <point x="179" y="8"/>
      <point x="179" y="43" type="qcurve" smooth="yes"/>
      <point x="179" y="283" type="line" smooth="yes"/>
      <point x="179" y="318"/>
      <point x="212" y="348"/>
      <point x="254" y="348" type="qcurve" smooth="yes"/>
      <point x="276" y="348"/>
      <point x="300" y="328"/>
      <point x="308" y="307" type="qcurve" smooth="yes"/>
      <point x="345" y="210"/>
      <point x="513" y="123"/>
      <point x="652" y="123" type="qcurve" smooth="yes"/>
      <point x="772" y="123"/>
      <point x="892" y="208"/>
      <point x="892" y="277" type="qcurve" smooth="yes"/>
      <point x="892" y="313"/>
      <point x="846" y="356"/>
      <point x="807" y="369" type="qcurve" smooth="yes"/>
      <point x="763" y="384"/>
      <point x="647" y="398"/>
      <point x="583.0" y="405.0" type="qcurve" smooth="yes" name="inserted"/>
      <point x="519" y="412"/>
      <point x="392" y="434"/>
      <point x="338" y="455" type="qcurve" smooth="yes"/>
      <point x="304" y="468"/>
      <point x="248" y="506"/>
      <point x="227.5" y="532.0" type="qcurve" smooth="yes" name="inserted"/>
      <point x="207" y="558"/>
      <point x="184" y="626"/>
      <point x="184" y="670" type="qcurve" smooth="yes"/>
      <point x="184" y="737"/>
      <point x="238" y="840"/>
      <point x="285.5" y="875.0" type="qcurve" smooth="yes" name="inserted"/>
      <point x="333" y="910"/>
      <point x="462" y="946"/>
      <point x="538" y="946" type="qcurve" smooth="yes"/>
      <point x="638" y="946"/>
      <point x="797" y="887"/>
      <point x="854" y="836" type="qcurve"/>
      <point x="854" y="881" type="line" smooth="yes"/>
      <point x="854" y="916"/>
      <point x="887" y="946"/>
      <point x="929" y="946" type="qcurve" smooth="yes"/>
      <point x="971" y="946"/>
      <point x="1004" y="916"/>
      <point x="1004" y="881" type="qcurve" smooth="yes"/>
      <point x="1004" y="691" type="line" smooth="yes"/>
      <point x="1004" y="656"/>
      <point x="971" y="626"/>
      <point x="929" y="626" type="qcurve" smooth="yes"/>
      <point x="912.0" y="626.0" name="inserted"/>
      <point x="888.0" y="639.0"/>
      <point x="881" y="652" type="qcurve" smooth="yes"/>
      <point x="858" y="695"/>
      <point x="793" y="753"/>
      <point x="750.5" y="770.0" type="qcurve" smooth="yes" name="inserted"/>
      <point x="708" y="787"/>
      <point x="606" y="801"/>
      <point x="548" y="801" type="qcurve" smooth="yes"/>
      <point x="451" y="801"/>
      <point x="342" y="733"/>
      <point x="342" y="670" type="qcurve" smooth="yes"/>
      <point x="342" y="637"/>
      <point x="385" y="597"/>
      <point x="423" y="585" type="qcurve" smooth="yes"/>
      <point x="465" y="571"/>
      <point x="577" y="558"/>
      <point x="639.0" y="551.5" type="qcurve" smooth="yes" name="inserted"/>
      <point x="701" y="545"/>
      <point x="827" y="526"/>
      <point x="881" y="506" type="qcurve" smooth="yes"/>
      <point x="918" y="492"/>
      <point x="980" y="453"/>
      <point x="1002.5" y="425.5" type="qcurve" smooth="yes" name="inserted"/>
      <point x="1025" y="398"/>
      <point x="1050" y="325"/>
      <point x="1050" y="277" type="qcurve" smooth="yes"/>
      <point x="1050" y="210"/>
      <point x="999" y="100"/>
      <point x="949.5" y="60.5" type="qcurve" smooth="yes" name="inserted"/>
      <point x="900" y="21"/>
      <point x="755" y="-22"/>
      <point x="662" y="-22" type="qcurve" smooth="yes"/>
      <point x="553" y="-22"/>
      <point x="390" y="38"/>
      <point x="329" y="99" type="qcurve"/>
    </contour>
  </outline>
</glyph>
<glyph name="t" format="1">
  <advance width="1228"/>
  <unicode hex="0074"/>
  <outline>
    <contour>
      <point x="383" y="844" type="line"/>
      <point x="383" y="1144" type="line" smooth="yes"/>
      <point x="383" y="1179"/>
      <point x="416" y="1209"/>
      <point x="458" y="1209" type="qcurve" smooth="yes"/>
      <point x="500" y="1209"/>
      <point x="533" y="1179"/>
      <point x="533" y="1144" type="qcurve" smooth="yes"/>
      <point x="533" y="844" type="line"/>
      <point x="944" y="844" type="line" smooth="yes"/>
      <point x="978" y="844"/>
      <point x="1007" y="814"/>
      <point x="1007" y="776" type="qcurve" smooth="yes"/>
      <point x="1007" y="738"/>
      <point x="978" y="708"/>
      <point x="944" y="708" type="qcurve" smooth="yes"/>
      <point x="533" y="708" type="line"/>
      <point x="533" y="344" type="line" smooth="yes"/>
      <point x="533" y="289"/>
      <point x="551" y="206"/>
      <point x="571.5" y="178.5" type="qcurve" smooth="yes" name="inserted"/>
      <point x="592" y="151"/>
      <point x="660" y="124"/>
      <point x="710" y="124" type="qcurve" smooth="yes"/>
      <point x="780" y="124"/>
      <point x="928" y="180"/>
      <point x="994" y="223" type="qcurve" smooth="yes"/>
      <point x="1017" y="238"/>
      <point x="1064" y="223"/>
      <point x="1083" y="187" type="qcurve" smooth="yes"/>
      <point x="1102" y="151"/>
      <point x="1088" y="106"/>
      <point x="1063" y="90" type="qcurve" smooth="yes"/>
      <point x="1025" y="66"/>
      <point x="938" y="25"/>
      <point x="892.0" y="10.0" type="qcurve" smooth="yes" name="inserted"/>
      <point x="846" y="-5"/>
      <point x="753" y="-22"/>
      <point x="710" y="-22" type="qcurve" smooth="yes"/>
      <point x="623" y="-22"/>
      <point x="499" y="24"/>
      <point x="459.5" y="68.5" type="qcurve" smooth="yes" name="inserted"/>
      <point x="420" y="113"/>
      <point x="383" y="245"/>
      <point x="383" y="331" type="qcurve" smooth="yes"/>
      <point x="383" y="708" type="line"/>
      <point x="180" y="708" type="line" smooth="yes"/>
      <point x="146" y="708"/>
      <point x="117" y="738"/>
      <point x="117" y="776" type="qcurve" smooth="yes"/>
      <point x="117" y="814"/>
      <point x="146" y="844"/>
      <point x="180" y="844" type="qcurve" smooth="yes"/>
    </contour>
  </outline>
</glyph>
<glyph name="w" format="1">
  <advance width="1228"/>
  <unicode hex="0077"/>
  <outline>
    <contour>
      <point x="53" y="788" type="line" smooth="yes"/>
      <point x="19" y="788"/>
      <point x="-10" y="818"/>
      <point x="-10" y="856" type="qcurve" smooth="yes"/>
      <point x="-10" y="894"/>
      <point x="19" y="924"/>
      <point x="53" y="924" type="qcurve" smooth="yes"/>
      <point x="347" y="924" type="line" smooth="yes"/>
      <point x="381" y="924"/>
      <point x="410" y="894"/>
      <point x="410" y="856" type="qcurve" smooth="yes"/>
      <point x="410" y="818"/>
      <point x="381" y="788"/>
      <point x="347" y="788" type="qcurve" smooth="yes"/>
      <point x="224" y="788" type="line"/>
      <point x="368" y="206" type="line"/>
      <point x="535" y="670" type="line" smooth="yes"/>
      <point x="542" y="690"/>
      <point x="578" y="717"/>
      <point x="611" y="717" type="qcurve" smooth="yes"/>
      <point x="645" y="717"/>
      <point x="681" y="697"/>
      <point x="688" y="677" type="qcurve" smooth="yes"/>
      <point x="854" y="206" type="line"/>
      <point x="1002" y="788" type="line"/>
      <point x="901" y="788" type="line" smooth="yes"/>
      <point x="867" y="788"/>
      <point x="838" y="818"/>
      <point x="838" y="856" type="qcurve" smooth="yes"/>
      <point x="838" y="894"/>
      <point x="867" y="924"/>
      <point x="901" y="924" type="qcurve" smooth="yes"/>
      <point x="1175" y="924" type="line" smooth="yes"/>
      <point x="1209" y="924"/>
      <point x="1238" y="894"/>
      <point x="1238" y="856" type="qcurve" smooth="yes"/>
      <point x="1238" y="818"/>
      <point x="1209" y="788"/>
      <point x="1175" y="788" type="qcurve" smooth="yes"/>
      <point x="1151" y="788" type="line"/>
      <point x="954" y="43" type="line" smooth="yes"/>
      <point x="944" y="7"/>
      <point x="905" y="-22"/>
      <point x="867" y="-22" type="qcurve" smooth="yes"/>
      <point x="824" y="-22"/>
      <point x="775" y="9"/>
      <point x="763" y="43" type="qcurve" smooth="yes"/>
      <point x="610" y="477" type="line"/>
      <point x="455" y="43" type="line" smooth="yes"/>
      <point x="443" y="8"/>
      <point x="392" y="-22"/>
      <point x="349" y="-22" type="qcurve" smooth="yes"/>
      <point x="311" y="-22"/>
      <point x="273" y="8"/>
      <point x="264" y="43" type="qcurve" smooth="yes"/>
      <point x="71" y="788" type="line"/>
    </contour>
  </outline>
</glyph>
<glyph name="z" format="1">
  <advance width="1228"/>
  <unicode hex="007A"/>
  <outline>
    <contour>
      <point x="900" y="136" type="line"/>
      <point x="900" y="308" type="line" smooth="yes"/>
      <point x="900" y="343"/>
      <point x="933" y="373"/>
      <point x="975" y="373" type="qcurve" smooth="yes"/>
      <point x="1017" y="373"/>
      <point x="1050" y="343"/>
      <point x="1050" y="308" type="qcurve" smooth="yes"/>
      <point x="1050" y="68" type="line" smooth="yes"/>
      <point x="1050" y="30"/>
      <point x="1021" y="0"/>
      <point x="987" y="0" type="qcurve" smooth="yes"/>
      <point x="241" y="0" type="line" smooth="yes"/>
      <point x="207" y="0"/>
      <point x="178" y="30"/>
      <point x="178" y="68" type="qcurve" smooth="yes"/>
      <point x="178.0" y="83.0" name="inserted"/>
      <point x="185.0" y="105.5"/>
      <point x="192" y="113" type="qcurve" smooth="yes"/>
      <point x="803" y="788" type="line"/>
      <point x="348" y="788" type="line"/>
      <point x="348" y="639" type="line" smooth="yes"/>
      <point x="348" y="604"/>
      <point x="315" y="574"/>
      <point x="273" y="574" type="qcurve" smooth="yes"/>
      <point x="231" y="574"/>
      <point x="198" y="604"/>
      <point x="198" y="639" type="qcurve" smooth="yes"/>
      <point x="198" y="856" type="line" smooth="yes"/>
      <point x="198" y="894"/>
      <point x="227" y="924"/>
      <point x="261" y="924" type="qcurve" smooth="yes"/>
      <point x="977" y="924" type="line" smooth="yes"/>
      <point x="1011" y="924"/>
      <point x="1040" y="894"/>
      <point x="1040" y="856" type="qcurve" smooth="yes"/>
      <point x="1040.0" y="841.5" name="inserted"/>
      <point x="1032.5" y="818.5"/>
      <point x="1025" y="810" type="qcurve" smooth="yes"/>
      <point x="415" y="136" type="line"/>
    </contour>
  </outline>
</glyph>
<glyph name="braceright" format="1">
  <advance width="1228"/>
  <unicode hex="007D"/>
  <outline>
    <contour>
      <point x="740" y="482" type="qcurve"/>
      <point x="667" y="526"/>
      <point x="593" y="668"/>
      <point x="593" y="760" type="qcurve" smooth="yes"/>
      <point x="593" y="927" type="line" smooth="yes"/>
      <point x="593" y="1061"/>
      <point x="493" y="1176"/>
      <point x="381" y="1176" type="qcurve" smooth="yes"/>
      <point x="347" y="1176"/>
      <point x="318" y="1206"/>
      <point x="318" y="1244" type="qcurve" smooth="yes"/>
      <point x="318" y="1282"/>
      <point x="347" y="1312"/>
      <point x="381" y="1312" type="qcurve" smooth="yes"/>
      <point x="556" y="1312"/>
      <point x="743" y="1129"/>
      <point x="743" y="939" type="qcurve" smooth="yes"/>
      <point x="743" y="770" type="line" smooth="yes"/>
      <point x="743" y="661"/>
      <point x="847" y="549"/>
      <point x="958" y="549" type="qcurve" smooth="yes"/>
      <point x="992" y="549"/>
      <point x="1021" y="519"/>
      <point x="1021" y="481" type="qcurve" smooth="yes"/>
      <point x="1021" y="443"/>
      <point x="992" y="413"/>
      <point x="958" y="413" type="qcurve" smooth="yes"/>
      <point x="847" y="413"/>
      <point x="743" y="302"/>
      <point x="743" y="193" type="qcurve" smooth="yes"/>
      <point x="743" y="-20" type="line" smooth="yes"/>
      <point x="743" y="-211"/>
      <point x="556" y="-393"/>
      <point x="381" y="-393" type="qcurve" smooth="yes"/>
      <point x="347" y="-393"/>
      <point x="318" y="-363"/>
      <point x="318" y="-325" type="qcurve" smooth="yes"/>
      <point x="318" y="-287"/>
      <point x="347" y="-257"/>
      <point x="381" y="-257" type="qcurve" smooth="yes"/>
      <point x="493" y="-257"/>
      <point x="593" y="-142"/>
      <point x="593" y="-8" type="qcurve" smooth="yes"/>
      <point x="593" y="203" type="line" smooth="yes"/>
      <point x="593" y="295"/>
      <point x="667" y="438"/>
    </contour>
  </outline>
</glyph>
<glyph name="asciitilde" format="1">
  <advance width="1228"/>
  <unicode hex="007E"/>
  <outline>
    <contour>
      <point x="238" y="490" type="qcurve" smooth="yes"/>
      <point x="221" y="477"/>
      <point x="182" y="497"/>
      <point x="168" y="521" type="qcurve" smooth="yes"/>
      <point x="154" y="544"/>
      <point x="153" y="587"/>
      <point x="170" y="601" type="qcurve" smooth="yes"/>
      <point x="234" y="657"/>
      <point x="354" y="700"/>
      <point x="412" y="700" type="qcurve" smooth="yes"/>
      <point x="466" y="700"/>
      <point x="569" y="673"/>
      <point x="619.5" y="657.0" type="qcurve" smooth="yes" name="inserted"/>
      <point x="670" y="641"/>
      <point x="770" y="614"/>
      <point x="820" y="614" type="qcurve" smooth="yes"/>
      <point x="862" y="614"/>
      <point x="946" y="640"/>
      <point x="990" y="672" type="qcurve" smooth="yes"/>
      <point x="1007" y="685"/>
      <point x="1046" y="665"/>
      <point x="1060" y="641" type="qcurve" smooth="yes"/>
      <point x="1074" y="618"/>
      <point x="1075" y="575"/>
      <point x="1058" y="561" type="qcurve" smooth="yes"/>
      <point x="993" y="505"/>
      <point x="873" y="462"/>
      <point x="816" y="462" type="qcurve" smooth="yes"/>
      <point x="762" y="462"/>
      <point x="659" y="489"/>
      <point x="608.5" y="505.0" type="qcurve" smooth="yes" name="inserted"/>
      <point x="558" y="521"/>
      <point x="458" y="548"/>
      <point x="408" y="548" type="qcurve" smooth="yes"/>
      <point x="366" y="548"/>
      <point x="282" y="522"/>
    </contour>
  </outline>
</glyph>
<glyph name="cent" format="1">
  <advance width="1228"/>
  <unicode hex="00A2"/>
  <outline>
    <contour>
      <point x="899" y="731" type="qcurve" smooth="yes"/>
      <point x="899" y="811"/>
      <point x="790" y="920"/>
      <point x="684" y="934" type="qcurve"/>
      <point x="684" y="271" type="line"/>
      <point x="756" y="280"/>
      <point x="888" y="333"/>
      <point x="945" y="377" type="qcurve" smooth="yes"/>
      <point x="971" y="397"/>
      <point x="1017" y="387"/>
      <point x="1038" y="352" type="qcurve" smooth="yes"/>
      <point x="1055" y="325"/>
      <point x="1050" y="267"/>
      <point x="1021" y="246" type="qcurve" smooth="yes"/>
      <point x="953" y="195"/>
      <point x="779" y="131"/>
      <point x="684" y="121" type="qcurve"/>
      <point x="684" y="-60" type="line" smooth="yes"/>
      <point x="684" y="-95"/>
      <point x="651" y="-125"/>
      <point x="614" y="-125" type="qcurve" smooth="yes"/>
      <point x="577" y="-125"/>
      <point x="544" y="-95"/>
      <point x="544" y="-60" type="qcurve" smooth="yes"/>
      <point x="544" y="121" type="line"/>
      <point x="448" y="132"/>
      <point x="294" y="213"/>
      <point x="240.0" y="276.5" type="qcurve" smooth="yes" name="inserted"/>
      <point x="186" y="340"/>
      <point x="127" y="506"/>
      <point x="127" y="602" type="qcurve" smooth="yes"/>
      <point x="127" y="698"/>
      <point x="187" y="863"/>
      <point x="241.5" y="926.5" type="qcurve" smooth="yes" name="inserted"/>
      <point x="296" y="990"/>
      <point x="450" y="1071"/>
      <point x="544" y="1082" type="qcurve"/>
      <point x="544" y="1247" type="line" smooth="yes"/>
      <point x="544" y="1282"/>
      <point x="577" y="1312"/>
      <point x="614" y="1312" type="qcurve" smooth="yes"/>
      <point x="651" y="1312"/>
      <point x="684" y="1282"/>
      <point x="684" y="1247" type="qcurve" smooth="yes"/>
      <point x="684" y="1079" type="line"/>
      <point x="750.0" y="1067.5" name="inserted"/>
      <point x="857.5" y="1008.5"/>
      <point x="899" y="961" type="qcurve"/>
      <point x="899" y="1021" type="line" smooth="yes"/>
      <point x="899" y="1056"/>
      <point x="932" y="1086"/>
      <point x="974" y="1086" type="qcurve" smooth="yes"/>
      <point x="1016" y="1086"/>
      <point x="1049" y="1056"/>
      <point x="1049" y="1021" type="qcurve" smooth="yes"/>
      <point x="1049" y="731" type="line" smooth="yes"/>
      <point x="1049" y="696"/>
      <point x="1016" y="666"/>
      <point x="974" y="666" type="qcurve" smooth="yes"/>
      <point x="932" y="666"/>
      <point x="899" y="696"/>
    </contour>
    <contour>
      <point x="285" y="602" type="qcurve" smooth="yes"/>
      <point x="285" y="537"/>
      <point x="321" y="425"/>
      <point x="355.0" y="382.0" type="qcurve" smooth="yes" name="inserted"/>
      <point x="389" y="339"/>
      <point x="485" y="281"/>
      <point x="544" y="271" type="qcurve"/>
      <point x="544" y="930" type="line"/>
      <point x="486" y="918"/>
      <point x="390" y="860"/>
      <point x="356.0" y="817.5" type="qcurve" smooth="yes" name="inserted"/>
      <point x="322" y="775"/>
      <point x="285" y="665"/>
    </contour>
  </outline>
</glyph>
<glyph name="sterling" format="1">
  <advance width="1228"/>
  <unicode hex="00A3"/>
  <outline>
    <contour>
      <point x="426" y="132" type="qcurve"/>
      <point x="466" y="146"/>
      <point x="535" y="157"/>
      <point x="564" y="157" type="qcurve" smooth="yes"/>
      <point x="598" y="157"/>
      <point x="657" y="146"/>
      <point x="684.0" y="140.0" type="qcurve" smooth="yes" name="inserted"/>
      <point x="711" y="134"/>
      <point x="762" y="123"/>
      <point x="789" y="123" type="qcurve" smooth="yes"/>
      <point x="822" y="123"/>
      <point x="895" y="147"/>
      <point x="940" y="179" type="qcurve" smooth="yes"/>
      <point x="955" y="190"/>
      <point x="998" y="173"/>
      <point x="1015" y="146" type="qcurve"/>
      <point x="1034" y="119"/>
      <point x="1027" y="68"/>
      <point x="1010" y="56" type="qcurve" smooth="yes"/>
      <point x="948" y="10"/>
      <point x="848" y="-24"/>
      <point x="803" y="-24" type="qcurve" smooth="yes"/>
      <point x="770" y="-24"/>
      <point x="707" y="-12"/>
      <point x="674.0" y="-4.5" type="qcurve" smooth="yes" name="inserted"/>
      <point x="641" y="3"/>
      <point x="569" y="15"/>
      <point x="528" y="15" type="qcurve" smooth="yes"/>
      <point x="482" y="15"/>
      <point x="373" y="-6"/>
      <point x="307" y="-34" type="qcurve" smooth="yes"/>
      <point x="287" y="-42"/>
      <point x="247" y="-23"/>
      <point x="229" y="0" type="qcurve" smooth="yes"/>
      <point x="209" y="26"/>
      <point x="199" y="76"/>
      <point x="215" y="92" type="qcurve" smooth="yes"/>
      <point x="279" y="150"/>
      <point x="362" y="249"/>
      <point x="384.5" y="295.0" type="qcurve" smooth="yes" name="inserted"/>
      <point x="407" y="341"/>
      <point x="420" y="433"/>
      <point x="414" y="484" type="qcurve"/>
      <point x="273" y="484" type="line" smooth="yes"/>
      <point x="239" y="484"/>
      <point x="210" y="514"/>
      <point x="210" y="552" type="qcurve" smooth="yes"/>
      <point x="210" y="590"/>
      <point x="239" y="620"/>
      <point x="273" y="620" type="qcurve" smooth="yes"/>
      <point x="368" y="620" type="line"/>
      <point x="353" y="650"/>
      <point x="321" y="711"/>
      <point x="308.0" y="743.5" type="qcurve" smooth="yes" name="inserted"/>
      <point x="295" y="776"/>
      <point x="278" y="845"/>
      <point x="278" y="884" type="qcurve" smooth="yes"/>
      <point x="278" y="953"/>
      <point x="327" y="1072"/>
      <point x="371.5" y="1115.5" type="qcurve" smooth="yes" name="inserted"/>
      <point x="416" y="1159"/>
      <point x="541" y="1209"/>
      <point x="618" y="1209" type="qcurve" smooth="yes"/>
      <point x="712" y="1209"/>
      <point x="875" y="1153"/>
      <point x="941" y="1105" type="qcurve" smooth="yes"/>
      <point x="951.5" y="1097.5" name="inserted"/>
      <point x="962.0" y="1070.5"/>
      <point x="962" y="1051" type="qcurve" smooth="yes"/>
      <point x="962" y="924" type="line" smooth="yes"/>
      <point x="962" y="889"/>
      <point x="929" y="859"/>
      <point x="887" y="859" type="qcurve" smooth="yes"/>
      <point x="845" y="859"/>
      <point x="812" y="889"/>
      <point x="812" y="924" type="qcurve" smooth="yes"/>
      <point x="812" y="1014" type="line"/>
      <point x="776" y="1036"/>
      <point x="677" y="1061"/>
      <point x="617" y="1061" type="qcurve" smooth="yes"/>
      <point x="574" y="1061"/>
      <point x="506" y="1033"/>
      <point x="482.5" y="1009.0" type="qcurve" smooth="yes" name="inserted"/>
      <point x="459" y="985"/>
      <point x="434" y="921"/>
      <point x="434" y="884" type="qcurve" smooth="yes"/>
      <point x="434" y="849"/>
      <point x="454" y="786"/>
      <point x="469.0" y="754.5" type="qcurve" smooth="yes" name="inserted"/>
      <point x="484" y="723"/>
      <point x="520" y="657"/>
      <point x="535" y="620" type="qcurve"/>
      <point x="845" y="620" type="line" smooth="yes"/>
      <point x="879" y="620"/>
      <point x="908" y="590"/>
      <point x="908" y="552" type="qcurve" smooth="yes"/>
      <point x="908" y="514"/>
      <point x="879" y="484"/>
      <point x="845" y="484" type="qcurve" smooth="yes"/>
      <point x="567" y="484" type="line"/>
      <point x="574.5" y="385.5" name="inserted"/>
      <point x="504.0" y="209.5"/>
    </contour>
  </outline>
</glyph>
<glyph name="yen" format="1">
  <advance width="1228"/>
  <unicode hex="00A5"/>
  <outline>
    <contour>
      <point x="528" y="510" type="line"/>
      <point x="420" y="684" type="line"/>
      <point x="213" y="684" type="line" smooth="yes"/>
      <point x="179" y="684"/>
      <point x="150" y="714"/>
      <point x="150" y="752" type="qcurve" smooth="yes"/>
      <point x="150" y="790"/>
      <point x="179" y="820"/>
      <point x="213" y="820" type="qcurve" smooth="yes"/>
      <point x="336" y="820" type="line"/>
      <point x="193" y="1051" type="line"/>
      <point x="123" y="1051" type="line" smooth="yes"/>
      <point x="89" y="1051"/>
      <point x="60" y="1081"/>
      <point x="60" y="1119" type="qcurve" smooth="yes"/>
      <point x="60" y="1157"/>
      <point x="89" y="1187"/>
      <point x="123" y="1187" type="qcurve" smooth="yes"/>
      <point x="457" y="1187" type="line" smooth="yes"/>
      <point x="491" y="1187"/>
      <point x="520" y="1157"/>
      <point x="520" y="1119" type="qcurve" smooth="yes"/>
      <point x="520" y="1081"/>
      <point x="491" y="1051"/>
      <point x="457" y="1051" type="qcurve" smooth="yes"/>
      <point x="364" y="1051" type="line"/>
      <point x="614" y="642" type="line"/>
      <point x="866" y="1051" type="line"/>
      <point x="801" y="1051" type="line" smooth="yes"/>
      <point x="767" y="1051"/>
      <point x="738" y="1081"/>
      <point x="738" y="1119" type="qcurve" smooth="yes"/>
      <point x="738" y="1157"/>
      <point x="767" y="1187"/>
      <point x="801" y="1187" type="qcurve" smooth="yes"/>
      <point x="1105" y="1187" type="line" smooth="yes"/>
      <point x="1139" y="1187"/>
      <point x="1168" y="1157"/>
      <point x="1168" y="1119" type="qcurve" smooth="yes"/>
      <point x="1168" y="1081"/>
      <point x="1139" y="1051"/>
      <point x="1105" y="1051" type="qcurve" smooth="yes"/>
      <point x="1037" y="1051" type="line"/>
      <point x="893" y="820" type="line"/>
      <point x="1015" y="820" type="line" smooth="yes"/>
      <point x="1049" y="820"/>
      <point x="1078" y="790"/>
      <point x="1078" y="752" type="qcurve" smooth="yes"/>
      <point x="1078" y="714"/>
      <point x="1049" y="684"/>
      <point x="1015" y="684" type="qcurve" smooth="yes"/>
      <point x="808" y="684" type="line"/>
      <point x="700" y="510" type="line"/>
      <point x="995" y="510" type="line" smooth="yes"/>
      <point x="1029" y="510"/>
      <point x="1058" y="480"/>
      <point x="1058" y="442" type="qcurve" smooth="yes"/>
      <point x="1058" y="404"/>
      <point x="1029" y="374"/>
      <point x="995" y="374" type="qcurve" smooth="yes"/>
      <point x="689" y="374" type="line"/>
      <point x="689" y="136" type="line"/>
      <point x="915" y="136" type="line" smooth="yes"/>
      <point x="949" y="136"/>
      <point x="978" y="106"/>
      <point x="978" y="68" type="qcurve" smooth="yes"/>
      <point x="978" y="30"/>
      <point x="949" y="0"/>
      <point x="915" y="0" type="qcurve" smooth="yes"/>
      <point x="313" y="0" type="line" smooth="yes"/>
      <point x="279" y="0"/>
      <point x="250" y="30"/>
      <point x="250" y="68" type="qcurve" smooth="yes"/>
      <point x="250" y="106"/>
      <point x="279" y="136"/>
      <point x="313" y="136" type="qcurve" smooth="yes"/>
      <point x="539" y="136" type="line"/>
      <point x="539" y="374" type="line"/>
      <point x="233" y="374" type="line" smooth="yes"/>
      <point x="199" y="374"/>
      <point x="170" y="404"/>
      <point x="170" y="442" type="qcurve" smooth="yes"/>
      <point x="170" y="480"/>
      <point x="199" y="510"/>
      <point x="233" y="510" type="qcurve" smooth="yes"/>
    </contour>
  </outline>
</glyph>
<glyph name="dieresis" format="1">
  <advance width="1228"/>
  <unicode hex="00A8"/>
  <outline>
    <contour>
      <point x="269" y="1195" type="qcurve" smooth="yes"/>
      <point x="269" y="1221"/>
      <point x="289" y="1266"/>
      <point x="306.0" y="1283.0" type="qcurve" smooth="yes" name="inserted"/>
      <point x="323" y="1300"/>
      <point x="368" y="1320"/>
      <point x="394" y="1320" type="qcurve" smooth="yes"/>
      <point x="420" y="1320"/>
      <point x="465" y="1300"/>
      <point x="482.0" y="1283.0" type="qcurve" smooth="yes" name="inserted"/>
      <point x="499" y="1266"/>
      <point x="519" y="1221"/>
      <point x="519" y="1195" type="qcurve" smooth="yes"/>
      <point x="519" y="1169"/>
      <point x="499" y="1124"/>
      <point x="482.0" y="1107.0" type="qcurve" smooth="yes" name="inserted"/>
      <point x="465" y="1090"/>
      <point x="420" y="1070"/>
      <point x="394" y="1070" type="qcurve" smooth="yes"/>
      <point x="368" y="1070"/>
      <point x="323" y="1090"/>
      <point x="306.0" y="1107.0" type="qcurve" smooth="yes" name="inserted"/>
      <point x="289" y="1124"/>
      <point x="269" y="1169"/>
    </contour>
    <contour>
      <point x="709" y="1195" type="qcurve" smooth="yes"/>
      <point x="709" y="1221"/>
      <point x="729" y="1266"/>
      <point x="746.0" y="1283.0" type="qcurve" smooth="yes" name="inserted"/>
      <point x="763" y="1300"/>
      <point x="808" y="1320"/>
      <point x="834" y="1320" type="qcurve" smooth="yes"/>
      <point x="860" y="1320"/>
      <point x="905" y="1300"/>
      <point x="922.0" y="1283.0" type="qcurve" smooth="yes" name="inserted"/>
      <point x="939" y="1266"/>
      <point x="959" y="1221"/>
      <point x="959" y="1195" type="qcurve" smooth="yes"/>
      <point x="959" y="1169"/>
      <point x="939" y="1124"/>
      <point x="922.0" y="1107.0" type="qcurve" smooth="yes" name="inserted"/>
      <point x="905" y="1090"/>
      <point x="860" y="1070"/>
      <point x="834" y="1070" type="qcurve" smooth="yes"/>
      <point x="808" y="1070"/>
      <point x="763" y="1090"/>
      <point x="746.0" y="1107.0" type="qcurve" smooth="yes" name="inserted"/>
      <point x="729" y="1124"/>
      <point x="709" y="1169"/>
    </contour>
  </outline>
</glyph>
<glyph name="ordfeminine" format="1">
  <advance width="1228"/>
  <unicode hex="00AA"/>
  <outline>
    <contour>
      <point x="984" y="602" type="line" smooth="yes"/>
      <point x="1010" y="602"/>
      <point x="1033" y="573"/>
      <point x="1033" y="541" type="qcurve" smooth="yes"/>
      <point x="1033" y="509"/>
      <point x="1010" y="483"/>
      <point x="984" y="483" type="qcurve" smooth="yes"/>
      <point x="935" y="483" type="line" smooth="yes"/>
      <point x="887" y="483"/>
      <point x="807" y="527"/>
      <point x="794" y="574" type="qcurve"/>
      <point x="734" y="523"/>
      <point x="595" y="465"/>
      <point x="512" y="465" type="qcurve" smooth="yes"/>
      <point x="454" y="465"/>
      <point x="355" y="493"/>
      <point x="319.0" y="521.0" type="qcurve" smooth="yes" name="inserted"/>
      <point x="283" y="549"/>
      <point x="242" y="632"/>
      <point x="242" y="687" type="qcurve" smooth="yes"/>
      <point x="242" y="751"/>
      <point x="290" y="843"/>
      <point x="332.0" y="871.5" type="qcurve" smooth="yes" name="inserted"/>
      <point x="374" y="900"/>
      <point x="485" y="927"/>
      <point x="548" y="927" type="qcurve" smooth="yes"/>
      <point x="611" y="927"/>
      <point x="727" y="914"/>
      <point x="782" y="899" type="qcurve"/>
      <point x="782" y="950" type="line" smooth="yes"/>
      <point x="782" y="1010"/>
      <point x="714" y="1080"/>
      <point x="634" y="1080" type="qcurve" smooth="yes"/>
      <point x="574.0" y="1080.0" name="inserted"/>
      <point x="458.0" y="1047.5"/>
      <point x="402" y="1015" type="qcurve" smooth="yes"/>
      <point x="383" y="1004"/>
      <point x="344" y="1014"/>
      <point x="328" y="1042" type="qcurve" smooth="yes"/>
      <point x="309" y="1074"/>
      <point x="316" y="1116"/>
      <point x="335" y="1128" type="qcurve" smooth="yes"/>
      <point x="397" y="1167"/>
      <point x="556" y="1209"/>
      <point x="634" y="1209" type="qcurve" smooth="yes"/>
      <point x="775" y="1209"/>
      <point x="917" y="1075"/>
      <point x="917" y="954" type="qcurve" smooth="yes"/>
      <point x="917" y="657" type="line" smooth="yes"/>
      <point x="917" y="626"/>
      <point x="942" y="602"/>
      <point x="967" y="602" type="qcurve" smooth="yes"/>
    </contour>
    <contour>
      <point x="782" y="776" type="line"/>
      <point x="729" y="788"/>
      <point x="619" y="801"/>
      <point x="559" y="801" type="qcurve" smooth="yes"/>
      <point x="520" y="801"/>
      <point x="456" y="789"/>
      <point x="432.5" y="776.0" type="qcurve" smooth="yes" name="inserted"/>
      <point x="409" y="763"/>
      <point x="383" y="721"/>
      <point x="383" y="690" type="qcurve" smooth="yes"/>
      <point x="383" y="641"/>
      <point x="455" y="590"/>
      <point x="516" y="590" type="qcurve" smooth="yes"/>
      <point x="594" y="590"/>
      <point x="725" y="650"/>
      <point x="782" y="707" type="qcurve"/>
    </contour>
  </outline>
</glyph>
<glyph name="guillemotleft" format="1">
  <advance width="1228"/>
  <unicode hex="00AB"/>
  <outline>
    <contour>
      <point x="252" y="548" type="line" smooth="yes"/>
      <point x="245.0" y="560.0" name="inserted"/>
      <point x="245.0" y="584.0"/>
      <point x="252" y="596" type="qcurve" smooth="yes"/>
      <point x="450" y="922" type="line" smooth="yes"/>
      <point x="463" y="943"/>
      <point x="515" y="948"/>
      <point x="540" y="937" type="qcurve" smooth="yes"/>
      <point x="553" y="931"/>
      <point x="575" y="915"/>
      <point x="581.0" y="904.5" type="qcurve" smooth="yes" name="inserted"/>
      <point x="587" y="894"/>
      <point x="588" y="870"/>
      <point x="580" y="857" type="qcurve" smooth="yes"/>
      <point x="406" y="572" type="line"/>
      <point x="580" y="287" type="line" smooth="yes"/>
      <point x="588" y="274"/>
      <point x="587" y="250"/>
      <point x="581.0" y="239.5" type="qcurve" smooth="yes" name="inserted"/>
      <point x="575" y="229"/>
      <point x="553" y="213"/>
      <point x="540" y="207" type="qcurve" smooth="yes"/>
      <point x="515" y="196"/>
      <point x="463" y="201"/>
      <point x="450" y="222" type="qcurve" smooth="yes"/>
    </contour>
    <contour>
      <point x="652" y="548" type="line" smooth="yes"/>
      <point x="645.0" y="560.0" name="inserted"/>
      <point x="645.0" y="584.0"/>
      <point x="652" y="596" type="qcurve" smooth="yes"/>
      <point x="850" y="922" type="line" smooth="yes"/>
      <point x="863" y="943"/>
      <point x="915" y="948"/>
      <point x="940" y="937" type="qcurve" smooth="yes"/>
      <point x="953" y="931"/>
      <point x="975" y="915"/>
      <point x="981.0" y="904.5" type="qcurve" smooth="yes" name="inserted"/>
      <point x="987" y="894"/>
      <point x="988" y="870"/>
      <point x="980" y="857" type="qcurve" smooth="yes"/>
      <point x="806" y="572" type="line"/>
      <point x="980" y="287" type="line" smooth="yes"/>
      <point x="988" y="274"/>
      <point x="987" y="250"/>
      <point x="981.0" y="239.5" type="qcurve" smooth="yes" name="inserted"/>
      <point x="975" y="229"/>
      <point x="953" y="213"/>
      <point x="940" y="207" type="qcurve" smooth="yes"/>
      <point x="915" y="196"/>
      <point x="863" y="201"/>
      <point x="850" y="222" type="qcurve" smooth="yes"/>
    </contour>
  </outline>
</glyph>
<glyph name="logicalnot" format="1">
  <advance width="1228"/>
  <unicode hex="00AC"/>
  <outline>
    <contour>
      <point x="203" y="709" type="line" smooth="yes"/>
      <point x="169" y="709"/>
      <point x="140" y="739"/>
      <point x="140" y="777" type="qcurve" smooth="yes"/>
      <point x="140" y="815"/>
      <point x="169" y="845"/>
      <point x="203" y="845" type="qcurve" smooth="yes"/>
      <point x="1015" y="845" type="line" smooth="yes"/>
      <point x="1049" y="845"/>
      <point x="1078" y="815"/>
      <point x="1078" y="777" type="qcurve" smooth="yes"/>
      <point x="1078" y="383" type="line" smooth="yes"/>
      <point x="1078" y="348"/>
      <point x="1045" y="318"/>
      <point x="1003" y="318" type="qcurve" smooth="yes"/>
      <point x="961" y="318"/>
      <point x="928" y="348"/>
      <point x="928" y="383" type="qcurve" smooth="yes"/>
      <point x="928" y="709" type="line"/>
    </contour>
  </outline>
</glyph>
<glyph name="registered" format="1">
  <advance width="1228"/>
  <unicode hex="00AE"/>
  <outline>
    <contour>
      <point x="36" y="594" type="qcurve" smooth="yes"/>
      <point x="36" y="723"/>
      <point x="121" y="947"/>
      <point x="197.5" y="1030.0" type="qcurve" smooth="yes" name="inserted"/>
      <point x="274" y="1113"/>
      <point x="486" y="1209"/>
      <point x="614" y="1209" type="qcurve" smooth="yes"/>
      <point x="741" y="1209"/>
      <point x="954" y="1113"/>
      <point x="1030.5" y="1030.0" type="qcurve" smooth="yes" name="inserted"/>
      <point x="1107" y="947"/>
      <point x="1192" y="723"/>
      <point x="1192" y="594" type="qcurve" smooth="yes"/>
      <point x="1192" y="465"/>
      <point x="1107" y="241"/>
      <point x="1030.5" y="157.5" type="qcurve" smooth="yes" name="inserted"/>
      <point x="954" y="74"/>
      <point x="741" y="-22"/>
      <point x="614" y="-22" type="qcurve" smooth="yes"/>
      <point x="486" y="-22"/>
      <point x="274" y="74"/>
      <point x="197.5" y="157.5" type="qcurve" smooth="yes" name="inserted"/>
      <point x="121" y="241"/>
      <point x="36" y="465"/>
    </contour>
    <contour>
      <point x="158" y="594" type="qcurve" smooth="yes"/>
      <point x="158" y="487"/>
      <point x="224" y="305"/>
      <point x="284.0" y="239.0" type="qcurve" smooth="yes" name="inserted"/>
      <point x="344" y="173"/>
      <point x="512" y="98"/>
      <point x="614" y="98" type="qcurve" smooth="yes"/>
      <point x="716" y="98"/>
      <point x="884" y="173"/>
      <point x="944.0" y="239.0" type="qcurve" smooth="yes" name="inserted"/>
      <point x="1004" y="305"/>
      <point x="1070" y="487"/>
      <point x="1070" y="594" type="qcurve" smooth="yes"/>
      <point x="1070" y="701"/>
      <point x="1004" y="883"/>
      <point x="944.0" y="949.0" type="qcurve" smooth="yes" name="inserted"/>
      <point x="884" y="1015"/>
      <point x="716" y="1089"/>
      <point x="614" y="1089" type="qcurve" smooth="yes"/>
      <point x="512" y="1089"/>
      <point x="344" y="1015"/>
      <point x="284.0" y="949.0" type="qcurve" smooth="yes" name="inserted"/>
      <point x="224" y="883"/>
      <point x="158" y="701"/>
    </contour>
    <contour>
      <point x="385" y="854" type="line" smooth="yes"/>
      <point x="385" y="888"/>
      <point x="416" y="917"/>
      <point x="450" y="917" type="qcurve" smooth="yes"/>
      <point x="637" y="917" type="line" smooth="yes"/>
      <point x="692" y="917"/>
      <point x="782" y="884"/>
      <point x="813.5" y="854.5" type="qcurve" smooth="yes" name="inserted"/>
      <point x="845" y="825"/>
      <point x="879" y="744"/>
      <point x="879" y="695" type="qcurve" smooth="yes"/>
      <point x="879" y="620"/>
      <point x="803" y="517"/>
      <point x="734" y="494" type="qcurve"/>
      <point x="841" y="378" type="line" smooth="yes"/>
      <point x="864" y="353"/>
      <point x="871" y="307"/>
      <point x="845" y="284" type="qcurve" smooth="yes"/>
      <point x="821" y="262"/>
      <point x="773" y="268"/>
      <point x="756" y="288" type="qcurve" smooth="yes"/>
      <point x="598" y="470" type="line"/>
      <point x="509" y="470" type="line"/>
      <point x="509" y="335" type="line" smooth="yes"/>
      <point x="509" y="300"/>
      <point x="481" y="270"/>
      <point x="446" y="270" type="qcurve" smooth="yes"/>
      <point x="411" y="270"/>
      <point x="385" y="300"/>
      <point x="385" y="335" type="qcurve" smooth="yes"/>
    </contour>
    <contour>
      <point x="509" y="800" type="line"/>
      <point x="509" y="587" type="line"/>
      <point x="615" y="587" type="line" smooth="yes"/>
      <point x="683" y="587"/>
      <point x="749" y="644"/>
      <point x="749" y="695" type="qcurve" smooth="yes"/>
      <point x="749" y="744"/>
      <point x="687" y="800"/>
      <point x="624" y="800" type="qcurve" smooth="yes"/>
    </contour>
  </outline>
</glyph>
<glyph name="plusminus" format="1">
  <advance width="1228"/>
  <unicode hex="00B1"/>
  <outline>
    <contour>
      <point x="233" y="674" type="line" smooth="yes"/>
      <point x="199" y="674"/>
      <point x="170" y="704"/>
      <point x="170" y="742" type="qcurve" smooth="yes"/>
      <point x="170" y="780"/>
      <point x="199" y="810"/>
      <point x="233" y="810" type="qcurve" smooth="yes"/>
      <point x="546" y="810" type="line"/>
      <point x="546" y="1063" type="line" smooth="yes"/>
      <point x="546" y="1097"/>
      <point x="576" y="1126"/>
      <point x="614" y="1126" type="qcurve" smooth="yes"/>
      <point x="652" y="1126"/>
      <point x="682" y="1097"/>
      <point x="682" y="1063" type="qcurve" smooth="yes"/>
      <point x="682" y="810" type="line"/>
      <point x="995" y="810" type="line" smooth="yes"/>
      <point x="1029" y="810"/>
      <point x="1058" y="780"/>
      <point x="1058" y="742" type="qcurve" smooth="yes"/>
      <point x="1058" y="704"/>
      <point x="1029" y="674"/>
      <point x="995" y="674" type="qcurve" smooth="yes"/>
      <point x="682" y="674" type="line"/>
      <point x="682" y="421" type="line" smooth="yes"/>
      <point x="682" y="387"/>
      <point x="652" y="358"/>
      <point x="614" y="358" type="qcurve" smooth="yes"/>
      <point x="576" y="358"/>
      <point x="546" y="387"/>
      <point x="546" y="421" type="qcurve" smooth="yes"/>
      <point x="546" y="674" type="line"/>
    </contour>
    <contour>
      <point x="995" y="250" type="line" smooth="yes"/>
      <point x="1029" y="250"/>
      <point x="1058" y="220"/>
      <point x="1058" y="182" type="qcurve" smooth="yes"/>
      <point x="1058" y="144"/>
      <point x="1029" y="114"/>
      <point x="995" y="114" type="qcurve" smooth="yes"/>
      <point x="233" y="114" type="line" smooth="yes"/>
      <point x="199" y="114"/>
      <point x="170" y="144"/>
      <point x="170" y="182" type="qcurve" smooth="yes"/>
      <point x="170" y="220"/>
      <point x="199" y="250"/>
      <point x="233" y="250" type="qcurve" smooth="yes"/>
    </contour>
  </outline>
</glyph>
<glyph name="threesuperior" format="1">
  <advance width="1228"/>
  <unicode hex="00B3"/>
  <outline>
    <contour>
      <point x="332" y="1265" type="qcurve" smooth="yes"/>
      <point x="392" y="1300"/>
      <point x="536" y="1334"/>
      <point x="604" y="1334" type="qcurve" smooth="yes"/>
      <point x="673" y="1334"/>
      <point x="782" y="1299"/>
      <point x="820.5" y="1267.5" type="qcurve" smooth="yes" name="inserted"/>
      <point x="859" y="1236"/>
      <point x="899" y="1148"/>
      <point x="899" y="1096" type="qcurve" smooth="yes"/>
      <point x="899" y="1033"/>
      <point x="841" y="944"/>
      <point x="787" y="915" type="qcurve"/>
      <point x="851" y="893"/>
      <point x="926" y="795"/>
      <point x="926" y="719" type="qcurve" smooth="yes"/>
      <point x="926" y="661"/>
      <point x="886" y="567"/>
      <point x="846.0" y="534.0" type="qcurve" smooth="yes" name="inserted"/>
      <point x="806" y="501"/>
      <point x="686" y="465"/>
      <point x="605" y="465" type="qcurve" smooth="yes"/>
      <point x="534" y="465"/>
      <point x="386" y="496"/>
      <point x="324" y="530" type="qcurve" smooth="yes"/>
      <point x="303" y="541"/>
      <point x="302" y="584"/>
      <point x="310" y="607" type="qcurve" smooth="yes"/>
      <point x="319" y="631"/>
      <point x="352" y="661"/>
      <point x="378" y="650" type="qcurve"/>
      <point x="427" y="625"/>
      <point x="541" y="594"/>
      <point x="598" y="594" type="qcurve" smooth="yes"/>
      <point x="688" y="594"/>
      <point x="786" y="659"/>
      <point x="786" y="720" type="qcurve" smooth="yes"/>
      <point x="786" y="755"/>
      <point x="759" y="801"/>
      <point x="735.0" y="815.0" type="qcurve" smooth="yes" name="inserted"/>
      <point x="711" y="829"/>
      <point x="643" y="840"/>
      <point x="602" y="840" type="qcurve" smooth="yes"/>
      <point x="550" y="840" type="line" smooth="yes"/>
      <point x="526" y="840"/>
      <point x="506" y="875"/>
      <point x="506" y="902" type="qcurve" smooth="yes"/>
      <point x="506" y="928"/>
      <point x="526" y="965"/>
      <point x="550" y="965" type="qcurve" smooth="yes"/>
      <point x="589" y="965" type="line" smooth="yes"/>
      <point x="670" y="965"/>
      <point x="759" y="1020"/>
      <point x="759" y="1086" type="qcurve" smooth="yes"/>
      <point x="759" y="1146"/>
      <point x="670" y="1205"/>
      <point x="593" y="1205" type="qcurve" smooth="yes"/>
      <point x="551" y="1205"/>
      <point x="478" y="1190"/>
      <point x="446" y="1176" type="qcurve"/>
      <point x="446" y="1113" type="line" smooth="yes"/>
      <point x="446" y="1088"/>
      <point x="416" y="1062"/>
      <point x="378" y="1062" type="qcurve" smooth="yes"/>
      <point x="341" y="1062"/>
      <point x="311" y="1088"/>
      <point x="311" y="1113" type="qcurve" smooth="yes"/>
      <point x="311" y="1223" type="line" smooth="yes"/>
      <point x="311.0" y="1237.5" name="inserted"/>
      <point x="321.5" y="1258.5"/>
    </contour>
  </outline>
</glyph>
<glyph name="acute" format="1">
  <advance width="1228"/>
  <unicode hex="00B4"/>
  <outline>
    <contour>
      <point x="837" y="1363" type="line" smooth="yes"/>
      <point x="850" y="1370"/>
      <point x="873" y="1376"/>
      <point x="884.5" y="1371.0" type="qcurve" smooth="yes" name="inserted"/>
      <point x="896" y="1366"/>
      <point x="922" y="1337"/>
      <point x="938" y="1309" type="qcurve" smooth="yes"/>
      <point x="953" y="1282"/>
      <point x="964" y="1245"/>
      <point x="963.0" y="1232.5" type="qcurve" smooth="yes" name="inserted"/>
      <point x="962" y="1220"/>
      <point x="948" y="1205"/>
      <point x="938" y="1202" type="qcurve" smooth="yes"/>
      <point x="457" y="1039" type="line" smooth="yes"/>
      <point x="438" y="1033"/>
      <point x="409" y="1054"/>
      <point x="402" y="1071" type="qcurve" smooth="yes"/>
      <point x="395" y="1088"/>
      <point x="404" y="1123"/>
      <point x="421" y="1133" type="qcurve" smooth="yes"/>
    </contour>
  </outline>
</glyph>
<glyph name="periodcentered" format="1">
  <advance width="1228"/>
  <unicode hex="00B7"/>
  <outline>
    <contour>
      <point x="445" y="582" type="qcurve" smooth="yes"/>
      <point x="445" y="617"/>
      <point x="472" y="678"/>
      <point x="495.0" y="701.0" type="qcurve" smooth="yes" name="inserted"/>
      <point x="518" y="724"/>
      <point x="579" y="751"/>
      <point x="614" y="751" type="qcurve" smooth="yes"/>
      <point x="649" y="751"/>
      <point x="710" y="724"/>
      <point x="733.0" y="701.0" type="qcurve" smooth="yes" name="inserted"/>
      <point x="756" y="678"/>
      <point x="783" y="617"/>
      <point x="783" y="582" type="qcurve" smooth="yes"/>
      <point x="783" y="547"/>
      <point x="756" y="486"/>
      <point x="733.0" y="463.0" type="qcurve" smooth="yes" name="inserted"/>
      <point x="710" y="440"/>
      <point x="649" y="413"/>
      <point x="614" y="413" type="qcurve" smooth="yes"/>
      <point x="579" y="413"/>
      <point x="518" y="440"/>
      <point x="495.0" y="463.0" type="qcurve" smooth="yes" name="inserted"/>
      <point x="472" y="486"/>
      <point x="445" y="547"/>
    </contour>
  </outline>
</glyph>
<glyph name="onesuperior" format="1">
  <advance width="1228"/>
  <unicode hex="00B9"/>
  <outline>
    <contour>
      <point x="569" y="1179" type="line"/>
      <point x="395" y="1122" type="line" smooth="yes"/>
      <point x="370.0" y="1113.5" name="inserted"/>
      <point x="335.5" y="1133.5"/>
      <point x="326" y="1162" type="qcurve" smooth="yes"/>
      <point x="315.0" y="1192.5" name="inserted"/>
      <point x="329.0" y="1231.0"/>
      <point x="354" y="1239" type="qcurve" smooth="yes"/>
      <point x="638" y="1330" type="line" smooth="yes"/>
      <point x="665" y="1339"/>
      <point x="704" y="1318"/>
      <point x="704" y="1292" type="qcurve" smooth="yes"/>
      <point x="704" y="608" type="line"/>
      <point x="898" y="608" type="line" smooth="yes"/>
      <point x="922" y="608"/>
      <point x="947" y="580"/>
      <point x="947" y="546" type="qcurve" smooth="yes"/>
      <point x="947" y="512"/>
      <point x="922" y="483"/>
      <point x="898" y="483" type="qcurve" smooth="yes"/>
      <point x="365" y="483" type="line" smooth="yes"/>
      <point x="341" y="483"/>
      <point x="315" y="512"/>
      <point x="315" y="546" type="qcurve" smooth="yes"/>
      <point x="315" y="580"/>
      <point x="341" y="608"/>
      <point x="365" y="608" type="qcurve" smooth="yes"/>
      <point x="569" y="608" type="line"/>
    </contour>
  </outline>
</glyph>
<glyph name="guillemotright" format="1">
  <advance width="1228"/>
  <unicode hex="00BB"/>
  <outline>
    <contour>
      <point x="378" y="222" type="line" smooth="yes"/>
      <point x="365" y="201"/>
      <point x="313" y="196"/>
      <point x="288" y="207" type="qcurve" smooth="yes"/>
      <point x="275" y="213"/>
      <point x="253" y="229"/>
      <point x="247.0" y="239.5" type="qcurve" smooth="yes" name="inserted"/>
      <point x="241" y="250"/>
      <point x="240" y="274"/>
      <point x="248" y="287" type="qcurve" smooth="yes"/>
      <point x="422" y="572" type="line"/>
      <point x="248" y="857" type="line" smooth="yes"/>
      <point x="240" y="870"/>
      <point x="241" y="894"/>
      <point x="247.0" y="904.5" type="qcurve" smooth="yes" name="inserted"/>
      <point x="253" y="915"/>
      <point x="275" y="931"/>
      <point x="288" y="937" type="qcurve" smooth="yes"/>
      <point x="313" y="948"/>
      <point x="365" y="943"/>
      <point x="378" y="922" type="qcurve" smooth="yes"/>
      <point x="576" y="596" type="line" smooth="yes"/>
      <point x="583.0" y="584.0" name="inserted"/>
      <point x="583.0" y="560.0"/>
      <point x="576" y="548" type="qcurve" smooth="yes"/>
    </contour>
    <contour>
      <point x="778" y="222" type="line" smooth="yes"/>
      <point x="765" y="201"/>
      <point x="713" y="196"/>
      <point x="688" y="207" type="qcurve" smooth="yes"/>
      <point x="675" y="213"/>
      <point x="653" y="229"/>
      <point x="647.0" y="239.5" type="qcurve" smooth="yes" name="inserted"/>
      <point x="641" y="250"/>
      <point x="640" y="274"/>
      <point x="648" y="287" type="qcurve" smooth="yes"/>
      <point x="822" y="572" type="line"/>
      <point x="648" y="857" type="line" smooth="yes"/>
      <point x="640" y="870"/>
      <point x="641" y="894"/>
      <point x="647.0" y="904.5" type="qcurve" smooth="yes" name="inserted"/>
      <point x="653" y="915"/>
      <point x="675" y="931"/>
      <point x="688" y="937" type="qcurve" smooth="yes"/>
      <point x="713" y="948"/>
      <point x="765" y="943"/>
      <point x="778" y="922" type="qcurve" smooth="yes"/>
      <point x="976" y="596" type="line" smooth="yes"/>
      <point x="983.0" y="584.0" name="inserted"/>
      <point x="983.0" y="560.0"/>
      <point x="976" y="548" type="qcurve" smooth="yes"/>
    </contour>
  </outline>
</glyph>
<glyph name="Ccedilla" format="1">
  <advance width="1228"/>
  <unicode hex="00C7"/>
  <outline>
    <contour>
      <point x="559" y="-17" type="line"/>
      <point x="457" y="-4"/>
      <point x="294" y="95"/>
      <point x="236.5" y="174.0" type="qcurve" smooth="yes" name="inserted"/>
      <point x="179" y="253"/>
      <point x="118" y="465"/>
      <point x="118" y="593" type="qcurve" smooth="yes"/>
      <point x="118" y="732"/>
      <point x="193" y="959"/>
      <point x="261.5" y="1040.0" type="qcurve" smooth="yes" name="inserted"/>
      <point x="330" y="1121"/>
      <point x="520" y="1209"/>
      <point x="634" y="1209" type="qcurve" smooth="yes"/>
      <point x="731" y="1209"/>
      <point x="875" y="1144"/>
      <point x="924" y="1086" type="qcurve"/>
      <point x="924" y="1144" type="line" smooth="yes"/>
      <point x="924" y="1179"/>
      <point x="957" y="1209"/>
      <point x="999" y="1209" type="qcurve" smooth="yes"/>
      <point x="1041" y="1209"/>
      <point x="1074" y="1179"/>
      <point x="1074" y="1144" type="qcurve" smooth="yes"/>
      <point x="1074" y="814" type="line" smooth="yes"/>
      <point x="1074" y="779"/>
      <point x="1041" y="749"/>
      <point x="999" y="749" type="qcurve" smooth="yes"/>
      <point x="957" y="749"/>
      <point x="924" y="779"/>
      <point x="924" y="814" type="qcurve" smooth="yes"/>
      <point x="924" y="863"/>
      <point x="891" y="953"/>
      <point x="856.5" y="987.0" type="qcurve" smooth="yes" name="inserted"/>
      <point x="822" y="1021"/>
      <point x="716" y="1061"/>
      <point x="644" y="1061" type="qcurve" smooth="yes"/>
      <point x="563" y="1061"/>
      <point x="427" y="996"/>
      <point x="378.5" y="935.0" type="qcurve" smooth="yes" name="inserted"/>
      <point x="330" y="874"/>
      <point x="276" y="701"/>
      <point x="276" y="593" type="qcurve" smooth="yes"/>
      <point x="276" y="485"/>
      <point x="327" y="312"/>
      <point x="373.5" y="251.5" type="qcurve" smooth="yes" name="inserted"/>
      <point x="420" y="191"/>
      <point x="553" y="126"/>
      <point x="634" y="126" type="qcurve" smooth="yes"/>
      <point x="734" y="126"/>
      <point x="913" y="183"/>
      <point x="985" y="239" type="qcurve" smooth="yes"/>
      <point x="1005" y="255"/>
      <point x="1053" y="251"/>
      <point x="1075" y="214" type="qcurve" smooth="yes"/>
      <point x="1096" y="179"/>
      <point x="1088" y="128"/>
      <point x="1062" y="109" type="qcurve" smooth="yes"/>
      <point x="979" y="51"/>
      <point x="793" y="-11"/>
      <point x="694" y="-19" type="qcurve"/>
      <point x="694" y="-113" type="line"/>
      <point x="746" y="-112"/>
      <point x="823" y="-138"/>
      <point x="848.5" y="-161.0" type="qcurve" smooth="yes" name="inserted"/>
      <point x="874" y="-184"/>
      <point x="900" y="-246"/>
      <point x="900" y="-281" type="qcurve" smooth="yes"/>
      <point x="900" y="-323"/>
      <point x="869" y="-393"/>
      <point x="838.0" y="-418.5" type="qcurve" smooth="yes" name="inserted"/>
      <point x="807" y="-444"/>
      <point x="714" y="-472"/>
      <point x="651" y="-472" type="qcurve" smooth="yes"/>
      <point x="584" y="-472"/>
      <point x="456" y="-448"/>
      <point x="404" y="-424" type="qcurve" smooth="yes"/>
      <point x="386" y="-416"/>
      <point x="381" y="-376"/>
      <point x="389" y="-356" type="qcurve" smooth="yes"/>
      <point x="397" y="-336"/>
      <point x="429" y="-310"/>
      <point x="448" y="-318" type="qcurve" smooth="yes"/>
      <point x="487" y="-333"/>
      <point x="590" y="-352"/>
      <point x="641" y="-352" type="qcurve" smooth="yes"/>
      <point x="691" y="-352"/>
      <point x="744" y="-317"/>
      <point x="744" y="-285" type="qcurve" smooth="yes"/>
      <point x="744" y="-243"/>
      <point x="668" y="-212"/>
      <point x="599" y="-217" type="qcurve"/>
      <point x="592" y="-217"/>
      <point x="578" y="-215"/>
      <point x="572.0" y="-210.5" type="qcurve" smooth="yes" name="inserted"/>
      <point x="566" y="-206"/>
      <point x="559" y="-189"/>
      <point x="559" y="-175" type="qcurve" smooth="yes"/>
    </contour>
  </outline>
</glyph>
<glyph name="Eth" format="1">
  <advance width="1228"/>
  <unicode hex="00D0"/>
  <outline>
    <contour>
      <point x="255" y="544" type="line"/>
      <point x="113" y="544" type="line" smooth="yes"/>
      <point x="79" y="544"/>
      <point x="50" y="574"/>
      <point x="50" y="612" type="qcurve" smooth="yes"/>
      <point x="50" y="650"/>
      <point x="79" y="680"/>
      <point x="113" y="680" type="qcurve" smooth="yes"/>
      <point x="255" y="680" type="line"/>
      <point x="255" y="1051" type="line"/>
      <point x="143" y="1051" type="line" smooth="yes"/>
      <point x="109" y="1051"/>
      <point x="80" y="1081"/>
      <point x="80" y="1119" type="qcurve" smooth="yes"/>
      <point x="80" y="1157"/>
      <point x="109" y="1187"/>
      <point x="143" y="1187" type="qcurve" smooth="yes"/>
      <point x="614" y="1187" type="line" smooth="yes"/>
      <point x="732" y="1187"/>
      <point x="926" y="1105"/>
      <point x="995.0" y="1028.5" type="qcurve" smooth="yes" name="inserted"/>
      <point x="1064" y="952"/>
      <point x="1140" y="732"/>
      <point x="1140" y="593" type="qcurve" smooth="yes"/>
      <point x="1140" y="454"/>
      <point x="1064" y="234"/>
      <point x="995.0" y="157.5" type="qcurve" smooth="yes" name="inserted"/>
      <point x="926" y="81"/>
      <point x="732" y="0"/>
      <point x="614" y="0" type="qcurve" smooth="yes"/>
      <point x="143" y="0" type="line" smooth="yes"/>
      <point x="109" y="0"/>
      <point x="80" y="30"/>
      <point x="80" y="68" type="qcurve" smooth="yes"/>
      <point x="80" y="106"/>
      <point x="109" y="136"/>
      <point x="143" y="136" type="qcurve" smooth="yes"/>
      <point x="255" y="136" type="line"/>
    </contour>
    <contour>
      <point x="591" y="136" type="line" smooth="yes"/>
      <point x="680" y="136"/>
      <point x="824" y="195"/>
      <point x="875.0" y="252.5" type="qcurve" smooth="yes" name="inserted"/>
      <point x="926" y="310"/>
      <point x="982" y="481"/>
      <point x="982" y="593" type="qcurve" smooth="yes"/>
      <point x="982" y="705"/>
      <point x="926" y="876"/>
      <point x="875.0" y="934.0" type="qcurve" smooth="yes" name="inserted"/>
      <point x="824" y="992"/>
      <point x="680" y="1051"/>
      <point x="591" y="1051" type="qcurve" smooth="yes"/>
      <point x="405" y="1051" type="line"/>
      <point x="405" y="680" type="line"/>
      <point x="595" y="680" type="line" smooth="yes"/>
      <point x="629" y="680"/>
      <point x="658" y="650"/>
      <point x="658" y="612" type="qcurve" smooth="yes"/>
      <point x="658" y="574"/>
      <point x="629" y="544"/>
      <point x="595" y="544" type="qcurve" smooth="yes"/>
      <point x="405" y="544" type="line"/>
      <point x="405" y="136" type="line"/>
    </contour>
  </outline>
</glyph>
<glyph name="multiply" format="1">
  <advance width="1228"/>
  <unicode hex="00D7"/>
  <outline>
    <contour>
      <point x="614" y="678" type="line"/>
      <point x="875" y="939" type="line" smooth="yes"/>
      <point x="899" y="963"/>
      <point x="942" y="962"/>
      <point x="968" y="936" type="qcurve" smooth="yes"/>
      <point x="994" y="910"/>
      <point x="995" y="867"/>
      <point x="971" y="843" type="qcurve" smooth="yes"/>
      <point x="710" y="582" type="line"/>
      <point x="971" y="321" type="line" smooth="yes"/>
      <point x="995" y="297"/>
      <point x="994" y="254"/>
      <point x="968" y="228" type="qcurve" smooth="yes"/>
      <point x="942" y="202"/>
      <point x="899" y="201"/>
      <point x="875" y="225" type="qcurve" smooth="yes"/>
      <point x="614" y="486" type="line"/>
      <point x="353" y="225" type="line" smooth="yes"/>
      <point x="329" y="201"/>
      <point x="286" y="202"/>
      <point x="260" y="228" type="qcurve" smooth="yes"/>
      <point x="234" y="254"/>
      <point x="233" y="297"/>
      <point x="257" y="321" type="qcurve" smooth="yes"/>
      <point x="518" y="582" type="line"/>
      <point x="257" y="843" type="line" smooth="yes"/>
      <point x="233" y="867"/>
      <point x="234" y="910"/>
      <point x="260" y="936" type="qcurve" smooth="yes"/>
      <point x="286" y="962"/>
      <point x="329" y="963"/>
      <point x="353" y="939" type="qcurve" smooth="yes"/>
    </contour>
  </outline>
</glyph>
<glyph name="Oslash" format="1">
  <advance width="1228"/>
  <unicode hex="00D8"/>
  <outline>
    <contour>
      <point x="88" y="593" type="qcurve" smooth="yes"/>
      <point x="88" y="732"/>
      <point x="164" y="959"/>
      <point x="233.0" y="1040.0" type="qcurve" smooth="yes" name="inserted"/>
      <point x="302" y="1121"/>
      <point x="496" y="1209"/>
      <point x="614" y="1209" type="qcurve" smooth="yes"/>
      <point x="696" y="1209"/>
      <point x="839" y="1166"/>
      <point x="899" y="1126" type="qcurve"/>
      <point x="936" y="1179" type="line" smooth="yes"/>
      <point x="956" y="1208"/>
      <point x="1001" y="1213"/>
      <point x="1031" y="1192" type="qcurve" smooth="yes"/>
      <point x="1061" y="1171"/>
      <point x="1071" y="1127"/>
      <point x="1051" y="1099" type="qcurve" smooth="yes"/>
      <point x="1003" y="1030" type="line"/>
      <point x="1069" y="949"/>
      <point x="1140" y="728"/>
      <point x="1140" y="593" type="qcurve" smooth="yes"/>
      <point x="1140" y="454"/>
      <point x="1064" y="227"/>
      <point x="995.0" y="146.5" type="qcurve" smooth="yes" name="inserted"/>
      <point x="926" y="66"/>
      <point x="732" y="-22"/>
      <point x="614" y="-22" type="qcurve" smooth="yes"/>
      <point x="531" y="-22"/>
      <point x="388" y="20"/>
      <point x="328" y="61" type="qcurve"/>
      <point x="292" y="10" type="line" smooth="yes"/>
      <point x="272" y="-19"/>
      <point x="228" y="-24"/>
      <point x="198" y="-3" type="qcurve" smooth="yes"/>
      <point x="167" y="18"/>
      <point x="157" y="61"/>
      <point x="177" y="90" type="qcurve" smooth="yes"/>
      <point x="224" y="157" type="line"/>
      <point x="158" y="238"/>
      <point x="88" y="458"/>
    </contour>
    <contour>
      <point x="982" y="593" type="qcurve" smooth="yes"/>
      <point x="982" y="685"/>
      <point x="944" y="836"/>
      <point x="909" y="895" type="qcurve"/>
      <point x="415" y="186" type="line"/>
      <point x="457" y="157"/>
      <point x="557" y="126"/>
      <point x="614" y="126" type="qcurve" smooth="yes"/>
      <point x="697" y="126"/>
      <point x="833" y="191"/>
      <point x="881.0" y="251.5" type="qcurve" smooth="yes" name="inserted"/>
      <point x="929" y="312"/>
      <point x="982" y="485"/>
    </contour>
    <contour>
      <point x="246" y="593" type="qcurve" smooth="yes"/>
      <point x="246.0" y="502.0" name="inserted"/>
      <point x="282.0" y="351.5"/>
      <point x="318" y="292" type="qcurve"/>
      <point x="812" y="1001" type="line"/>
      <point x="769.0" y="1031.0" name="inserted"/>
      <point x="670.0" y="1061.0"/>
      <point x="614" y="1061" type="qcurve" smooth="yes"/>
      <point x="531" y="1061"/>
      <point x="395" y="996"/>
      <point x="347.0" y="935.0" type="qcurve" smooth="yes" name="inserted"/>
      <point x="299" y="874"/>
      <point x="246" y="701"/>
    </contour>
  </outline>
</glyph>
<glyph name="eth" format="1">
  <advance width="1228"/>
  <unicode hex="00F0"/>
  <outline>
    <contour>
      <point x="505" y="1130" type="line"/>
      <point x="476" y="1147"/>
      <point x="415" y="1179"/>
      <point x="383" y="1195" type="qcurve" smooth="yes"/>
      <point x="352" y="1210"/>
      <point x="343" y="1254"/>
      <point x="360" y="1287" type="qcurve" smooth="yes"/>
      <point x="377.0" y="1319.5" name="inserted"/>
      <point x="423.5" y="1337.5"/>
      <point x="453" y="1323" type="qcurve" smooth="yes"/>
      <point x="512" y="1294"/>
      <point x="622" y="1230"/>
      <point x="674" y="1193" type="qcurve"/>
      <point x="911" y="1282" type="line" smooth="yes"/>
      <point x="943" y="1294"/>
      <point x="980" y="1275"/>
      <point x="994" y="1240" type="qcurve" smooth="yes"/>
      <point x="1008" y="1205"/>
      <point x="991" y="1166"/>
      <point x="959" y="1154" type="qcurve" smooth="yes"/>
      <point x="798" y="1094" type="line"/>
      <point x="864" y="1034"/>
      <point x="971" y="893"/>
      <point x="1009.0" y="811.0" type="qcurve" smooth="yes" name="inserted"/>
      <point x="1047" y="729"/>
      <point x="1088" y="540"/>
      <point x="1088" y="432" type="qcurve" smooth="yes"/>
      <point x="1088" y="330"/>
      <point x="1016" y="163"/>
      <point x="953.0" y="103.0" type="qcurve" smooth="yes" name="inserted"/>
      <point x="890" y="43"/>
      <point x="716" y="-22"/>
      <point x="614" y="-22" type="qcurve" smooth="yes"/>
      <point x="512" y="-22"/>
      <point x="338" y="43"/>
      <point x="275.0" y="103.0" type="qcurve" smooth="yes" name="inserted"/>
      <point x="212" y="163"/>
      <point x="140" y="330"/>
      <point x="140" y="432" type="qcurve" smooth="yes"/>
      <point x="140" y="534"/>
      <point x="212" y="701"/>
      <point x="275.0" y="761.0" type="qcurve" smooth="yes" name="inserted"/>
      <point x="338" y="821"/>
      <point x="512" y="886"/>
      <point x="614" y="886" type="qcurve" smooth="yes"/>
      <point x="682" y="886"/>
      <point x="800" y="842"/>
      <point x="852" y="809" type="qcurve"/>
      <point x="812" y="874"/>
      <point x="707" y="986"/>
      <point x="644" y="1036" type="qcurve"/>
      <point x="404" y="946" type="line" smooth="yes"/>
      <point x="372" y="934"/>
      <point x="335" y="953"/>
      <point x="321" y="988" type="qcurve" smooth="yes"/>
      <point x="307" y="1023"/>
      <point x="324" y="1062"/>
      <point x="356" y="1074" type="qcurve" smooth="yes"/>
    </contour>
    <contour>
      <point x="298" y="432" type="qcurve" smooth="yes"/>
      <point x="298" y="363"/>
      <point x="343" y="250"/>
      <point x="384.5" y="210.0" type="qcurve" smooth="yes" name="inserted"/>
      <point x="426" y="170"/>
      <point x="543" y="126"/>
      <point x="614" y="126" type="qcurve" smooth="yes"/>
      <point x="685" y="126"/>
      <point x="802" y="170"/>
      <point x="843.5" y="210.0" type="qcurve" smooth="yes" name="inserted"/>
      <point x="885" y="250"/>
      <point x="930" y="363"/>
      <point x="930" y="432" type="qcurve" smooth="yes"/>
      <point x="930" y="501"/>
      <point x="885" y="614"/>
      <point x="843.5" y="654.0" type="qcurve" smooth="yes" name="inserted"/>
      <point x="802" y="694"/>
      <point x="685" y="738"/>
      <point x="614" y="738" type="qcurve" smooth="yes"/>
      <point x="543" y="738"/>
      <point x="426" y="694"/>
      <point x="384.5" y="654.0" type="qcurve" smooth="yes" name="inserted"/>
      <point x="343" y="614"/>
      <point x="298" y="501"/>
    </contour>
  </outline>
</glyph>
<glyph name="oslash" format="1">
  <advance width="1228"/>
  <unicode hex="00F8"/>
  <outline>
    <contour>
      <point x="120" y="462" type="qcurve" smooth="yes"/>
      <point x="120" y="568"/>
      <point x="195" y="745"/>
      <point x="261.0" y="809.5" type="qcurve" smooth="yes" name="inserted"/>
      <point x="327" y="874"/>
      <point x="508" y="946"/>
      <point x="614" y="946" type="qcurve" smooth="yes"/>
      <point x="702" y="946"/>
      <point x="855" y="896"/>
      <point x="917" y="851" type="qcurve"/>
      <point x="992" y="923" type="line" smooth="yes"/>
      <point x="1017" y="947"/>
      <point x="1062" y="944"/>
      <point x="1088" y="918" type="qcurve" smooth="yes"/>
      <point x="1114" y="892"/>
      <point x="1115" y="846"/>
      <point x="1089" y="822" type="qcurve" smooth="yes"/>
      <point x="1016" y="752" type="line"/>
      <point x="1060" y="692"/>
      <point x="1108" y="547"/>
      <point x="1108" y="462" type="qcurve" smooth="yes"/>
      <point x="1108" y="356"/>
      <point x="1033" y="179"/>
      <point x="967.0" y="114.5" type="qcurve" smooth="yes" name="inserted"/>
      <point x="901" y="50"/>
      <point x="720" y="-22"/>
      <point x="614" y="-22" type="qcurve" smooth="yes"/>
      <point x="526" y="-22"/>
      <point x="372" y="27"/>
      <point x="310" y="73" type="qcurve"/>
      <point x="235" y="1" type="line" smooth="yes"/>
      <point x="210" y="-23"/>
      <point x="166" y="-20"/>
      <point x="140" y="6" type="qcurve" smooth="yes"/>
      <point x="114" y="32"/>
      <point x="113" y="77"/>
      <point x="138" y="101" type="qcurve" smooth="yes"/>
      <point x="211" y="171" type="line"/>
      <point x="167" y="231"/>
      <point x="120" y="377"/>
    </contour>
    <contour>
      <point x="950" y="462" type="qcurve" smooth="yes"/>
      <point x="950" y="513"/>
      <point x="926" y="604"/>
      <point x="903" y="643" type="qcurve"/>
      <point x="421" y="180" type="line"/>
      <point x="461" y="154"/>
      <point x="557" y="126"/>
      <point x="614" y="126" type="qcurve" smooth="yes"/>
      <point x="689" y="126"/>
      <point x="813" y="176"/>
      <point x="857.0" y="221.0" type="qcurve" smooth="yes" name="inserted"/>
      <point x="901" y="266"/>
      <point x="950" y="389"/>
    </contour>
    <contour>
      <point x="278" y="462" type="qcurve" smooth="yes"/>
      <point x="278" y="410"/>
      <point x="302" y="319"/>
      <point x="325" y="281" type="qcurve"/>
      <point x="806" y="744" type="line"/>
      <point x="766" y="770"/>
      <point x="670" y="798"/>
      <point x="614" y="798" type="qcurve" smooth="yes"/>
      <point x="539" y="798"/>
      <point x="415" y="748"/>
      <point x="371.0" y="703.0" type="qcurve" smooth="yes" name="inserted"/>
      <point x="327" y="658"/>
      <point x="278" y="535"/>
    </contour>
  </outline>
</glyph>
<glyph name="thorn" format="1">
  <advance width="1228"/>
  <unicode hex="00FE"/>
  <outline>
    <contour>
      <point x="202" y="1176" type="line"/>
      <point x="120" y="1176" type="line" smooth="yes"/>
      <point x="86" y="1176"/>
      <point x="57" y="1206"/>
      <point x="57" y="1244" type="qcurve" smooth="yes"/>
      <point x="57" y="1282"/>
      <point x="86" y="1312"/>
      <point x="120" y="1312" type="qcurve" smooth="yes"/>
      <point x="289" y="1312" type="line" smooth="yes"/>
      <point x="323" y="1312"/>
      <point x="352" y="1282"/>
      <point x="352" y="1244" type="qcurve" smooth="yes"/>
      <point x="352" y="793" type="line"/>
      <point x="413" y="867"/>
      <point x="572" y="946"/>
      <point x="669" y="946" type="qcurve" smooth="yes"/>
      <point x="762" y="946"/>
      <point x="920" y="883"/>
      <point x="977.5" y="824.0" type="qcurve" smooth="yes" name="inserted"/>
      <point x="1035" y="765"/>
      <point x="1101" y="595"/>
      <point x="1101" y="487" type="qcurve" smooth="yes"/>
      <point x="1101" y="379"/>
      <point x="1035" y="209"/>
      <point x="977.5" y="150.0" type="qcurve" smooth="yes" name="inserted"/>
      <point x="920" y="91"/>
      <point x="762" y="28"/>
      <point x="669" y="28" type="qcurve" smooth="yes"/>
      <point x="569" y="28"/>
      <point x="412" y="109"/>
      <point x="352" y="184" type="qcurve"/>
      <point x="352" y="-257" type="line"/>
      <point x="574" y="-257" type="line" smooth="yes"/>
      <point x="608" y="-257"/>
      <point x="637" y="-287"/>
      <point x="637" y="-325" type="qcurve" smooth="yes"/>
      <point x="637" y="-363"/>
      <point x="608" y="-393"/>
      <point x="574" y="-393" type="qcurve" smooth="yes"/>
      <point x="90" y="-393" type="line" smooth="yes"/>
      <point x="56" y="-393"/>
      <point x="27" y="-363"/>
      <point x="27" y="-325" type="qcurve" smooth="yes"/>
      <point x="27" y="-287"/>
      <point x="56" y="-257"/>
      <point x="90" y="-257" type="qcurve" smooth="yes"/>
      <point x="202" y="-257" type="line"/>
    </contour>
    <contour>
      <point x="352" y="487" type="qcurve" smooth="yes"/>
      <point x="352" y="413"/>
      <point x="398" y="297"/>
      <point x="439.0" y="257.5" type="qcurve" smooth="yes" name="inserted"/>
      <point x="480" y="218"/>
      <point x="593" y="176"/>
      <point x="659" y="176" type="qcurve" smooth="yes"/>
      <point x="727" y="176"/>
      <point x="833" y="222"/>
      <point x="869.0" y="263.5" type="qcurve" smooth="yes" name="inserted"/>
      <point x="905" y="305"/>
      <point x="943" y="419"/>
      <point x="943" y="487" type="qcurve" smooth="yes"/>
      <point x="943" y="555"/>
      <point x="905" y="669"/>
      <point x="869.0" y="710.5" type="qcurve" smooth="yes" name="inserted"/>
      <point x="833" y="752"/>
      <point x="727" y="798"/>
      <point x="659" y="798" type="qcurve" smooth="yes"/>
      <point x="593" y="798"/>
      <point x="480" y="756"/>
      <point x="439.0" y="716.5" type="qcurve" smooth="yes" name="inserted"/>
      <point x="398" y="677"/>
      <point x="352" y="561"/>
    </contour>
  </outline>
</glyph>
<glyph name="Aogonek" format="1">
  <advance width="1228"/>
  <unicode hex="0104"/>
  <outline>
    <contour>
      <point x="407" y="136" type="line" smooth="yes"/>
      <point x="441" y="136"/>
      <point x="470" y="106"/>
      <point x="470" y="68" type="qcurve" smooth="yes"/>
      <point x="470" y="30"/>
      <point x="441" y="0"/>
      <point x="407" y="0" type="qcurve" smooth="yes"/>
      <point x="73" y="0" type="line" smooth="yes"/>
      <point x="39" y="0"/>
      <point x="10" y="30"/>
      <point x="10" y="68" type="qcurve" smooth="yes"/>
      <point x="10" y="106"/>
      <point x="39" y="136"/>
      <point x="73" y="136" type="qcurve" smooth="yes"/>
      <point x="129" y="136" type="line"/>
      <point x="460" y="1051" type="line"/>
      <point x="273" y="1051" type="line" smooth="yes"/>
      <point x="239" y="1051"/>
      <point x="210" y="1081"/>
      <point x="210" y="1119" type="qcurve" smooth="yes"/>
      <point x="210" y="1157"/>
      <point x="239" y="1187"/>
      <point x="273" y="1187" type="qcurve" smooth="yes"/>
      <point x="640" y="1187" type="line" smooth="yes"/>
      <point x="680" y="1187"/>
      <point x="729" y="1157"/>
      <point x="741" y="1122" type="qcurve" smooth="yes"/>
      <point x="1094" y="136" type="line"/>
      <point x="1155" y="136" type="line" smooth="yes"/>
      <point x="1189" y="136"/>
      <point x="1218" y="106"/>
      <point x="1218" y="68" type="qcurve" smooth="yes"/>
      <point x="1218" y="30"/>
      <point x="1189" y="0"/>
      <point x="1155" y="0" type="qcurve" smooth="yes"/>
      <point x="1093" y="0" type="line"/>
      <point x="1004" y="-83"/>
      <point x="927" y="-206"/>
      <point x="927" y="-261" type="qcurve" smooth="yes"/>
      <point x="927" y="-298"/>
      <point x="970" y="-336"/>
      <point x="1004" y="-336" type="qcurve" smooth="yes"/>
      <point x="1033" y="-336"/>
      <point x="1091" y="-331"/>
      <point x="1117" y="-326" type="qcurve" smooth="yes"/>
      <point x="1137" y="-323"/>
      <point x="1163" y="-346"/>
      <point x="1167" y="-374" type="qcurve" smooth="yes"/>
      <point x="1172" y="-405"/>
      <point x="1157" y="-438"/>
      <point x="1135" y="-446" type="qcurve" smooth="yes"/>
      <point x="1100" y="-458"/>
      <point x="1018" y="-472"/>
      <point x="971" y="-472" type="qcurve" smooth="yes"/>
      <point x="877" y="-472"/>
      <point x="771" y="-369"/>
      <point x="771" y="-281" type="qcurve" smooth="yes"/>
      <point x="771" y="-204"/>
      <point x="860" y="-66"/>
      <point x="935" y="0" type="qcurve"/>
      <point x="801" y="0" type="line" smooth="yes"/>
      <point x="767" y="0"/>
      <point x="738" y="30"/>
      <point x="738" y="68" type="qcurve" smooth="yes"/>
      <point x="738" y="106"/>
      <point x="767" y="136"/>
      <point x="801" y="136" type="qcurve" smooth="yes"/>
      <point x="936" y="136" type="line"/>
      <point x="854" y="374" type="line"/>
      <point x="369" y="374" type="line"/>
      <point x="286" y="136" type="line"/>
    </contour>
    <contour>
      <point x="416" y="510" type="line"/>
      <point x="808" y="510" type="line"/>
      <point x="622" y="1051" type="line"/>
      <point x="603" y="1051" type="line"/>
    </contour>
  </outline>
</glyph>
<glyph name="dcaron" format="1">
  <advance width="1228"/>
  <unicode hex="010F"/>
  <outline>
    <contour>
      <point x="1008" y="136" type="line" smooth="yes"/>
      <point x="1042" y="136"/>
      <point x="1071" y="106"/>
      <point x="1071" y="68" type="qcurve" smooth="yes"/>
      <point x="1071" y="30"/>
      <point x="1042" y="0"/>
      <point x="1008" y="0" type="qcurve" smooth="yes"/>
      <point x="849" y="0" type="line" smooth="yes"/>
      <point x="815" y="0"/>
      <point x="786" y="30"/>
      <point x="786" y="68" type="qcurve" smooth="yes"/>
      <point x="786" y="138" type="line"/>
      <point x="741" y="67"/>
      <point x="606" y="-22"/>
      <point x="509" y="-22" type="qcurve" smooth="yes"/>
      <point x="428" y="-22"/>
      <point x="288" y="41"/>
      <point x="236.5" y="100.0" type="qcurve" smooth="yes" name="inserted"/>
      <point x="185" y="159"/>
      <point x="127" y="329"/>
      <point x="127" y="437" type="qcurve" smooth="yes"/>
      <point x="127" y="545"/>
      <point x="185" y="715"/>
      <point x="236.5" y="774.0" type="qcurve" smooth="yes" name="inserted"/>
      <point x="288" y="833"/>
      <point x="428" y="896"/>
      <point x="509" y="896" type="qcurve" smooth="yes"/>
      <point x="600" y="896"/>
      <point x="731" y="821"/>
      <point x="776" y="755" type="qcurve"/>
      <point x="776" y="1176" type="line"/>
      <point x="594" y="1176" type="line" smooth="yes"/>
      <point x="560" y="1176"/>
      <point x="531" y="1206"/>
      <point x="531" y="1244" type="qcurve" smooth="yes"/>
      <point x="531" y="1282"/>
      <point x="560" y="1312"/>
      <point x="594" y="1312" type="qcurve" smooth="yes"/>
      <point x="863" y="1312" type="line" smooth="yes"/>
      <point x="897" y="1312"/>
      <point x="926" y="1282"/>
      <point x="926" y="1244" type="qcurve" smooth="yes"/>
      <point x="926" y="136" type="line"/>
    </contour>
    <contour>
      <point x="776" y="437" type="qcurve" smooth="yes"/>
      <point x="776" y="511"/>
      <point x="740" y="627"/>
      <point x="706.5" y="666.5" type="qcurve" smooth="yes" name="inserted"/>
      <point x="673" y="706"/>
      <point x="578" y="748"/>
      <point x="519" y="748" type="qcurve" smooth="yes"/>
      <point x="462" y="748"/>
      <point x="375" y="702"/>
      <point x="345.5" y="660.5" type="qcurve" smooth="yes" name="inserted"/>
      <point x="316" y="619"/>
      <point x="285" y="505"/>
      <point x="285" y="437" type="qcurve" smooth="yes"/>
      <point x="285" y="369"/>
      <point x="316" y="255"/>
      <point x="345.5" y="213.5" type="qcurve" smooth="yes" name="inserted"/>
      <point x="375" y="172"/>
      <point x="462" y="126"/>
      <point x="519" y="126" type="qcurve" smooth="yes"/>
      <point x="578" y="126"/>
      <point x="673" y="168"/>
      <point x="706.5" y="207.5" type="qcurve" smooth="yes" name="inserted"/>
      <point x="740" y="247"/>
      <point x="776" y="363"/>
    </contour>
    <contour>
      <point x="1169" y="897" type="line" smooth="yes"/>
      <point x="1160.5" y="879.5" name="inserted"/>
      <point x="1131.0" y="862.0"/>
      <point x="1110" y="862" type="qcurve" smooth="yes"/>
      <point x="1082" y="862"/>
      <point x="1053" y="892"/>
      <point x="1059" y="918" type="qcurve" smooth="yes"/>
      <point x="1141" y="1280" type="line" smooth="yes"/>
      <point x="1145.0" y="1296.0" name="inserted"/>
      <point x="1166.0" y="1312.0"/>
      <point x="1183" y="1312" type="qcurve" smooth="yes"/>
      <point x="1325" y="1312" type="line" smooth="yes"/>
      <point x="1345" y="1312"/>
      <point x="1358" y="1283"/>
      <point x="1347" y="1261" type="qcurve" smooth="yes"/>
    </contour>
  </outline>
</glyph>
<glyph name="Hbar" format="1">
  <advance width="1228"/>
  <unicode hex="0126"/>
  <outline>
    <contour>
      <point x="215" y="788" type="line"/>
      <point x="93" y="788" type="line" smooth="yes"/>
      <point x="59" y="788"/>
      <point x="30" y="818"/>
      <point x="30" y="856" type="qcurve" smooth="yes"/>
      <point x="30" y="894"/>
      <point x="59" y="924"/>
      <point x="93" y="924" type="qcurve" smooth="yes"/>
      <point x="215" y="924" type="line"/>
      <point x="215" y="1051" type="line"/>
      <point x="143" y="1051" type="line" smooth="yes"/>
      <point x="109" y="1051"/>
      <point x="80" y="1081"/>
      <point x="80" y="1119" type="qcurve" smooth="yes"/>
      <point x="80" y="1157"/>
      <point x="109" y="1187"/>
      <point x="143" y="1187" type="qcurve" smooth="yes"/>
      <point x="457" y="1187" type="line" smooth="yes"/>
      <point x="491" y="1187"/>
      <point x="520" y="1157"/>
      <point x="520" y="1119" type="qcurve" smooth="yes"/>
      <point x="520" y="1081"/>
      <point x="491" y="1051"/>
      <point x="457" y="1051" type="qcurve" smooth="yes"/>
      <point x="365" y="1051" type="line"/>
      <point x="365" y="924" type="line"/>
      <point x="863" y="924" type="line"/>
      <point x="863" y="1051" type="line"/>
      <point x="771" y="1051" type="line" smooth="yes"/>
      <point x="737" y="1051"/>
      <point x="708" y="1081"/>
      <point x="708" y="1119" type="qcurve" smooth="yes"/>
      <point x="708" y="1157"/>
      <point x="737" y="1187"/>
      <point x="771" y="1187" type="qcurve" smooth="yes"/>
      <point x="1085" y="1187" type="line" smooth="yes"/>
      <point x="1119" y="1187"/>
      <point x="1148" y="1157"/>
      <point x="1148" y="1119" type="qcurve" smooth="yes"/>
      <point x="1148" y="1081"/>
      <point x="1119" y="1051"/>
      <point x="1085" y="1051" type="qcurve" smooth="yes"/>
      <point x="1013" y="1051" type="line"/>
      <point x="1013" y="924" type="line"/>
      <point x="1135" y="924" type="line" smooth="yes"/>
      <point x="1169" y="924"/>
      <point x="1198" y="894"/>
      <point x="1198" y="856" type="qcurve" smooth="yes"/>
      <point x="1198" y="818"/>
      <point x="1169" y="788"/>
      <point x="1135" y="788" type="qcurve" smooth="yes"/>
      <point x="1013" y="788" type="line"/>
      <point x="1013" y="136" type="line"/>
      <point x="1085" y="136" type="line" smooth="yes"/>
      <point x="1119" y="136"/>
      <point x="1148" y="106"/>
      <point x="1148" y="68" type="qcurve" smooth="yes"/>
      <point x="1148" y="30"/>
      <point x="1119" y="0"/>
      <point x="1085" y="0" type="qcurve" smooth="yes"/>
      <point x="771" y="0" type="line" smooth="yes"/>
      <point x="737" y="0"/>
      <point x="708" y="30"/>
      <point x="708" y="68" type="qcurve" smooth="yes"/>
      <point x="708" y="106"/>
      <point x="737" y="136"/>
      <point x="771" y="136" type="qcurve" smooth="yes"/>
      <point x="863" y="136" type="line"/>
      <point x="863" y="544" type="line"/>
      <point x="365" y="544" type="line"/>
      <point x="365" y="136" type="line"/>
      <point x="457" y="136" type="line" smooth="yes"/>
      <point x="491" y="136"/>
      <point x="520" y="106"/>
      <point x="520" y="68" type="qcurve" smooth="yes"/>
      <point x="520" y="30"/>
      <point x="491" y="0"/>
      <point x="457" y="0" type="qcurve" smooth="yes"/>
      <point x="143" y="0" type="line" smooth="yes"/>
      <point x="109" y="0"/>
      <point x="80" y="30"/>
      <point x="80" y="68" type="qcurve" smooth="yes"/>
      <point x="80" y="106"/>
      <point x="109" y="136"/>
      <point x="143" y="136" type="qcurve" smooth="yes"/>
      <point x="215" y="136" type="line"/>
    </contour>
    <contour>
      <point x="863" y="680" type="line"/>
      <point x="863" y="788" type="line"/>
      <point x="365" y="788" type="line"/>
      <point x="365" y="680" type="line"/>
    </contour>
  </outline>
</glyph>
<glyph name="hbar" format="1">
  <advance width="1228"/>
  <unicode hex="0127"/>
  <outline>
    <contour>
      <point x="232" y="1126" type="line"/>
      <point x="232" y="1176" type="line"/>
      <point x="140" y="1176" type="line" smooth="yes"/>
      <point x="106" y="1176"/>
      <point x="77" y="1206"/>
      <point x="77" y="1244" type="qcurve" smooth="yes"/>
      <point x="77" y="1282"/>
      <point x="106" y="1312"/>
      <point x="140" y="1312" type="qcurve" smooth="yes"/>
      <point x="319" y="1312" type="line" smooth="yes"/>
      <point x="353" y="1312"/>
      <point x="382" y="1282"/>
      <point x="382" y="1244" type="qcurve" smooth="yes"/>
      <point x="382" y="1126" type="line"/>
      <point x="645" y="1126" type="line" smooth="yes"/>
      <point x="679" y="1126"/>
      <point x="708" y="1096"/>
      <point x="708" y="1058" type="qcurve" smooth="yes"/>
      <point x="708" y="1020"/>
      <point x="679" y="990"/>
      <point x="645" y="990" type="qcurve" smooth="yes"/>
      <point x="382" y="990" type="line"/>
      <point x="382" y="746" type="line"/>
      <point x="447" y="843"/>
      <point x="617" y="946"/>
      <point x="717" y="946" type="qcurve" smooth="yes"/>
      <point x="786" y="946"/>
      <point x="896" y="900"/>
      <point x="934.5" y="858.0" type="qcurve" smooth="yes" name="inserted"/>
      <point x="973" y="816"/>
      <point x="1014" y="695"/>
      <point x="1014" y="620" type="qcurve" smooth="yes"/>
      <point x="1014" y="136" type="line"/>
      <point x="1096" y="136" type="line" smooth="yes"/>
      <point x="1130" y="136"/>
      <point x="1159" y="106"/>
      <point x="1159" y="68" type="qcurve" smooth="yes"/>
      <point x="1159" y="30"/>
      <point x="1130" y="0"/>
      <point x="1096" y="0" type="qcurve" smooth="yes"/>
      <point x="772" y="0" type="line" smooth="yes"/>
      <point x="738" y="0"/>
      <point x="709" y="30"/>
      <point x="709" y="68" type="qcurve" smooth="yes"/>
      <point x="709" y="106"/>
      <point x="738" y="136"/>
      <point x="772" y="136" type="qcurve" smooth="yes"/>
      <point x="864" y="136" type="line"/>
      <point x="864" y="605" type="line" smooth="yes"/>
      <point x="864" y="648"/>
      <point x="844" y="719"/>
      <point x="824.0" y="744.5" type="qcurve" smooth="yes" name="inserted"/>
      <point x="804" y="770"/>
      <point x="743" y="798"/>
      <point x="702" y="798" type="qcurve" smooth="yes"/>
      <point x="638" y="798"/>
      <point x="522" y="742"/>
      <point x="478.0" y="692.0" type="qcurve" smooth="yes" name="inserted"/>
      <point x="434" y="642"/>
      <point x="382" y="504"/>
      <point x="382" y="422" type="qcurve" smooth="yes"/>
      <point x="382" y="136" type="line"/>
      <point x="474" y="136" type="line" smooth="yes"/>
      <point x="508" y="136"/>
      <point x="537" y="106"/>
      <point x="537" y="68" type="qcurve" smooth="yes"/>
      <point x="537" y="30"/>
      <point x="508" y="0"/>
      <point x="474" y="0" type="qcurve" smooth="yes"/>
      <point x="150" y="0" type="line" smooth="yes"/>
      <point x="116" y="0"/>
      <point x="87" y="30"/>
      <point x="87" y="68" type="qcurve" smooth="yes"/>
      <point x="87" y="106"/>
      <point x="116" y="136"/>
      <point x="150" y="136" type="qcurve" smooth="yes"/>
      <point x="232" y="136" type="line"/>
      <point x="232" y="990" type="line"/>
      <point x="83" y="990" type="line" smooth="yes"/>
      <point x="49" y="990"/>
      <point x="20" y="1020"/>
      <point x="20" y="1058" type="qcurve" smooth="yes"/>
      <point x="20" y="1096"/>
      <point x="49" y="1126"/>
      <point x="83" y="1126" type="qcurve" smooth="yes"/>
    </contour>
  </outline>
</glyph>
<glyph name="Iogonek" format="1">
  <advance width="1228"/>
  <unicode hex="012E"/>
  <outline>
    <contour>
      <point x="539" y="1051" type="line"/>
      <point x="283" y="1051" type="line" smooth="yes"/>
      <point x="249" y="1051"/>
      <point x="220" y="1081"/>
      <point x="220" y="1119" type="qcurve" smooth="yes"/>
      <point x="220" y="1157"/>
      <point x="249" y="1187"/>
      <point x="283" y="1187" type="qcurve" smooth="yes"/>
      <point x="945" y="1187" type="line" smooth="yes"/>
      <point x="979" y="1187"/>
      <point x="1008" y="1157"/>
      <point x="1008" y="1119" type="qcurve" smooth="yes"/>
      <point x="1008" y="1081"/>
      <point x="979" y="1051"/>
      <point x="945" y="1051" type="qcurve" smooth="yes"/>
      <point x="689" y="1051" type="line"/>
      <point x="689" y="136" type="line"/>
      <point x="965" y="136" type="line" smooth="yes"/>
      <point x="999" y="136"/>
      <point x="1028" y="106"/>
      <point x="1028" y="68" type="qcurve" smooth="yes"/>
      <point x="1028" y="30"/>
      <point x="999" y="0"/>
      <point x="965" y="0" type="qcurve" smooth="yes"/>
      <point x="693" y="0" type="line"/>
      <point x="604" y="-83"/>
      <point x="527" y="-206"/>
      <point x="527" y="-261" type="qcurve" smooth="yes"/>
      <point x="527" y="-298"/>
      <point x="570" y="-336"/>
      <point x="604" y="-336" type="qcurve" smooth="yes"/>
      <point x="633" y="-336"/>
      <point x="691" y="-331"/>
      <point x="717" y="-326" type="qcurve" smooth="yes"/>
      <point x="737" y="-323"/>
      <point x="763" y="-346"/>
      <point x="767" y="-374" type="qcurve" smooth="yes"/>
      <point x="772" y="-405"/>
      <point x="757" y="-438"/>
      <point x="735" y="-446" type="qcurve" smooth="yes"/>
      <point x="700" y="-458"/>
      <point x="618" y="-472"/>
      <point x="571" y="-472" type="qcurve" smooth="yes"/>
      <point x="477" y="-472"/>
      <point x="371" y="-369"/>
      <point x="371" y="-281" type="qcurve" smooth="yes"/>
      <point x="371" y="-204"/>
      <point x="460" y="-66"/>
      <point x="535" y="0" type="qcurve"/>
      <point x="263" y="0" type="line" smooth="yes"/>
      <point x="229" y="0"/>
      <point x="200" y="30"/>
      <point x="200" y="68" type="qcurve" smooth="yes"/>
      <point x="200" y="106"/>
      <point x="229" y="136"/>
      <point x="263" y="136" type="qcurve" smooth="yes"/>
      <point x="539" y="136" type="line"/>
    </contour>
  </outline>
</glyph>
<glyph name="iogonek" format="1">
  <advance width="1228"/>
  <unicode hex="012F"/>
  <outline>
    <contour>
      <point x="563" y="788" type="line"/>
      <point x="310" y="788" type="line" smooth="yes"/>
      <point x="276" y="788"/>
      <point x="247" y="818"/>
      <point x="247" y="856" type="qcurve" smooth="yes"/>
      <point x="247" y="894"/>
      <point x="276" y="924"/>
      <point x="310" y="924" type="qcurve" smooth="yes"/>
      <point x="650" y="924" type="line" smooth="yes"/>
      <point x="684" y="924"/>
      <point x="713" y="894"/>
      <point x="713" y="856" type="qcurve" smooth="yes"/>
      <point x="713" y="136" type="line"/>
      <point x="1034" y="136" type="line" smooth="yes"/>
      <point x="1068" y="136"/>
      <point x="1097" y="106"/>
      <point x="1097" y="68" type="qcurve" smooth="yes"/>
      <point x="1097" y="30"/>
      <point x="1068" y="0"/>
      <point x="1034" y="0" type="qcurve" smooth="yes"/>
      <point x="713" y="0" type="line"/>
      <point x="624" y="-83"/>
      <point x="547" y="-206"/>
      <point x="547" y="-261" type="qcurve" smooth="yes"/>
      <point x="547" y="-298"/>
      <point x="590" y="-336"/>
      <point x="624" y="-336" type="qcurve" smooth="yes"/>
      <point x="653" y="-336"/>
      <point x="711" y="-331"/>
      <point x="737" y="-326" type="qcurve" smooth="yes"/>
      <point x="757" y="-323"/>
      <point x="783" y="-346"/>
      <point x="787" y="-374" type="qcurve" smooth="yes"/>
      <point x="792" y="-405"/>
      <point x="777" y="-438"/>
      <point x="755" y="-446" type="qcurve" smooth="yes"/>
      <point x="720" y="-458"/>
      <point x="638" y="-472"/>
      <point x="591" y="-472" type="qcurve" smooth="yes"/>
      <point x="497" y="-472"/>
      <point x="391" y="-369"/>
      <point x="391" y="-281" type="qcurve" smooth="yes"/>
      <point x="391" y="-204"/>
      <point x="480" y="-66"/>
      <point x="555" y="0" type="qcurve"/>
      <point x="250" y="0" type="line" smooth="yes"/>
      <point x="216" y="0"/>
      <point x="187" y="30"/>
      <point x="187" y="68" type="qcurve" smooth="yes"/>
      <point x="187" y="106"/>
      <point x="216" y="136"/>
      <point x="250" y="136" type="qcurve" smooth="yes"/>
      <point x="563" y="136" type="line"/>
    </contour>
    <contour>
      <point x="713" y="1168" type="line" smooth="yes"/>
      <point x="713" y="1133"/>
      <point x="675" y="1103"/>
      <point x="618" y="1103" type="qcurve" smooth="yes"/>
      <point x="561" y="1103"/>
      <point x="523" y="1133"/>
      <point x="523" y="1168" type="qcurve" smooth="yes"/>
      <point x="523" y="1298" type="line" smooth="yes"/>
      <point x="523" y="1333"/>
      <point x="561" y="1363"/>
      <point x="618" y="1363" type="qcurve" smooth="yes"/>
      <point x="675" y="1363"/>
      <point x="713" y="1333"/>
      <point x="713" y="1298" type="qcurve" smooth="yes"/>
    </contour>
  </outline>
</glyph>
<glyph name="dotlessi" format="1">
  <advance width="1228"/>
  <unicode hex="0131"/>
  <outline>
    <contour>
      <point x="563" y="788" type="line"/>
      <point x="310" y="788" type="line" smooth="yes"/>
      <point x="276" y="788"/>
      <point x="247" y="818"/>
      <point x="247" y="856" type="qcurve" smooth="yes"/>
      <point x="247" y="894"/>
      <point x="276" y="924"/>
      <point x="310" y="924" type="qcurve" smooth="yes"/>
      <point x="650" y="924" type="line" smooth="yes"/>
      <point x="684" y="924"/>
      <point x="713" y="894"/>
      <point x="713" y="856" type="qcurve" smooth="yes"/>
      <point x="713" y="136" type="line"/>
      <point x="1034" y="136" type="line" smooth="yes"/>
      <point x="1068" y="136"/>
      <point x="1097" y="106"/>
      <point x="1097" y="68" type="qcurve" smooth="yes"/>
      <point x="1097" y="30"/>
      <point x="1068" y="0"/>
      <point x="1034" y="0" type="qcurve" smooth="yes"/>
      <point x="250" y="0" type="line" smooth="yes"/>
      <point x="216" y="0"/>
      <point x="187" y="30"/>
      <point x="187" y="68" type="qcurve" smooth="yes"/>
      <point x="187" y="106"/>
      <point x="216" y="136"/>
      <point x="250" y="136" type="qcurve" smooth="yes"/>
      <point x="563" y="136" type="line"/>
    </contour>
  </outline>
</glyph>
<glyph name="ij" format="1">
  <advance width="1228"/>
  <unicode hex="0133"/>
  <outline>
    <contour>
      <point x="283" y="788" type="line"/>
      <point x="160" y="788" type="line" smooth="yes"/>
      <point x="126" y="788"/>
      <point x="97" y="818"/>
      <point x="97" y="856" type="qcurve" smooth="yes"/>
      <point x="97" y="894"/>
      <point x="126" y="924"/>
      <point x="160" y="924" type="qcurve" smooth="yes"/>
      <point x="370" y="924" type="line" smooth="yes"/>
      <point x="404" y="924"/>
      <point x="433" y="894"/>
      <point x="433" y="856" type="qcurve" smooth="yes"/>
      <point x="433" y="136" type="line"/>
      <point x="604" y="136" type="line" smooth="yes"/>
      <point x="638" y="136"/>
      <point x="667" y="106"/>
      <point x="667" y="68" type="qcurve" smooth="yes"/>
      <point x="667" y="30"/>
      <point x="638" y="0"/>
      <point x="604" y="0" type="qcurve" smooth="yes"/>
      <point x="120" y="0" type="line" smooth="yes"/>
      <point x="86" y="0"/>
      <point x="57" y="30"/>
      <point x="57" y="68" type="qcurve" smooth="yes"/>
      <point x="57" y="106"/>
      <point x="86" y="136"/>
      <point x="120" y="136" type="qcurve" smooth="yes"/>
      <point x="283" y="136" type="line"/>
    </contour>
    <contour>
      <point x="433" y="1168" type="line" smooth="yes"/>
      <point x="433" y="1133"/>
      <point x="395" y="1103"/>
      <point x="338" y="1103" type="qcurve" smooth="yes"/>
      <point x="281" y="1103"/>
      <point x="243" y="1133"/>
      <point x="243" y="1168" type="qcurve" smooth="yes"/>
      <point x="243" y="1298" type="line" smooth="yes"/>
      <point x="243" y="1333"/>
      <point x="281" y="1363"/>
      <point x="338" y="1363" type="qcurve" smooth="yes"/>
      <point x="395" y="1363"/>
      <point x="433" y="1333"/>
      <point x="433" y="1298" type="qcurve" smooth="yes"/>
    </contour>
    <contour>
      <point x="700" y="788" type="line" smooth="yes"/>
      <point x="666" y="788"/>
      <point x="637" y="818"/>
      <point x="637" y="856" type="qcurve" smooth="yes"/>
      <point x="637" y="894"/>
      <point x="666" y="924"/>
      <point x="700" y="924" type="qcurve" smooth="yes"/>
      <point x="1010" y="924" type="line" smooth="yes"/>
      <point x="1044" y="924"/>
      <point x="1073" y="894"/>
      <point x="1073" y="856" type="qcurve" smooth="yes"/>
      <point x="1073" y="-62" type="line" smooth="yes"/>
      <point x="1073" y="-148"/>
      <point x="1036" y="-280"/>
      <point x="996.5" y="-324.5" type="qcurve" smooth="yes" name="inserted"/>
      <point x="957" y="-369"/>
      <point x="833" y="-415"/>
      <point x="746" y="-415" type="qcurve" smooth="yes"/>
      <point x="665" y="-415"/>
      <point x="509" y="-373"/>
      <point x="451" y="-342" type="qcurve" smooth="yes"/>
      <point x="435" y="-334"/>
      <point x="417" y="-310"/>
      <point x="417" y="-293" type="qcurve" smooth="yes"/>
      <point x="417" y="-279"/>
      <point x="425" y="-245"/>
      <point x="433.0" y="-230.5" type="qcurve" smooth="yes" name="inserted"/>
      <point x="441" y="-216"/>
      <point x="464" y="-196"/>
      <point x="479" y="-196" type="qcurve" smooth="yes"/>
      <point x="487.0" y="-196.0" name="inserted"/>
      <point x="502.5" y="-200.0"/>
      <point x="510" y="-204" type="qcurve" smooth="yes"/>
      <point x="568" y="-236"/>
      <point x="683" y="-269"/>
      <point x="746" y="-269" type="qcurve" smooth="yes"/>
      <point x="796" y="-269"/>
      <point x="864" y="-242"/>
      <point x="884.5" y="-214.5" type="qcurve" smooth="yes" name="inserted"/>
      <point x="905" y="-187"/>
      <point x="923" y="-104"/>
      <point x="923" y="-49" type="qcurve" smooth="yes"/>
      <point x="923" y="788" type="line"/>
    </contour>
    <contour>
      <point x="1073" y="1168" type="line" smooth="yes"/>
      <point x="1073" y="1133"/>
      <point x="1035" y="1103"/>
      <point x="978" y="1103" type="qcurve" smooth="yes"/>
      <point x="921" y="1103"/>
      <point x="883" y="1133"/>
      <point x="883" y="1168" type="qcurve" smooth="yes"/>
      <point x="883" y="1298" type="line" smooth="yes"/>
      <point x="883" y="1333"/>
      <point x="921" y="1363"/>
      <point x="978" y="1363" type="qcurve" smooth="yes"/>
      <point x="1035" y="1363"/>
      <point x="1073" y="1333"/>
      <point x="1073" y="1298" type="qcurve" smooth="yes"/>
    </contour>
  </outline>
</glyph>
<glyph name="lslash" format="1">
  <advance width="1228"/>
  <unicode hex="0142"/>
  <outline>
    <contour>
      <point x="553" y="557" type="line"/>
      <point x="378" y="438" type="line" smooth="yes"/>
      <point x="350" y="419"/>
      <point x="308" y="427"/>
      <point x="287" y="459" type="qcurve" smooth="yes"/>
      <point x="266" y="490"/>
      <point x="273" y="531"/>
      <point x="301" y="550" type="qcurve" smooth="yes"/>
      <point x="553" y="721" type="line"/>
      <point x="553" y="1176" type="line"/>
      <point x="280" y="1176" type="line" smooth="yes"/>
      <point x="246" y="1176"/>
      <point x="217" y="1206"/>
      <point x="217" y="1244" type="qcurve" smooth="yes"/>
      <point x="217" y="1282"/>
      <point x="246" y="1312"/>
      <point x="280" y="1312" type="qcurve" smooth="yes"/>
      <point x="640" y="1312" type="line" smooth="yes"/>
      <point x="674" y="1312"/>
      <point x="703" y="1282"/>
      <point x="703" y="1244" type="qcurve" smooth="yes"/>
      <point x="703" y="823" type="line"/>
      <point x="870" y="937" type="line" smooth="yes"/>
      <point x="898" y="956"/>
      <point x="940" y="948"/>
      <point x="961" y="916" type="qcurve" smooth="yes"/>
      <point x="982" y="885"/>
      <point x="975" y="844"/>
      <point x="947" y="825" type="qcurve" smooth="yes"/>
      <point x="703" y="659" type="line"/>
      <point x="703" y="136" type="line"/>
      <point x="1024" y="136" type="line" smooth="yes"/>
      <point x="1058" y="136"/>
      <point x="1087" y="106"/>
      <point x="1087" y="68" type="qcurve" smooth="yes"/>
      <point x="1087" y="30"/>
      <point x="1058" y="0"/>
      <point x="1024" y="0" type="qcurve" smooth="yes"/>
      <point x="240" y="0" type="line" smooth="yes"/>
      <point x="206" y="0"/>
      <point x="177" y="30"/>
      <point x="177" y="68" type="qcurve" smooth="yes"/>
      <point x="177" y="106"/>
      <point x="206" y="136"/>
      <point x="240" y="136" type="qcurve" smooth="yes"/>
      <point x="553" y="136" type="line"/>
    </contour>
  </outline>
</glyph>
<glyph name="OE" format="1">
  <advance width="1228"/>
  <unicode hex="0152"/>
  <outline>
    <contour>
      <point x="988" y="136" type="line"/>
      <point x="988" y="365" type="line" smooth="yes"/>
      <point x="988" y="400"/>
      <point x="1021" y="430"/>
      <point x="1063" y="430" type="qcurve" smooth="yes"/>
      <point x="1105" y="430"/>
      <point x="1138" y="400"/>
      <point x="1138" y="365" type="qcurve" smooth="yes"/>
      <point x="1138" y="68" type="line" smooth="yes"/>
      <point x="1138" y="30"/>
      <point x="1109" y="0"/>
      <point x="1075" y="0" type="qcurve" smooth="yes"/>
      <point x="574" y="0" type="line" smooth="yes"/>
      <point x="458" y="0"/>
      <point x="269" y="81"/>
      <point x="202.0" y="157.5" type="qcurve" smooth="yes" name="inserted"/>
      <point x="135" y="234"/>
      <point x="62" y="454"/>
      <point x="62" y="593" type="qcurve" smooth="yes"/>
      <point x="62" y="732"/>
      <point x="135" y="952"/>
      <point x="202.0" y="1028.5" type="qcurve" smooth="yes" name="inserted"/>
      <point x="269" y="1105"/>
      <point x="458" y="1187"/>
      <point x="574" y="1187" type="qcurve" smooth="yes"/>
      <point x="1063" y="1187" type="line" smooth="yes"/>
      <point x="1097" y="1187"/>
      <point x="1126" y="1157"/>
      <point x="1126" y="1119" type="qcurve" smooth="yes"/>
      <point x="1126" y="865" type="line" smooth="yes"/>
      <point x="1126" y="830"/>
      <point x="1093" y="800"/>
      <point x="1051" y="800" type="qcurve" smooth="yes"/>
      <point x="1009" y="800"/>
      <point x="976" y="830"/>
      <point x="976" y="865" type="qcurve" smooth="yes"/>
      <point x="976" y="1051" type="line"/>
      <point x="716" y="1051" type="line"/>
      <point x="716" y="685" type="line"/>
      <point x="908" y="685" type="line" smooth="yes"/>
      <point x="942" y="685"/>
      <point x="971" y="655"/>
      <point x="971" y="617" type="qcurve" smooth="yes"/>
      <point x="971" y="579"/>
      <point x="942" y="549"/>
      <point x="908" y="549" type="qcurve" smooth="yes"/>
      <point x="716" y="549" type="line"/>
      <point x="716" y="136" type="line"/>
    </contour>
    <contour>
      <point x="220" y="593" type="qcurve" smooth="yes"/>
      <point x="220" y="484"/>
      <point x="269" y="316"/>
      <point x="314.5" y="258.5" type="qcurve" smooth="yes" name="inserted"/>
      <point x="360" y="201"/>
      <point x="488" y="139"/>
      <point x="566" y="136" type="qcurve"/>
      <point x="566" y="1050" type="line"/>
      <point x="488" y="1047"/>
      <point x="360" y="986"/>
      <point x="314.5" y="928.0" type="qcurve" smooth="yes" name="inserted"/>
      <point x="269" y="870"/>
      <point x="220" y="702"/>
    </contour>
  </outline>
</glyph>
<glyph name="oe" format="1">
  <advance width="1228"/>
  <unicode hex="0153"/>
  <outline>
    <contour>
      <point x="1151" y="502" type="qcurve" smooth="yes"/>
      <point x="1151" y="468"/>
      <point x="1122" y="440"/>
      <point x="1088" y="440" type="qcurve" smooth="yes"/>
      <point x="689" y="440" type="line"/>
      <point x="690" y="350"/>
      <point x="717" y="228"/>
      <point x="739.0" y="191.0" type="qcurve" smooth="yes" name="inserted"/>
      <point x="761" y="154"/>
      <point x="820" y="123"/>
      <point x="853" y="123" type="qcurve" smooth="yes"/>
      <point x="901" y="123"/>
      <point x="981" y="160"/>
      <point x="1023" y="201" type="qcurve" smooth="yes"/>
      <point x="1042" y="220"/>
      <point x="1095" y="216"/>
      <point x="1118" y="187" type="qcurve" smooth="yes"/>
      <point x="1141" y="158"/>
      <point x="1136" y="107"/>
      <point x="1112" y="84" type="qcurve" smooth="yes"/>
      <point x="1056" y="31"/>
      <point x="925" y="-22"/>
      <point x="853" y="-22" type="qcurve" smooth="yes"/>
      <point x="775" y="-22"/>
      <point x="654" y="46"/>
      <point x="613" y="116" type="qcurve"/>
      <point x="576" y="48"/>
      <point x="461" y="-22"/>
      <point x="382" y="-22" type="qcurve" smooth="yes"/>
      <point x="304" y="-22"/>
      <point x="187" y="43"/>
      <point x="148.0" y="105.0" type="qcurve" smooth="yes" name="inserted"/>
      <point x="109" y="167"/>
      <point x="70" y="347"/>
      <point x="70" y="462" type="qcurve" smooth="yes"/>
      <point x="70" y="577"/>
      <point x="109" y="757"/>
      <point x="148.0" y="819.0" type="qcurve" smooth="yes" name="inserted"/>
      <point x="187" y="881"/>
      <point x="304" y="946"/>
      <point x="382" y="946" type="qcurve" smooth="yes"/>
      <point x="462" y="946"/>
      <point x="576" y="875"/>
      <point x="613" y="806" type="qcurve"/>
      <point x="654" y="876"/>
      <point x="775" y="946"/>
      <point x="853" y="946" type="qcurve" smooth="yes"/>
      <point x="932" y="946"/>
      <point x="1044" y="882"/>
      <point x="1079.0" y="824.0" type="qcurve" smooth="yes" name="inserted"/>
      <point x="1114" y="766"/>
      <point x="1148" y="602"/>
    </contour>
    <contour>
      <point x="228" y="462" type="qcurve" smooth="yes"/>
      <point x="228" y="286"/>
      <point x="303" y="126"/>
      <point x="382" y="126" type="qcurve" smooth="yes"/>
      <point x="461" y="126"/>
      <point x="536" y="286"/>
      <point x="536" y="462" type="qcurve" smooth="yes"/>
      <point x="536" y="638"/>
      <point x="461" y="798"/>
      <point x="382" y="798" type="qcurve" smooth="yes"/>
      <point x="303" y="798"/>
      <point x="228" y="638"/>
    </contour>
    <contour>
      <point x="855" y="801" type="qcurve" smooth="yes"/>
      <point x="786" y="801"/>
      <point x="706" y="699"/>
      <point x="694" y="580" type="qcurve"/>
      <point x="994" y="580" type="line"/>
      <point x="987" y="683"/>
      <point x="923" y="801"/>
    </contour>
  </outline>
</glyph>
<glyph name="Scedilla" format="1">
  <advance width="1228"/>
  <unicode hex="015E"/>
  <outline>
    <contour>
      <point x="549" y="-13" type="line"/>
      <point x="476.5" y="0.0" name="inserted"/>
      <point x="356.0" y="67.0"/>
      <point x="308" y="121" type="qcurve"/>
      <point x="308" y="43" type="line" smooth="yes"/>
      <point x="308" y="8"/>
      <point x="275" y="-22"/>
      <point x="233" y="-22" type="qcurve" smooth="yes"/>
      <point x="191" y="-22"/>
      <point x="158" y="8"/>
      <point x="158" y="43" type="qcurve" smooth="yes"/>
      <point x="158" y="343" type="line" smooth="yes"/>
      <point x="158" y="378"/>
      <point x="191" y="408"/>
      <point x="233" y="408" type="qcurve" smooth="yes"/>
      <point x="254.5" y="408.0" name="inserted"/>
      <point x="283.5" y="387.0"/>
      <point x="291" y="366" type="qcurve" smooth="yes"/>
      <point x="332" y="250"/>
      <point x="510" y="126"/>
      <point x="642" y="126" type="qcurve" smooth="yes"/>
      <point x="708" y="126"/>
      <point x="807" y="156"/>
      <point x="840.0" y="182.5" type="qcurve" smooth="yes" name="inserted"/>
      <point x="873" y="209"/>
      <point x="907" y="283"/>
      <point x="907" y="327" type="qcurve" smooth="yes"/>
      <point x="907" y="393"/>
      <point x="840" y="471"/>
      <point x="784" y="495" type="qcurve" smooth="yes"/>
      <point x="738" y="514"/>
      <point x="626" y="539"/>
      <point x="566.5" y="551.0" type="qcurve" smooth="yes" name="inserted"/>
      <point x="507" y="563"/>
      <point x="389" y="591"/>
      <point x="338" y="614" type="qcurve" smooth="yes"/>
      <point x="301" y="630"/>
      <point x="239" y="676"/>
      <point x="216.5" y="707.0" type="qcurve" smooth="yes" name="inserted"/>
      <point x="194" y="738"/>
      <point x="169" y="820"/>
      <point x="169" y="873" type="qcurve" smooth="yes"/>
      <point x="169" y="951"/>
      <point x="227" y="1076"/>
      <point x="278.5" y="1119.5" type="qcurve" smooth="yes" name="inserted"/>
      <point x="330" y="1163"/>
      <point x="473" y="1209"/>
      <point x="558" y="1209" type="qcurve" smooth="yes"/>
      <point x="649" y="1209"/>
      <point x="811" y="1140"/>
      <point x="868" y="1083" type="qcurve"/>
      <point x="868" y="1144" type="line" smooth="yes"/>
      <point x="868" y="1179"/>
      <point x="901" y="1209"/>
      <point x="943" y="1209" type="qcurve" smooth="yes"/>
      <point x="985" y="1209"/>
      <point x="1018" y="1179"/>
      <point x="1018" y="1144" type="qcurve" smooth="yes"/>
      <point x="1018" y="914" type="line" smooth="yes"/>
      <point x="1018" y="879"/>
      <point x="985" y="849"/>
      <point x="943" y="849" type="qcurve" smooth="yes"/>
      <point x="924.0" y="849.0" name="inserted"/>
      <point x="898.0" y="862.0"/>
      <point x="891" y="875" type="qcurve" smooth="yes"/>
      <point x="842" y="968"/>
      <point x="668" y="1061"/>
      <point x="558" y="1061" type="qcurve" smooth="yes"/>
      <point x="446" y="1061"/>
      <point x="327" y="957"/>
      <point x="327" y="873" type="qcurve" smooth="yes"/>
      <point x="327" y="830"/>
      <point x="371" y="775"/>
      <point x="408" y="756" type="qcurve" smooth="yes"/>
      <point x="448" y="736"/>
      <point x="555" y="712"/>
      <point x="614.0" y="700.5" type="qcurve" smooth="yes" name="inserted"/>
      <point x="673" y="689"/>
      <point x="796" y="662"/>
      <point x="852" y="640" type="qcurve" smooth="yes"/>
      <point x="897" y="622"/>
      <point x="975" y="570"/>
      <point x="1003.5" y="532.5" type="qcurve" smooth="yes" name="inserted"/>
      <point x="1032" y="495"/>
      <point x="1065" y="394"/>
      <point x="1065" y="327" type="qcurve" smooth="yes"/>
      <point x="1065" y="254"/>
      <point x="1015" y="131"/>
      <point x="967.0" y="85.0" type="qcurve" smooth="yes" name="inserted"/>
      <point x="919" y="39"/>
      <point x="777" y="-16"/>
      <point x="684" y="-21" type="qcurve"/>
      <point x="684" y="-113" type="line"/>
      <point x="736" y="-112"/>
      <point x="813" y="-138"/>
      <point x="838.5" y="-161.0" type="qcurve" smooth="yes" name="inserted"/>
      <point x="864" y="-184"/>
      <point x="890" y="-246"/>
      <point x="890" y="-281" type="qcurve" smooth="yes"/>
      <point x="890" y="-323"/>
      <point x="859" y="-393"/>
      <point x="828.0" y="-418.5" type="qcurve" smooth="yes" name="inserted"/>
      <point x="797" y="-444"/>
      <point x="704" y="-472"/>
      <point x="641" y="-472" type="qcurve" smooth="yes"/>
      <point x="574" y="-472"/>
      <point x="446" y="-448"/>
      <point x="394" y="-424" type="qcurve" smooth="yes"/>
      <point x="376" y="-416"/>
      <point x="371" y="-376"/>
      <point x="379" y="-356" type="qcurve" smooth="yes"/>
      <point x="387" y="-336"/>
      <point x="419" y="-310"/>
      <point x="438" y="-318" type="qcurve" smooth="yes"/>
      <point x="477" y="-333"/>
      <point x="580" y="-352"/>
      <point x="631" y="-352" type="qcurve" smooth="yes"/>
      <point x="681" y="-352"/>
      <point x="734" y="-317"/>
      <point x="734" y="-285" type="qcurve" smooth="yes"/>
      <point x="734" y="-243"/>
      <point x="658" y="-212"/>
      <point x="589" y="-217" type="qcurve"/>
      <point x="582" y="-217"/>
      <point x="568" y="-215"/>
      <point x="562.0" y="-210.5" type="qcurve" smooth="yes" name="inserted"/>
      <point x="556" y="-206"/>
      <point x="549" y="-189"/>
      <point x="549" y="-175" type="qcurve" smooth="yes"/>
    </contour>
  </outline>
</glyph>
